AnekTelugu-ExtraBold.ufo
<glyph name="m" format="2">
  <advance width="1731"/>
  <unicode hex="006D"/>
  <anchor x="863" y="0" name="bottom"/>
  <anchor x="863" y="985" name="top"/>
  <outline>
    <contour>
      <point x="1292" y="0" type="line"/>
      <point x="1646" y="0" type="line"/>
      <point x="1646" y="637" type="line" smooth="yes"/>
      <point x="1646" y="887"/>
      <point x="1551" y="1009"/>
      <point x="1344" y="1009" type="curve" smooth="yes"/>
      <point x="1150" y="1009"/>
      <point x="1070" y="904"/>
      <point x="1041" y="767" type="curve"/>
      <point x="1011" y="767" type="line"/>
      <point x="1042" y="621" type="line"/>
      <point x="1062" y="674"/>
      <point x="1107" y="717"/>
      <point x="1177" y="717" type="curve" smooth="yes"/>
      <point x="1264" y="717"/>
      <point x="1292" y="664"/>
      <point x="1292" y="576" type="curve" smooth="yes"/>
    </contour>
    <contour>
      <point x="92" y="0" type="line"/>
      <point x="446" y="0" type="line"/>
      <point x="446" y="696" type="line"/>
      <point x="433" y="705" type="line"/>
      <point x="444" y="985" type="line"/>
      <point x="92" y="985" type="line"/>
    </contour>
    <contour>
      <point x="692" y="0" type="line"/>
      <point x="1046" y="0" type="line"/>
      <point x="1046" y="628" type="line" smooth="yes"/>
      <point x="1046" y="659"/>
      <point x="1039" y="706"/>
      <point x="1037" y="733" type="curve"/>
      <point x="1014" y="911"/>
      <point x="927" y="1009"/>
      <point x="744" y="1009" type="curve" smooth="yes"/>
      <point x="553" y="1009"/>
      <point x="474" y="904"/>
      <point x="445" y="767" type="curve"/>
      <point x="388" y="767" type="line"/>
      <point x="442" y="621" type="line"/>
      <point x="462" y="674"/>
      <point x="507" y="717"/>
      <point x="577" y="717" type="curve" smooth="yes"/>
      <point x="664" y="717"/>
      <point x="692" y="664"/>
      <point x="692" y="576" type="curve" smooth="yes"/>
    </contour>
  </outline>
</glyph>
<glyph name="Candrabindu_above.te" format="2">
  <unicode hex="0C00"/>
  <outline>
    <contour>
      <point x="-579" y="1257" type="curve" smooth="yes"/>
      <point x="-234" y="1257"/>
      <point x="-91" y="1433"/>
      <point x="-91" y="1649" type="curve" smooth="yes"/>
      <point x="-91" y="1662" type="line"/>
      <point x="-363" y="1662" type="line"/>
      <point x="-367" y="1547"/>
      <point x="-428" y="1484"/>
      <point x="-579" y="1484" type="curve" smooth="yes"/>
      <point x="-729" y="1484"/>
      <point x="-791" y="1547"/>
      <point x="-794" y="1662" type="curve"/>
      <point x="-1066" y="1662" type="line"/>
      <point x="-1066" y="1649" type="line" smooth="yes"/>
      <point x="-1066" y="1433"/>
      <point x="-924" y="1257"/>
    </contour>
    <contour>
      <point x="-579" y="1580" type="curve" smooth="yes"/>
      <point x="-494" y="1580"/>
      <point x="-449" y="1626"/>
      <point x="-449" y="1711" type="curve" smooth="yes"/>
      <point x="-449" y="1796"/>
      <point x="-494" y="1840"/>
      <point x="-579" y="1840" type="curve" smooth="yes"/>
      <point x="-664" y="1840"/>
      <point x="-708" y="1796"/>
      <point x="-708" y="1711" type="curve" smooth="yes"/>
      <point x="-708" y="1626"/>
      <point x="-664" y="1580"/>
    </contour>
  </outline>
</glyph>
<glyph name="Candrabindu.te" format="2">
  <advance width="758"/>
  <unicode hex="0C01"/>
  <outline>
    <contour>
      <point x="628" y="-35" type="curve" smooth="yes"/>
      <point x="665" y="-35" type="line"/>
      <point x="715" y="274" type="line"/>
      <point x="665" y="274" type="line" smooth="yes"/>
      <point x="504" y="274"/>
      <point x="417" y="364"/>
      <point x="417" y="536" type="curve" smooth="yes"/>
      <point x="417" y="621" type="line" smooth="yes"/>
      <point x="417" y="794"/>
      <point x="504" y="882"/>
      <point x="665" y="882" type="curve" smooth="yes"/>
      <point x="715" y="882" type="line"/>
      <point x="665" y="1191" type="line"/>
      <point x="628" y="1191" type="line" smooth="yes"/>
      <point x="292" y="1191"/>
      <point x="75" y="1000"/>
      <point x="75" y="636" type="curve" smooth="yes"/>
      <point x="75" y="516" type="line" smooth="yes"/>
      <point x="75" y="158"/>
      <point x="292" y="-35"/>
    </contour>
  </outline>
</glyph>
<glyph name="Anuswara.te" format="2">
  <advance width="1312"/>
  <unicode hex="0C02"/>
  <outline>
    <contour>
      <point x="656" y="-38" type="curve" smooth="yes"/>
      <point x="1033" y="-38"/>
      <point x="1237" y="156"/>
      <point x="1237" y="536" type="curve" smooth="yes"/>
      <point x="1237" y="618" type="line" smooth="yes"/>
      <point x="1237" y="998"/>
      <point x="1033" y="1191"/>
      <point x="656" y="1191" type="curve" smooth="yes"/>
      <point x="279" y="1191"/>
      <point x="75" y="998"/>
      <point x="75" y="618" type="curve" smooth="yes"/>
      <point x="75" y="536" type="line" smooth="yes"/>
      <point x="75" y="156"/>
      <point x="279" y="-38"/>
    </contour>
    <contour>
      <point x="656" y="277" type="curve" smooth="yes"/>
      <point x="495" y="277"/>
      <point x="417" y="360"/>
      <point x="417" y="536" type="curve" smooth="yes"/>
      <point x="417" y="618" type="line" smooth="yes"/>
      <point x="417" y="793"/>
      <point x="495" y="877"/>
      <point x="656" y="877" type="curve" smooth="yes"/>
      <point x="817" y="877"/>
      <point x="895" y="793"/>
      <point x="895" y="618" type="curve" smooth="yes"/>
      <point x="895" y="536" type="line" smooth="yes"/>
      <point x="895" y="360"/>
      <point x="817" y="277"/>
    </contour>
  </outline>
</glyph>
<glyph name="Visarga.te" format="2">
  <advance width="854"/>
  <unicode hex="0C03"/>
  <outline>
    <contour>
      <point x="427" y="597" type="curve" smooth="yes"/>
      <point x="669" y="597"/>
      <point x="794" y="702"/>
      <point x="794" y="891" type="curve" smooth="yes"/>
      <point x="794" y="898" type="line" smooth="yes"/>
      <point x="794" y="1087"/>
      <point x="669" y="1192"/>
      <point x="427" y="1192" type="curve" smooth="yes"/>
      <point x="185" y="1192"/>
      <point x="60" y="1087"/>
      <point x="60" y="898" type="curve" smooth="yes"/>
      <point x="60" y="891" type="line" smooth="yes"/>
      <point x="60" y="702"/>
      <point x="185" y="597"/>
    </contour>
    <contour>
      <point x="427" y="-38" type="curve" smooth="yes"/>
      <point x="669" y="-38"/>
      <point x="794" y="67"/>
      <point x="794" y="256" type="curve" smooth="yes"/>
      <point x="794" y="263" type="line" smooth="yes"/>
      <point x="794" y="452"/>
      <point x="669" y="557"/>
      <point x="427" y="557" type="curve" smooth="yes"/>
      <point x="185" y="557"/>
      <point x="60" y="452"/>
      <point x="60" y="263" type="curve" smooth="yes"/>
      <point x="60" y="256" type="line" smooth="yes"/>
      <point x="60" y="67"/>
      <point x="185" y="-38"/>
    </contour>
    <contour>
      <point x="427" y="197" type="curve" smooth="yes"/>
      <point x="376" y="197"/>
      <point x="350" y="216"/>
      <point x="350" y="259" type="curve" smooth="yes"/>
      <point x="350" y="260" type="line" smooth="yes"/>
      <point x="350" y="303"/>
      <point x="376" y="322"/>
      <point x="427" y="322" type="curve" smooth="yes"/>
      <point x="478" y="322"/>
      <point x="504" y="303"/>
      <point x="504" y="260" type="curve" smooth="yes"/>
      <point x="504" y="259" type="line" smooth="yes"/>
      <point x="504" y="216"/>
      <point x="478" y="197"/>
    </contour>
    <contour>
      <point x="427" y="832" type="curve" smooth="yes"/>
      <point x="376" y="832"/>
      <point x="350" y="851"/>
      <point x="350" y="894" type="curve" smooth="yes"/>
      <point x="350" y="895" type="line" smooth="yes"/>
      <point x="350" y="938"/>
      <point x="376" y="957"/>
      <point x="427" y="957" type="curve" smooth="yes"/>
      <point x="478" y="957"/>
      <point x="504" y="938"/>
      <point x="504" y="895" type="curve" smooth="yes"/>
      <point x="504" y="894" type="line" smooth="yes"/>
      <point x="504" y="851"/>
      <point x="478" y="832"/>
    </contour>
  </outline>
</glyph>
<glyph name="vowelA.te" format="2">
  <advance width="1659"/>
  <unicode hex="0C05"/>
  <outline>
    <contour>
      <point x="1131" y="1191" type="curve" smooth="yes"/>
      <point x="871" y="1191"/>
      <point x="741" y="1084"/>
      <point x="741" y="899" type="curve" smooth="yes"/>
      <point x="741" y="896" type="line" smooth="yes"/>
      <point x="741" y="800"/>
      <point x="778" y="725"/>
      <point x="878" y="693" type="curve"/>
      <point x="878" y="686" type="line"/>
      <point x="553" y="688" type="line"/>
      <point x="603" y="425" type="line"/>
      <point x="1138" y="438" type="line"/>
      <point x="1138" y="677" type="line"/>
      <point x="1085" y="685" type="line"/>
      <point x="1060" y="704"/>
      <point x="1051" y="733"/>
      <point x="1051" y="777" type="curve" smooth="yes"/>
      <point x="1051" y="799" type="line" smooth="yes"/>
      <point x="1051" y="860"/>
      <point x="1077" y="898"/>
      <point x="1139" y="898" type="curve" smooth="yes"/>
      <point x="1214" y="898"/>
      <point x="1242" y="860"/>
      <point x="1242" y="728" type="curve" smooth="yes"/>
      <point x="1242" y="605" type="line" smooth="yes"/>
      <point x="1242" y="389"/>
      <point x="1113" y="275"/>
      <point x="830" y="275" type="curve" smooth="yes"/>
      <point x="547" y="275"/>
      <point x="417" y="380"/>
      <point x="417" y="605" type="curve" smooth="yes"/>
      <point x="417" y="648" type="line" smooth="yes"/>
      <point x="417" y="788"/>
      <point x="485" y="866"/>
      <point x="626" y="866" type="curve" smooth="yes"/>
      <point x="637" y="866" type="line"/>
      <point x="587" y="1170" type="line"/>
      <point x="566" y="1170" type="line" smooth="yes"/>
      <point x="241" y="1170"/>
      <point x="75" y="964"/>
      <point x="75" y="647" type="curve" smooth="yes"/>
      <point x="75" y="596" type="line" smooth="yes"/>
      <point x="75" y="181"/>
      <point x="326" y="-37"/>
      <point x="830" y="-37" type="curve" smooth="yes"/>
      <point x="1334" y="-37"/>
      <point x="1584" y="188"/>
      <point x="1584" y="596" type="curve" smooth="yes"/>
      <point x="1584" y="697" type="line" smooth="yes"/>
      <point x="1584" y="1036"/>
      <point x="1433" y="1191"/>
    </contour>
  </outline>
</glyph>
<glyph name="vowelAa.te" format="2">
  <advance width="1659"/>
  <unicode hex="0C06"/>
  <outline>
    <contour>
      <point x="830" y="-37" type="curve" smooth="yes"/>
      <point x="1334" y="-37"/>
      <point x="1584" y="192"/>
      <point x="1584" y="596" type="curve" smooth="yes"/>
      <point x="1584" y="688" type="line"/>
      <point x="1394" y="685" type="line"/>
      <point x="1394" y="692" type="line"/>
      <point x="1498" y="726"/>
      <point x="1535" y="801"/>
      <point x="1535" y="896" type="curve" smooth="yes"/>
      <point x="1535" y="899" type="line" smooth="yes"/>
      <point x="1535" y="1084"/>
      <point x="1401" y="1191"/>
      <point x="1131" y="1191" type="curve" smooth="yes"/>
      <point x="861" y="1191"/>
      <point x="727" y="1084"/>
      <point x="727" y="899" type="curve" smooth="yes"/>
      <point x="727" y="896" type="line" smooth="yes"/>
      <point x="727" y="801"/>
      <point x="765" y="726"/>
      <point x="866" y="692" type="curve"/>
      <point x="866" y="685" type="line"/>
      <point x="553" y="688" type="line"/>
      <point x="603" y="425" type="line"/>
      <point x="1227" y="442" type="line"/>
      <point x="1227" y="435" type="line"/>
      <point x="1167" y="327"/>
      <point x="1041" y="275"/>
      <point x="832" y="275" type="curve" smooth="yes"/>
      <point x="547" y="275"/>
      <point x="417" y="382"/>
      <point x="417" y="605" type="curve" smooth="yes"/>
      <point x="417" y="648" type="line" smooth="yes"/>
      <point x="417" y="788"/>
      <point x="485" y="866"/>
      <point x="626" y="866" type="curve" smooth="yes"/>
      <point x="637" y="866" type="line"/>
      <point x="587" y="1170" type="line"/>
      <point x="566" y="1170" type="line" smooth="yes"/>
      <point x="241" y="1170"/>
      <point x="75" y="964"/>
      <point x="75" y="647" type="curve" smooth="yes"/>
      <point x="75" y="596" type="line" smooth="yes"/>
      <point x="75" y="179"/>
      <point x="326" y="-37"/>
    </contour>
    <contour>
      <point x="1073" y="685" type="line"/>
      <point x="1046" y="708"/>
      <point x="1037" y="741"/>
      <point x="1037" y="793" type="curve" smooth="yes"/>
      <point x="1037" y="801" type="line" smooth="yes"/>
      <point x="1037" y="872"/>
      <point x="1066" y="907"/>
      <point x="1130" y="907" type="curve" smooth="yes"/>
      <point x="1194" y="907"/>
      <point x="1223" y="872"/>
      <point x="1223" y="801" type="curve" smooth="yes"/>
      <point x="1223" y="793" type="line" smooth="yes"/>
      <point x="1223" y="741"/>
      <point x="1214" y="708"/>
      <point x="1187" y="685" type="curve"/>
    </contour>
  </outline>
</glyph>
<glyph name="vowelI.te" format="2">
  <advance width="1559"/>
  <unicode hex="0C07"/>
  <outline>
    <contour>
      <point x="705" y="-32" type="curve" smooth="yes"/>
      <point x="1142" y="-32"/>
      <point x="1483" y="212"/>
      <point x="1483" y="626" type="curve" smooth="yes"/>
      <point x="1483" y="749" type="line" smooth="yes"/>
      <point x="1483" y="1039"/>
      <point x="1345" y="1191"/>
      <point x="1082" y="1191" type="curve" smooth="yes"/>
      <point x="890" y="1191"/>
      <point x="796" y="1110"/>
      <point x="765" y="981" type="curve"/>
      <point x="756" y="981" type="line"/>
      <point x="725" y="1110"/>
      <point x="626" y="1191"/>
      <point x="442" y="1191" type="curve" smooth="yes"/>
      <point x="185" y="1191"/>
      <point x="55" y="1051"/>
      <point x="55" y="801" type="curve" smooth="yes"/>
      <point x="55" y="799" type="line" smooth="yes"/>
      <point x="55" y="766"/>
      <point x="59" y="719"/>
      <point x="70" y="674" type="curve"/>
      <point x="397" y="674" type="line"/>
      <point x="392" y="710"/>
      <point x="389" y="734"/>
      <point x="389" y="768" type="curve" smooth="yes"/>
      <point x="389" y="772" type="line" smooth="yes"/>
      <point x="389" y="851"/>
      <point x="421" y="889"/>
      <point x="495" y="889" type="curve" smooth="yes"/>
      <point x="571" y="889"/>
      <point x="598" y="853"/>
      <point x="603" y="793" type="curve" smooth="yes"/>
      <point x="610" y="708" type="line"/>
      <point x="911" y="708" type="line"/>
      <point x="918" y="793" type="line" smooth="yes"/>
      <point x="923" y="856"/>
      <point x="953" y="889"/>
      <point x="1026" y="889" type="curve" smooth="yes"/>
      <point x="1104" y="889"/>
      <point x="1141" y="843"/>
      <point x="1141" y="724" type="curve" smooth="yes"/>
      <point x="1141" y="613" type="line" smooth="yes"/>
      <point x="1141" y="539"/>
      <point x="1130" y="477"/>
      <point x="1104" y="427" type="curve"/>
      <point x="1056" y="349" type="line"/>
      <point x="979" y="289"/>
      <point x="877" y="260"/>
      <point x="696" y="260" type="curve" smooth="yes"/>
      <point x="559" y="260"/>
      <point x="499" y="276"/>
      <point x="499" y="320" type="curve" smooth="yes"/>
      <point x="499" y="321" type="line" smooth="yes"/>
      <point x="499" y="369"/>
      <point x="557" y="384"/>
      <point x="693" y="384" type="curve" smooth="yes"/>
      <point x="876" y="384"/>
      <point x="993" y="335"/>
      <point x="1059" y="248" type="curve"/>
      <point x="1114" y="152" type="line"/>
      <point x="1143" y="78"/>
      <point x="1157" y="-12"/>
      <point x="1164" y="-126" type="curve"/>
      <point x="1489" y="-126" type="line"/>
      <point x="1461" y="63"/>
      <point x="1407" y="184"/>
      <point x="1326" y="299" type="curve"/>
      <point x="1229" y="418" type="line"/>
      <point x="1092" y="586"/>
      <point x="929" y="658"/>
      <point x="669" y="658" type="curve" smooth="yes"/>
      <point x="335" y="658"/>
      <point x="165" y="545"/>
      <point x="165" y="317" type="curve" smooth="yes"/>
      <point x="165" y="312" type="line" smooth="yes"/>
      <point x="165" y="82"/>
      <point x="346" y="-32"/>
    </contour>
  </outline>
</glyph>
<glyph name="vowelIi.te" format="2">
  <advance width="2332"/>
  <unicode hex="0C08"/>
  <outline>
    <contour>
      <point x="1830" y="-36" type="curve" smooth="yes"/>
      <point x="2116" y="-36"/>
      <point x="2257" y="111"/>
      <point x="2257" y="332" type="curve" smooth="yes"/>
      <point x="2257" y="334" type="line" smooth="yes"/>
      <point x="2257" y="514"/>
      <point x="2148" y="641"/>
      <point x="1953" y="668" type="curve"/>
      <point x="1934" y="686"/>
      <point x="1906" y="714"/>
      <point x="1884" y="714" type="curve"/>
      <point x="1188" y="714" type="line"/>
      <point x="1145" y="708" type="line"/>
      <point x="336" y="708" type="line"/>
      <point x="299" y="714" type="line"/>
      <point x="46" y="714" type="line"/>
      <point x="46" y="463" type="line"/>
      <point x="304" y="463" type="line"/>
      <point x="338" y="469" type="line"/>
      <point x="1141" y="469" type="line"/>
      <point x="1186" y="463" type="line"/>
      <point x="1523" y="463" type="line"/>
      <point x="1461" y="407"/>
      <point x="1430" y="348"/>
      <point x="1430" y="264" type="curve" smooth="yes"/>
      <point x="1430" y="261" type="line" smooth="yes"/>
      <point x="1430" y="92"/>
      <point x="1561" y="-36"/>
    </contour>
    <contour>
      <point x="759" y="-38" type="curve" smooth="yes"/>
      <point x="1142" y="-38"/>
      <point x="1341" y="152"/>
      <point x="1341" y="521" type="curve" smooth="yes"/>
      <point x="1341" y="630" type="line" smooth="yes"/>
      <point x="1341" y="981"/>
      <point x="1138" y="1157"/>
      <point x="759" y="1157" type="curve" smooth="yes"/>
      <point x="380" y="1157"/>
      <point x="176" y="980"/>
      <point x="176" y="628" type="curve" smooth="yes"/>
      <point x="176" y="521" type="line" smooth="yes"/>
      <point x="176" y="152"/>
      <point x="375" y="-38"/>
    </contour>
    <contour>
      <point x="759" y="268" type="curve" smooth="yes"/>
      <point x="586" y="268"/>
      <point x="500" y="349"/>
      <point x="500" y="523" type="curve" smooth="yes"/>
      <point x="500" y="630" type="line" smooth="yes"/>
      <point x="500" y="800"/>
      <point x="586" y="886"/>
      <point x="759" y="886" type="curve" smooth="yes"/>
      <point x="932" y="886"/>
      <point x="1017" y="800"/>
      <point x="1017" y="630" type="curve" smooth="yes"/>
      <point x="1017" y="523" type="line" smooth="yes"/>
      <point x="1017" y="349"/>
      <point x="932" y="268"/>
    </contour>
    <contour>
      <point x="1838" y="256" type="curve" smooth="yes"/>
      <point x="1772" y="256"/>
      <point x="1738" y="293"/>
      <point x="1738" y="352" type="curve" smooth="yes"/>
      <point x="1738" y="355" type="line" smooth="yes"/>
      <point x="1738" y="405"/>
      <point x="1759" y="437"/>
      <point x="1803" y="463" type="curve"/>
      <point x="1874" y="463" type="line"/>
      <point x="1919" y="437"/>
      <point x="1939" y="405"/>
      <point x="1939" y="355" type="curve" smooth="yes"/>
      <point x="1939" y="352" type="line" smooth="yes"/>
      <point x="1939" y="293"/>
      <point x="1904" y="256"/>
    </contour>
    <contour>
      <point x="688" y="1040" type="curve"/>
      <point x="821" y="1040" type="line"/>
      <point x="1012" y="1040"/>
      <point x="1095" y="1117"/>
      <point x="1145" y="1187" type="curve" smooth="yes"/>
      <point x="1207" y="1274" type="line" smooth="yes"/>
      <point x="1242" y="1323"/>
      <point x="1284" y="1345"/>
      <point x="1350" y="1345" type="curve" smooth="yes"/>
      <point x="1428" y="1345" type="line"/>
      <point x="1399" y="1644" type="line"/>
      <point x="1297" y="1644" type="line" smooth="yes"/>
      <point x="1153" y="1644"/>
      <point x="1065" y="1589"/>
      <point x="991" y="1479" type="curve" smooth="yes"/>
      <point x="831" y="1242" type="line" smooth="yes"/>
      <point x="795" y="1188"/>
      <point x="773" y="1170"/>
      <point x="740" y="1170" type="curve" smooth="yes"/>
      <point x="735" y="1170" type="line" smooth="yes"/>
      <point x="698" y="1170"/>
      <point x="679" y="1196"/>
      <point x="663" y="1249" type="curve" smooth="yes"/>
      <point x="619" y="1397" type="line"/>
      <point x="269" y="1397" type="line"/>
      <point x="320" y="1239" type="line" smooth="yes"/>
      <point x="373" y="1076"/>
      <point x="481" y="1040"/>
    </contour>
    <contour>
      <point x="1967" y="599" type="line"/>
      <point x="2142" y="636"/>
      <point x="2245" y="733"/>
      <point x="2245" y="879" type="curve" smooth="yes"/>
      <point x="2245" y="881" type="line" smooth="yes"/>
      <point x="2245" y="1069"/>
      <point x="2109" y="1181"/>
      <point x="1853" y="1181" type="curve" smooth="yes"/>
      <point x="1745" y="1181"/>
      <point x="1661" y="1169"/>
      <point x="1552" y="1134" type="curve"/>
      <point x="1518" y="846" type="line"/>
      <point x="1588" y="875"/>
      <point x="1670" y="891"/>
      <point x="1761" y="891" type="curve" smooth="yes"/>
      <point x="1868" y="891"/>
      <point x="1912" y="858"/>
      <point x="1912" y="796" type="curve" smooth="yes"/>
      <point x="1912" y="795" type="line" smooth="yes"/>
      <point x="1912" y="751"/>
      <point x="1889" y="721"/>
      <point x="1850" y="709" type="curve"/>
    </contour>
  </outline>
</glyph>
<glyph name="vowelU.te" format="2">
  <advance width="1750"/>
  <unicode hex="0C09"/>
  <outline>
    <contour>
      <point x="569" y="-36" type="curve" smooth="yes"/>
      <point x="763" y="-36"/>
      <point x="871" y="55"/>
      <point x="889" y="225" type="curve"/>
      <point x="899" y="225" type="line"/>
      <point x="918" y="55"/>
      <point x="1029" y="-36"/>
      <point x="1230" y="-36" type="curve" smooth="yes"/>
      <point x="1472" y="-36"/>
      <point x="1601" y="102"/>
      <point x="1601" y="364" type="curve" smooth="yes"/>
      <point x="1601" y="367" type="line" smooth="yes"/>
      <point x="1601" y="439"/>
      <point x="1586" y="503"/>
      <point x="1561" y="551" type="curve"/>
      <point x="1253" y="551" type="line"/>
      <point x="1269" y="512"/>
      <point x="1279" y="455"/>
      <point x="1279" y="406" type="curve" smooth="yes"/>
      <point x="1279" y="403" type="line" smooth="yes"/>
      <point x="1279" y="314"/>
      <point x="1245" y="277"/>
      <point x="1170" y="277" type="curve" smooth="yes"/>
      <point x="1096" y="277"/>
      <point x="1056" y="322"/>
      <point x="1049" y="404" type="curve" smooth="yes"/>
      <point x="1041" y="494" type="line"/>
      <point x="747" y="494" type="line"/>
      <point x="739" y="404" type="line" smooth="yes"/>
      <point x="732" y="322"/>
      <point x="694" y="277"/>
      <point x="623" y="277" type="curve" smooth="yes"/>
      <point x="541" y="277"/>
      <point x="502" y="327"/>
      <point x="502" y="454" type="curve" smooth="yes"/>
      <point x="502" y="541" type="line" smooth="yes"/>
      <point x="502" y="771"/>
      <point x="635" y="879"/>
      <point x="915" y="879" type="curve" smooth="yes"/>
      <point x="1176" y="879"/>
      <point x="1309" y="837"/>
      <point x="1438" y="785" type="curve"/>
      <point x="1402" y="1088" type="line"/>
      <point x="1284" y="1136"/>
      <point x="1114" y="1175"/>
      <point x="916" y="1175" type="curve" smooth="yes"/>
      <point x="422" y="1175"/>
      <point x="176" y="960"/>
      <point x="176" y="527" type="curve" smooth="yes"/>
      <point x="176" y="439" type="line" smooth="yes"/>
      <point x="176" y="123"/>
      <point x="313" y="-36"/>
    </contour>
    <contour>
      <point x="46" y="481" type="line"/>
      <point x="1704" y="481" type="line"/>
      <point x="1704" y="732" type="line"/>
      <point x="46" y="732" type="line"/>
    </contour>
    <contour>
      <point x="813" y="1081" type="curve"/>
      <point x="961" y="1081" type="line"/>
      <point x="1012" y="1194"/>
      <point x="1046" y="1293"/>
      <point x="1046" y="1356" type="curve" smooth="yes"/>
      <point x="1046" y="1430"/>
      <point x="1024" y="1472"/>
      <point x="1011" y="1493" type="curve"/>
      <point x="762" y="1493" type="line"/>
      <point x="749" y="1472"/>
      <point x="726" y="1430"/>
      <point x="726" y="1356" type="curve" smooth="yes"/>
      <point x="726" y="1293"/>
      <point x="759" y="1194"/>
    </contour>
  </outline>
</glyph>
<glyph name="vowelUu.te" format="2">
  <advance width="2602"/>
  <unicode hex="0C0A"/>
  <outline>
    <contour>
      <point x="2107" y="-36" type="curve" smooth="yes"/>
      <point x="2388" y="-36"/>
      <point x="2527" y="129"/>
      <point x="2527" y="332" type="curve" smooth="yes"/>
      <point x="2527" y="338" type="line" smooth="yes"/>
      <point x="2527" y="528"/>
      <point x="2419" y="648"/>
      <point x="2234" y="679" type="curve"/>
      <point x="2212" y="697"/>
      <point x="2179" y="732"/>
      <point x="2154" y="732" type="curve"/>
      <point x="46" y="732" type="line"/>
      <point x="46" y="481" type="line"/>
      <point x="1793" y="481" type="line"/>
      <point x="1729" y="419"/>
      <point x="1701" y="362"/>
      <point x="1701" y="268" type="curve" smooth="yes"/>
      <point x="1701" y="265" type="line" smooth="yes"/>
      <point x="1701" y="100"/>
      <point x="1834" y="-36"/>
    </contour>
    <contour>
      <point x="569" y="-36" type="curve" smooth="yes"/>
      <point x="763" y="-36"/>
      <point x="871" y="55"/>
      <point x="889" y="225" type="curve"/>
      <point x="899" y="225" type="line"/>
      <point x="918" y="55"/>
      <point x="1029" y="-36"/>
      <point x="1230" y="-36" type="curve" smooth="yes"/>
      <point x="1472" y="-36"/>
      <point x="1601" y="102"/>
      <point x="1601" y="364" type="curve" smooth="yes"/>
      <point x="1601" y="367" type="line" smooth="yes"/>
      <point x="1601" y="439"/>
      <point x="1586" y="503"/>
      <point x="1561" y="551" type="curve"/>
      <point x="1253" y="551" type="line"/>
      <point x="1269" y="512"/>
      <point x="1279" y="455"/>
      <point x="1279" y="406" type="curve"/>
      <point x="1279" y="403" type="line"/>
      <point x="1279" y="314"/>
      <point x="1245" y="277"/>
      <point x="1170" y="277" type="curve" smooth="yes"/>
      <point x="1096" y="277"/>
      <point x="1056" y="322"/>
      <point x="1049" y="404" type="curve" smooth="yes"/>
      <point x="1041" y="494" type="line"/>
      <point x="747" y="494" type="line"/>
      <point x="739" y="404" type="line" smooth="yes"/>
      <point x="732" y="322"/>
      <point x="694" y="277"/>
      <point x="623" y="277" type="curve" smooth="yes"/>
      <point x="541" y="277"/>
      <point x="502" y="327"/>
      <point x="502" y="454" type="curve" smooth="yes"/>
      <point x="502" y="541" type="line" smooth="yes"/>
      <point x="502" y="771"/>
      <point x="635" y="879"/>
      <point x="915" y="879" type="curve" smooth="yes"/>
      <point x="1176" y="879"/>
      <point x="1309" y="837"/>
      <point x="1438" y="785" type="curve"/>
      <point x="1402" y="1088" type="line"/>
      <point x="1284" y="1136"/>
      <point x="1114" y="1175"/>
      <point x="916" y="1175" type="curve" smooth="yes"/>
      <point x="422" y="1175"/>
      <point x="176" y="960"/>
      <point x="176" y="527" type="curve" smooth="yes"/>
      <point x="176" y="439" type="line" smooth="yes"/>
      <point x="176" y="123"/>
      <point x="313" y="-36"/>
    </contour>
    <contour>
      <point x="608" y="1081" type="curve"/>
      <point x="757" y="1081" type="line"/>
      <point x="808" y="1194"/>
      <point x="842" y="1293"/>
      <point x="842" y="1356" type="curve" smooth="yes"/>
      <point x="842" y="1430"/>
      <point x="820" y="1472"/>
      <point x="807" y="1493" type="curve"/>
      <point x="558" y="1493" type="line"/>
      <point x="544" y="1472"/>
      <point x="522" y="1430"/>
      <point x="522" y="1356" type="curve" smooth="yes"/>
      <point x="522" y="1293"/>
      <point x="555" y="1194"/>
    </contour>
    <contour>
      <point x="1016" y="1081" type="curve"/>
      <point x="1164" y="1081" type="line"/>
      <point x="1215" y="1194"/>
      <point x="1249" y="1293"/>
      <point x="1249" y="1356" type="curve" smooth="yes"/>
      <point x="1249" y="1430"/>
      <point x="1228" y="1472"/>
      <point x="1214" y="1493" type="curve"/>
      <point x="965" y="1493" type="line"/>
      <point x="952" y="1472"/>
      <point x="929" y="1430"/>
      <point x="929" y="1356" type="curve" smooth="yes"/>
      <point x="929" y="1293"/>
      <point x="962" y="1194"/>
    </contour>
    <contour>
      <point x="2109" y="256" type="curve" smooth="yes"/>
      <point x="2042" y="256"/>
      <point x="2009" y="293"/>
      <point x="2009" y="357" type="curve" smooth="yes"/>
      <point x="2009" y="360" type="line" smooth="yes"/>
      <point x="2009" y="408"/>
      <point x="2029" y="443"/>
      <point x="2073" y="476" type="curve"/>
      <point x="2145" y="476" type="line"/>
      <point x="2188" y="443"/>
      <point x="2209" y="408"/>
      <point x="2209" y="360" type="curve" smooth="yes"/>
      <point x="2209" y="357" type="line" smooth="yes"/>
      <point x="2209" y="293"/>
      <point x="2176" y="256"/>
    </contour>
    <contour>
      <point x="2238" y="612" type="line"/>
      <point x="2413" y="648"/>
      <point x="2516" y="743"/>
      <point x="2516" y="891" type="curve" smooth="yes"/>
      <point x="2516" y="893" type="line" smooth="yes"/>
      <point x="2516" y="1073"/>
      <point x="2379" y="1181"/>
      <point x="2124" y="1181" type="curve" smooth="yes"/>
      <point x="2016" y="1181"/>
      <point x="1932" y="1169"/>
      <point x="1823" y="1134" type="curve"/>
      <point x="1789" y="846" type="line"/>
      <point x="1859" y="875"/>
      <point x="1941" y="891"/>
      <point x="2027" y="891" type="curve" smooth="yes"/>
      <point x="2137" y="891"/>
      <point x="2183" y="861"/>
      <point x="2183" y="804" type="curve" smooth="yes"/>
      <point x="2183" y="803" type="line" smooth="yes"/>
      <point x="2183" y="765"/>
      <point x="2158" y="736"/>
      <point x="2116" y="724" type="curve"/>
    </contour>
  </outline>
</glyph>
<glyph name="vowelVocalicR.te" format="2">
  <advance width="3011"/>
  <unicode hex="0C0B"/>
  <anchor x="810" y="-19" name="bottom"/>
  <outline>
    <contour>
      <point x="460" y="-36" type="curve" smooth="yes"/>
      <point x="664" y="-36"/>
      <point x="780" y="52"/>
      <point x="800" y="215" type="curve"/>
      <point x="810" y="215" type="line"/>
      <point x="831" y="52"/>
      <point x="941" y="-36"/>
      <point x="1140" y="-36" type="curve" smooth="yes"/>
      <point x="1338" y="-36"/>
      <point x="1466" y="77"/>
      <point x="1490" y="275" type="curve"/>
      <point x="1526" y="324"/>
      <point x="1546" y="382"/>
      <point x="1546" y="451" type="curve" smooth="yes"/>
      <point x="1546" y="584" type="line"/>
      <point x="1204" y="584" type="line"/>
      <point x="1204" y="455" type="line" smooth="yes"/>
      <point x="1204" y="336"/>
      <point x="1163" y="286"/>
      <point x="1084" y="286" type="curve" smooth="yes"/>
      <point x="1010" y="286"/>
      <point x="972" y="323"/>
      <point x="965" y="405" type="curve" smooth="yes"/>
      <point x="958" y="483" type="line"/>
      <point x="653" y="483" type="line"/>
      <point x="646" y="404" type="line" smooth="yes"/>
      <point x="638" y="318"/>
      <point x="594" y="279"/>
      <point x="513" y="279" type="curve" smooth="yes"/>
      <point x="444" y="279"/>
      <point x="410" y="306"/>
      <point x="410" y="357" type="curve" smooth="yes"/>
      <point x="410" y="359" type="line" smooth="yes"/>
      <point x="410" y="417"/>
      <point x="442" y="446"/>
      <point x="583" y="509" type="curve" smooth="yes"/>
      <point x="780" y="597"/>
      <point x="861" y="692"/>
      <point x="861" y="855" type="curve" smooth="yes"/>
      <point x="861" y="856" type="line" smooth="yes"/>
      <point x="861" y="1075"/>
      <point x="725" y="1191"/>
      <point x="466" y="1191" type="curve" smooth="yes"/>
      <point x="212" y="1191"/>
      <point x="80" y="1080"/>
      <point x="80" y="867" type="curve" smooth="yes"/>
      <point x="80" y="862" type="line" smooth="yes"/>
      <point x="80" y="805"/>
      <point x="93" y="740"/>
      <point x="115" y="687" type="curve"/>
      <point x="407" y="687" type="line"/>
      <point x="388" y="740"/>
      <point x="382" y="778"/>
      <point x="382" y="830" type="curve" smooth="yes"/>
      <point x="382" y="833" type="line" smooth="yes"/>
      <point x="382" y="895"/>
      <point x="410" y="922"/>
      <point x="468" y="922" type="curve" smooth="yes"/>
      <point x="524" y="922"/>
      <point x="551" y="898"/>
      <point x="551" y="850" type="curve" smooth="yes"/>
      <point x="551" y="849" type="line" smooth="yes"/>
      <point x="551" y="783"/>
      <point x="517" y="761"/>
      <point x="377" y="694" type="curve" smooth="yes"/>
      <point x="133" y="589"/>
      <point x="65" y="487"/>
      <point x="65" y="317" type="curve" smooth="yes"/>
      <point x="65" y="313" type="line" smooth="yes"/>
      <point x="65" y="95"/>
      <point x="202" y="-36"/>
    </contour>
    <component base="matraUVar1.te" xOffset="1567"/>
    <component base="Terminals.te" xOffset="949"/>
  </outline>
</glyph>
<glyph name="vowelVocalicL.te" format="2">
  <advance width="2044"/>
  <unicode hex="0C0C"/>
  <outline>
    <contour>
      <point x="1268" y="-37" type="curve" smooth="yes"/>
      <point x="1729" y="-37"/>
      <point x="1969" y="181"/>
      <point x="1969" y="573" type="curve" smooth="yes"/>
      <point x="1969" y="642" type="line" smooth="yes"/>
      <point x="1969" y="973"/>
      <point x="1803" y="1170"/>
      <point x="1511" y="1170" type="curve" smooth="yes"/>
      <point x="1493" y="1170" type="line"/>
      <point x="1435" y="866" type="line"/>
      <point x="1444" y="866" type="line" smooth="yes"/>
      <point x="1563" y="866"/>
      <point x="1627" y="790"/>
      <point x="1627" y="641" type="curve" smooth="yes"/>
      <point x="1627" y="575" type="line" smooth="yes"/>
      <point x="1627" y="370"/>
      <point x="1507" y="266"/>
      <point x="1267" y="266" type="curve" smooth="yes"/>
      <point x="1085" y="266"/>
      <point x="1001" y="301"/>
      <point x="1001" y="363" type="curve" smooth="yes"/>
      <point x="1001" y="364" type="line" smooth="yes"/>
      <point x="1001" y="411"/>
      <point x="1023" y="436"/>
      <point x="1182" y="490" type="curve" smooth="yes"/>
      <point x="1394" y="561"/>
      <point x="1467" y="663"/>
      <point x="1467" y="833" type="curve" smooth="yes"/>
      <point x="1467" y="835" type="line" smooth="yes"/>
      <point x="1467" y="1063"/>
      <point x="1335" y="1191"/>
      <point x="1088" y="1191" type="curve" smooth="yes"/>
      <point x="892" y="1191"/>
      <point x="796" y="1110"/>
      <point x="765" y="981" type="curve"/>
      <point x="756" y="981" type="line"/>
      <point x="725" y="1110"/>
      <point x="626" y="1191"/>
      <point x="442" y="1191" type="curve" smooth="yes"/>
      <point x="185" y="1191"/>
      <point x="55" y="1050"/>
      <point x="55" y="802" type="curve" smooth="yes"/>
      <point x="55" y="799" type="line" smooth="yes"/>
      <point x="55" y="767"/>
      <point x="59" y="726"/>
      <point x="70" y="684" type="curve"/>
      <point x="397" y="684" type="line"/>
      <point x="392" y="716"/>
      <point x="389" y="739"/>
      <point x="389" y="768" type="curve" smooth="yes"/>
      <point x="389" y="772" type="line" smooth="yes"/>
      <point x="389" y="851"/>
      <point x="421" y="889"/>
      <point x="495" y="889" type="curve" smooth="yes"/>
      <point x="569" y="889"/>
      <point x="597" y="853"/>
      <point x="603" y="793" type="curve" smooth="yes"/>
      <point x="610" y="717" type="line"/>
      <point x="912" y="717" type="line"/>
      <point x="919" y="793" type="line" smooth="yes"/>
      <point x="925" y="853"/>
      <point x="956" y="889"/>
      <point x="1030" y="889" type="curve" smooth="yes"/>
      <point x="1103" y="889"/>
      <point x="1133" y="862"/>
      <point x="1133" y="809" type="curve" smooth="yes"/>
      <point x="1133" y="807" type="line" smooth="yes"/>
      <point x="1133" y="758"/>
      <point x="1100" y="723"/>
      <point x="981" y="685" type="curve" smooth="yes"/>
      <point x="748" y="610"/>
      <point x="655" y="511"/>
      <point x="655" y="343" type="curve" smooth="yes"/>
      <point x="655" y="340" type="line" smooth="yes"/>
      <point x="655" y="97"/>
      <point x="877" y="-37"/>
    </contour>
  </outline>
</glyph>
<glyph name="vowelE.te" format="2">
  <advance width="1560"/>
  <unicode hex="0C0E"/>
  <outline>
    <contour>
      <point x="420" y="-36" type="curve" smooth="yes"/>
      <point x="609" y="-36"/>
      <point x="709" y="50"/>
      <point x="730" y="198" type="curve"/>
      <point x="740" y="198" type="line"/>
      <point x="769" y="48"/>
      <point x="875" y="-36"/>
      <point x="1071" y="-36" type="curve" smooth="yes"/>
      <point x="1343" y="-36"/>
      <point x="1485" y="139"/>
      <point x="1485" y="481" type="curve" smooth="yes"/>
      <point x="1485" y="687" type="line" smooth="yes"/>
      <point x="1485" y="1156"/>
      <point x="1255" y="1398"/>
      <point x="794" y="1398" type="curve" smooth="yes"/>
      <point x="703" y="1398" type="line"/>
      <point x="644" y="1099" type="line"/>
      <point x="749" y="1099" type="line" smooth="yes"/>
      <point x="1014" y="1099"/>
      <point x="1143" y="963"/>
      <point x="1143" y="690" type="curve" smooth="yes"/>
      <point x="1143" y="489" type="line" smooth="yes"/>
      <point x="1143" y="348"/>
      <point x="1095" y="280"/>
      <point x="1003" y="280" type="curve" smooth="yes"/>
      <point x="919" y="280"/>
      <point x="871" y="324"/>
      <point x="856" y="422" type="curve" smooth="yes"/>
      <point x="854" y="435" type="line" smooth="yes"/>
      <point x="822" y="646"/>
      <point x="688" y="756"/>
      <point x="461" y="756" type="curve" smooth="yes"/>
      <point x="202" y="756"/>
      <point x="60" y="616"/>
      <point x="60" y="367" type="curve" smooth="yes"/>
      <point x="60" y="342" type="line" smooth="yes"/>
      <point x="60" y="95"/>
      <point x="185" y="-36"/>
    </contour>
    <contour>
      <point x="463" y="271" type="curve" smooth="yes"/>
      <point x="404" y="271"/>
      <point x="375" y="303"/>
      <point x="375" y="362" type="curve" smooth="yes"/>
      <point x="375" y="373" type="line" smooth="yes"/>
      <point x="375" y="433"/>
      <point x="404" y="464"/>
      <point x="463" y="464" type="curve" smooth="yes"/>
      <point x="523" y="464"/>
      <point x="552" y="433"/>
      <point x="552" y="373" type="curve" smooth="yes"/>
      <point x="552" y="362" type="line" smooth="yes"/>
      <point x="552" y="303"/>
      <point x="523" y="271"/>
    </contour>
  </outline>
</glyph>
<glyph name="vowelEe.te" format="2">
  <advance width="1560"/>
  <unicode hex="0C0F"/>
  <outline>
    <contour>
      <point x="854" y="1808" type="line"/>
      <point x="881" y="1517" type="line"/>
      <point x="783" y="1517" type="line" smooth="yes"/>
      <point x="582" y="1517"/>
      <point x="489" y="1423"/>
      <point x="489" y="1207" type="curve" smooth="yes"/>
      <point x="489" y="1091" type="line"/>
      <point x="161" y="1091" type="line"/>
      <point x="161" y="1214" type="line" smooth="yes"/>
      <point x="161" y="1611"/>
      <point x="373" y="1808"/>
      <point x="743" y="1808" type="curve" smooth="yes"/>
    </contour>
    <component base="vowelE.te"/>
  </outline>
</glyph>
<glyph name="vowelAi.te" format="2">
  <advance width="1567"/>
  <unicode hex="0C10"/>
  <outline>
    <contour>
      <point x="422" y="-36" type="curve" smooth="yes"/>
      <point x="612" y="-36"/>
      <point x="712" y="48"/>
      <point x="733" y="198" type="curve"/>
      <point x="743" y="198" type="line"/>
      <point x="774" y="47"/>
      <point x="879" y="-36"/>
      <point x="1076" y="-36" type="curve" smooth="yes"/>
      <point x="1349" y="-36"/>
      <point x="1492" y="135"/>
      <point x="1492" y="477" type="curve" smooth="yes"/>
      <point x="1492" y="718" type="line" smooth="yes"/>
      <point x="1492" y="1028"/>
      <point x="1353" y="1191"/>
      <point x="1090" y="1191" type="curve" smooth="yes"/>
      <point x="899" y="1191"/>
      <point x="805" y="1110"/>
      <point x="774" y="981" type="curve"/>
      <point x="765" y="981" type="line"/>
      <point x="734" y="1110"/>
      <point x="635" y="1191"/>
      <point x="450" y="1191" type="curve" smooth="yes"/>
      <point x="192" y="1191"/>
      <point x="63" y="1051"/>
      <point x="63" y="804" type="curve" smooth="yes"/>
      <point x="63" y="802" type="line" smooth="yes"/>
      <point x="63" y="771"/>
      <point x="66" y="729"/>
      <point x="76" y="689" type="curve"/>
      <point x="404" y="689" type="line"/>
      <point x="399" y="721"/>
      <point x="397" y="744"/>
      <point x="397" y="772" type="curve" smooth="yes"/>
      <point x="397" y="774" type="line" smooth="yes"/>
      <point x="397" y="852"/>
      <point x="428" y="889"/>
      <point x="502" y="889" type="curve" smooth="yes"/>
      <point x="573" y="889"/>
      <point x="606" y="858"/>
      <point x="612" y="793" type="curve" smooth="yes"/>
      <point x="617" y="736" type="line"/>
      <point x="922" y="736" type="line"/>
      <point x="927" y="793" type="line" smooth="yes"/>
      <point x="933" y="858"/>
      <point x="962" y="889"/>
      <point x="1034" y="889" type="curve" smooth="yes"/>
      <point x="1112" y="889"/>
      <point x="1150" y="839"/>
      <point x="1150" y="712" type="curve" smooth="yes"/>
      <point x="1150" y="483" type="line" smooth="yes"/>
      <point x="1150" y="345"/>
      <point x="1101" y="280"/>
      <point x="1006" y="280" type="curve" smooth="yes"/>
      <point x="922" y="280"/>
      <point x="879" y="320"/>
      <point x="860" y="413" type="curve" smooth="yes"/>
      <point x="858" y="423" type="line" smooth="yes"/>
      <point x="821" y="606"/>
      <point x="706" y="717"/>
      <point x="465" y="717" type="curve" smooth="yes"/>
      <point x="204" y="717"/>
      <point x="63" y="585"/>
      <point x="63" y="342" type="curve" smooth="yes"/>
      <point x="63" y="332" type="line" smooth="yes"/>
      <point x="63" y="91"/>
      <point x="188" y="-36"/>
    </contour>
    <contour>
      <point x="465" y="263" type="curve" smooth="yes"/>
      <point x="405" y="263"/>
      <point x="375" y="293"/>
      <point x="375" y="351" type="curve" smooth="yes"/>
      <point x="375" y="353" type="line" smooth="yes"/>
      <point x="375" y="411"/>
      <point x="405" y="440"/>
      <point x="465" y="440" type="curve" smooth="yes"/>
      <point x="525" y="440"/>
      <point x="555" y="411"/>
      <point x="555" y="353" type="curve" smooth="yes"/>
      <point x="555" y="351" type="line" smooth="yes"/>
      <point x="555" y="293"/>
      <point x="525" y="263"/>
    </contour>
  </outline>
</glyph>
<glyph name="vowelO.te" format="2">
  <advance width="1587"/>
  <unicode hex="0C12"/>
  <outline>
    <contour>
      <point x="460" y="-36" type="curve" smooth="yes"/>
      <point x="664" y="-36"/>
      <point x="780" y="52"/>
      <point x="800" y="215" type="curve"/>
      <point x="810" y="215" type="line"/>
      <point x="830" y="52"/>
      <point x="942" y="-36"/>
      <point x="1148" y="-36" type="curve" smooth="yes"/>
      <point x="1392" y="-36"/>
      <point x="1521" y="100"/>
      <point x="1521" y="360" type="curve" smooth="yes"/>
      <point x="1521" y="368" type="line" smooth="yes"/>
      <point x="1521" y="450"/>
      <point x="1505" y="522"/>
      <point x="1477" y="585" type="curve"/>
      <point x="1158" y="585" type="line"/>
      <point x="1174" y="542"/>
      <point x="1185" y="480"/>
      <point x="1185" y="422" type="curve" smooth="yes"/>
      <point x="1185" y="417" type="line" smooth="yes"/>
      <point x="1185" y="325"/>
      <point x="1148" y="286"/>
      <point x="1074" y="286" type="curve" smooth="yes"/>
      <point x="1006" y="286"/>
      <point x="972" y="323"/>
      <point x="965" y="405" type="curve" smooth="yes"/>
      <point x="958" y="483" type="line"/>
      <point x="653" y="483" type="line"/>
      <point x="646" y="404" type="line" smooth="yes"/>
      <point x="638" y="318"/>
      <point x="594" y="279"/>
      <point x="513" y="279" type="curve" smooth="yes"/>
      <point x="444" y="279"/>
      <point x="410" y="306"/>
      <point x="410" y="357" type="curve" smooth="yes"/>
      <point x="410" y="359" type="line" smooth="yes"/>
      <point x="410" y="419"/>
      <point x="441" y="445"/>
      <point x="583" y="509" type="curve" smooth="yes"/>
      <point x="780" y="597"/>
      <point x="861" y="693"/>
      <point x="861" y="855" type="curve" smooth="yes"/>
      <point x="861" y="856" type="line" smooth="yes"/>
      <point x="861" y="1075"/>
      <point x="725" y="1191"/>
      <point x="466" y="1191" type="curve" smooth="yes"/>
      <point x="212" y="1191"/>
      <point x="80" y="1080"/>
      <point x="80" y="867" type="curve" smooth="yes"/>
      <point x="80" y="862" type="line" smooth="yes"/>
      <point x="80" y="806"/>
      <point x="93" y="741"/>
      <point x="115" y="687" type="curve"/>
      <point x="407" y="687" type="line"/>
      <point x="388" y="740"/>
      <point x="382" y="778"/>
      <point x="382" y="830" type="curve" smooth="yes"/>
      <point x="382" y="833" type="line" smooth="yes"/>
      <point x="382" y="895"/>
      <point x="410" y="922"/>
      <point x="468" y="922" type="curve" smooth="yes"/>
      <point x="524" y="922"/>
      <point x="551" y="898"/>
      <point x="551" y="850" type="curve" smooth="yes"/>
      <point x="551" y="849" type="line" smooth="yes"/>
      <point x="551" y="783"/>
      <point x="517" y="758"/>
      <point x="377" y="694" type="curve" smooth="yes"/>
      <point x="137" y="585"/>
      <point x="65" y="487"/>
      <point x="65" y="317" type="curve" smooth="yes"/>
      <point x="65" y="313" type="line" smooth="yes"/>
      <point x="65" y="95"/>
      <point x="202" y="-36"/>
    </contour>
  </outline>
</glyph>
<glyph name="vowelOo.te" format="2">
  <advance width="1587"/>
  <unicode hex="0C13"/>
  <outline>
    <contour>
      <point x="830" y="1239" type="curve"/>
      <point x="810" y="1520" type="line"/>
      <point x="730" y="1562"/>
      <point x="619" y="1590"/>
      <point x="496" y="1590" type="curve" smooth="yes"/>
      <point x="270" y="1590"/>
      <point x="147" y="1503"/>
      <point x="147" y="1345" type="curve" smooth="yes"/>
      <point x="147" y="1223"/>
      <point x="229" y="1146"/>
      <point x="429" y="1115" type="curve"/>
      <point x="509" y="1185" type="line"/>
      <point x="453" y="1190"/>
      <point x="434" y="1214"/>
      <point x="434" y="1250" type="curve" smooth="yes"/>
      <point x="434" y="1298"/>
      <point x="471" y="1323"/>
      <point x="554" y="1323" type="curve" smooth="yes"/>
      <point x="662" y="1323"/>
      <point x="758" y="1288"/>
    </contour>
    <component base="vowelO.te"/>
  </outline>
</glyph>
<glyph name="vowelAu.te" format="2">
  <advance width="1675"/>
  <unicode hex="0C14"/>
  <outline>
    <contour>
      <point x="460" y="-36" type="curve" smooth="yes"/>
      <point x="665" y="-36"/>
      <point x="781" y="52"/>
      <point x="801" y="215" type="curve"/>
      <point x="810" y="215" type="line"/>
      <point x="830" y="52"/>
      <point x="942" y="-36"/>
      <point x="1148" y="-36" type="curve" smooth="yes"/>
      <point x="1392" y="-36"/>
      <point x="1521" y="100"/>
      <point x="1521" y="360" type="curve" smooth="yes"/>
      <point x="1521" y="366" type="line" smooth="yes"/>
      <point x="1521" y="441"/>
      <point x="1506" y="506"/>
      <point x="1478" y="563" type="curve"/>
      <point x="1160" y="563" type="line"/>
      <point x="1175" y="526"/>
      <point x="1185" y="472"/>
      <point x="1185" y="422" type="curve" smooth="yes"/>
      <point x="1185" y="417" type="line" smooth="yes"/>
      <point x="1185" y="325"/>
      <point x="1148" y="286"/>
      <point x="1074" y="286" type="curve" smooth="yes"/>
      <point x="1006" y="286"/>
      <point x="972" y="323"/>
      <point x="965" y="405" type="curve" smooth="yes"/>
      <point x="958" y="483" type="line"/>
      <point x="653" y="483" type="line"/>
      <point x="646" y="404" type="line" smooth="yes"/>
      <point x="638" y="318"/>
      <point x="594" y="279"/>
      <point x="513" y="279" type="curve" smooth="yes"/>
      <point x="444" y="279"/>
      <point x="410" y="306"/>
      <point x="410" y="357" type="curve" smooth="yes"/>
      <point x="410" y="359" type="line" smooth="yes"/>
      <point x="410" y="417"/>
      <point x="442" y="446"/>
      <point x="583" y="509" type="curve" smooth="yes"/>
      <point x="780" y="597"/>
      <point x="861" y="692"/>
      <point x="861" y="855" type="curve" smooth="yes"/>
      <point x="861" y="856" type="line" smooth="yes"/>
      <point x="861" y="1075"/>
      <point x="725" y="1191"/>
      <point x="466" y="1191" type="curve" smooth="yes"/>
      <point x="212" y="1191"/>
      <point x="80" y="1080"/>
      <point x="80" y="867" type="curve" smooth="yes"/>
      <point x="80" y="862" type="line" smooth="yes"/>
      <point x="80" y="805"/>
      <point x="93" y="740"/>
      <point x="115" y="687" type="curve"/>
      <point x="407" y="687" type="line"/>
      <point x="388" y="740"/>
      <point x="382" y="778"/>
      <point x="382" y="830" type="curve" smooth="yes"/>
      <point x="382" y="833" type="line" smooth="yes"/>
      <point x="382" y="895"/>
      <point x="410" y="922"/>
      <point x="468" y="922" type="curve" smooth="yes"/>
      <point x="524" y="922"/>
      <point x="551" y="898"/>
      <point x="551" y="850" type="curve" smooth="yes"/>
      <point x="551" y="849" type="line" smooth="yes"/>
      <point x="551" y="783"/>
      <point x="519" y="757"/>
      <point x="377" y="694" type="curve" smooth="yes"/>
      <point x="133" y="586"/>
      <point x="65" y="487"/>
      <point x="65" y="317" type="curve" smooth="yes"/>
      <point x="65" y="313" type="line" smooth="yes"/>
      <point x="65" y="95"/>
      <point x="202" y="-36"/>
    </contour>
    <contour>
      <point x="537" y="1062" type="line"/>
      <point x="750" y="1062"/>
      <point x="837" y="1122"/>
      <point x="837" y="1229" type="curve" smooth="yes"/>
      <point x="837" y="1342"/>
      <point x="728" y="1402"/>
      <point x="541" y="1402" type="curve" smooth="yes"/>
      <point x="328" y="1402" type="line"/>
      <point x="328" y="1304" type="line"/>
      <point x="466" y="1304" type="line" smooth="yes"/>
      <point x="516" y="1304"/>
      <point x="538" y="1284"/>
      <point x="538" y="1248" type="curve" smooth="yes"/>
      <point x="538" y="1212"/>
      <point x="517" y="1191"/>
      <point x="466" y="1191" type="curve"/>
    </contour>
    <contour>
      <point x="1296" y="624" type="curve" smooth="yes"/>
      <point x="1536" y="624"/>
      <point x="1663" y="761"/>
      <point x="1663" y="1023" type="curve" smooth="yes"/>
      <point x="1663" y="1060" type="line" smooth="yes"/>
      <point x="1663" y="1380"/>
      <point x="1479" y="1564"/>
      <point x="1126" y="1564" type="curve" smooth="yes"/>
      <point x="177" y="1564" type="line"/>
      <point x="118" y="1304" type="line"/>
      <point x="709" y="1304" type="line"/>
      <point x="719" y="1311" type="line"/>
      <point x="912" y="1304" type="line"/>
      <point x="1121" y="1304" type="line" smooth="yes"/>
      <point x="1287" y="1304"/>
      <point x="1372" y="1232"/>
      <point x="1372" y="1115" type="curve" smooth="yes"/>
      <point x="1372" y="1097" type="line"/>
      <point x="1356" y="1097" type="line"/>
      <point x="1367" y="999" type="line"/>
      <point x="1367" y="966" type="line" smooth="yes"/>
      <point x="1367" y="905"/>
      <point x="1343" y="877"/>
      <point x="1297" y="877" type="curve" smooth="yes"/>
      <point x="1252" y="877"/>
      <point x="1229" y="899"/>
      <point x="1229" y="945" type="curve" smooth="yes"/>
      <point x="1229" y="952" type="line" smooth="yes"/>
      <point x="1229" y="994"/>
      <point x="1252" y="1019"/>
      <point x="1296" y="1019" type="curve" smooth="yes"/>
      <point x="1329" y="1019"/>
      <point x="1355" y="1005"/>
      <point x="1371" y="978" type="curve"/>
      <point x="1363" y="1092" type="line"/>
      <point x="1343" y="1178"/>
      <point x="1283" y="1236"/>
      <point x="1170" y="1236" type="curve" smooth="yes"/>
      <point x="1028" y="1236"/>
      <point x="939" y="1141"/>
      <point x="939" y="963" type="curve" smooth="yes"/>
      <point x="939" y="943" type="line" smooth="yes"/>
      <point x="939" y="743"/>
      <point x="1062" y="624"/>
    </contour>
  </outline>
</glyph>
<glyph name="Ka.te" format="2">
  <advance width="1194"/>
  <unicode hex="0C15"/>
  <anchor x="592" y="-53" name="bottom"/>
  <outline>
    <contour>
      <point x="592" y="-38" type="curve" smooth="yes"/>
      <point x="942" y="-38"/>
      <point x="1119" y="91"/>
      <point x="1119" y="334" type="curve" smooth="yes"/>
      <point x="1119" y="345" type="line" smooth="yes"/>
      <point x="1119" y="546"/>
      <point x="1006" y="667"/>
      <point x="771" y="693" type="curve" smooth="yes"/>
      <point x="523" y="720" type="line" smooth="yes"/>
      <point x="441" y="729"/>
      <point x="408" y="759"/>
      <point x="408" y="803" type="curve" smooth="yes"/>
      <point x="408" y="806" type="line" smooth="yes"/>
      <point x="408" y="868"/>
      <point x="461" y="897"/>
      <point x="590" y="897" type="curve" smooth="yes"/>
      <point x="720" y="897"/>
      <point x="774" y="869"/>
      <point x="774" y="805" type="curve" smooth="yes"/>
      <point x="774" y="802" type="line" smooth="yes"/>
      <point x="774" y="784"/>
      <point x="773" y="769"/>
      <point x="769" y="750" type="curve"/>
      <point x="1088" y="750" type="line"/>
      <point x="1094" y="780"/>
      <point x="1097" y="810"/>
      <point x="1097" y="840" type="curve" smooth="yes"/>
      <point x="1097" y="846" type="line" smooth="yes"/>
      <point x="1097" y="1032"/>
      <point x="959" y="1155"/>
      <point x="590" y="1155" type="curve" smooth="yes"/>
      <point x="252" y="1155"/>
      <point x="79" y="1025"/>
      <point x="79" y="811" type="curve" smooth="yes"/>
      <point x="79" y="801" type="line" smooth="yes"/>
      <point x="79" y="616"/>
      <point x="178" y="509"/>
      <point x="392" y="479" type="curve" smooth="yes"/>
      <point x="671" y="440" type="line" smooth="yes"/>
      <point x="756" y="428"/>
      <point x="786" y="401"/>
      <point x="786" y="352" type="curve" smooth="yes"/>
      <point x="786" y="349" type="line" smooth="yes"/>
      <point x="786" y="282"/>
      <point x="729" y="253"/>
      <point x="592" y="253" type="curve" smooth="yes"/>
      <point x="458" y="253"/>
      <point x="401" y="282"/>
      <point x="401" y="358" type="curve" smooth="yes"/>
      <point x="401" y="360" type="line" smooth="yes"/>
      <point x="401" y="377"/>
      <point x="402" y="395"/>
      <point x="405" y="412" type="curve"/>
      <point x="86" y="412" type="line"/>
      <point x="78" y="381"/>
      <point x="75" y="351"/>
      <point x="75" y="320" type="curve" smooth="yes"/>
      <point x="75" y="318" type="line" smooth="yes"/>
      <point x="75" y="79"/>
      <point x="245" y="-38"/>
    </contour>
    <contour>
      <point x="522" y="1040" type="curve"/>
      <point x="655" y="1040" type="line"/>
      <point x="841" y="1040"/>
      <point x="928" y="1114"/>
      <point x="978" y="1187" type="curve" smooth="yes"/>
      <point x="1038" y="1274" type="line" smooth="yes"/>
      <point x="1073" y="1324"/>
      <point x="1115" y="1345"/>
      <point x="1178" y="1345" type="curve" smooth="yes"/>
      <point x="1259" y="1345" type="line"/>
      <point x="1230" y="1644" type="line"/>
      <point x="1123" y="1644" type="line" smooth="yes"/>
      <point x="981" y="1644"/>
      <point x="896" y="1587"/>
      <point x="825" y="1480" type="curve" smooth="yes"/>
      <point x="670" y="1245" type="line" smooth="yes"/>
      <point x="633" y="1189"/>
      <point x="608" y="1170"/>
      <point x="573" y="1170" type="curve" smooth="yes"/>
      <point x="568" y="1170" type="line" smooth="yes"/>
      <point x="526" y="1170"/>
      <point x="507" y="1199"/>
      <point x="491" y="1251" type="curve" smooth="yes"/>
      <point x="446" y="1397" type="line"/>
      <point x="100" y="1397" type="line"/>
      <point x="152" y="1239" type="line" smooth="yes"/>
      <point x="207" y="1073"/>
      <point x="318" y="1040"/>
    </contour>
  </outline>
</glyph>
<glyph name="Ga.te" format="2">
  <advance width="1278"/>
  <unicode hex="0C17"/>
  <anchor x="639" y="-53" name="bottom"/>
  <outline>
    <contour>
      <point x="146" y="0" type="curve"/>
      <point x="508" y="0" type="line"/>
      <point x="449" y="155"/>
      <point x="422" y="287"/>
      <point x="422" y="445" type="curve" smooth="yes"/>
      <point x="422" y="584" type="line" smooth="yes"/>
      <point x="422" y="783"/>
      <point x="490" y="877"/>
      <point x="639" y="877" type="curve" smooth="yes"/>
      <point x="788" y="877"/>
      <point x="856" y="783"/>
      <point x="856" y="584" type="curve" smooth="yes"/>
      <point x="856" y="445" type="line" smooth="yes"/>
      <point x="856" y="291"/>
      <point x="829" y="154"/>
      <point x="770" y="0" type="curve"/>
      <point x="1133" y="0" type="line"/>
      <point x="1185" y="139"/>
      <point x="1203" y="271"/>
      <point x="1203" y="438" type="curve" smooth="yes"/>
      <point x="1203" y="586" type="line" smooth="yes"/>
      <point x="1203" y="965"/>
      <point x="1022" y="1151"/>
      <point x="639" y="1151" type="curve" smooth="yes"/>
      <point x="257" y="1151"/>
      <point x="75" y="965"/>
      <point x="75" y="586" type="curve" smooth="yes"/>
      <point x="75" y="438" type="line" smooth="yes"/>
      <point x="75" y="271"/>
      <point x="93" y="138"/>
    </contour>
    <contour>
      <point x="567" y="1040" type="curve"/>
      <point x="700" y="1040" type="line"/>
      <point x="881" y="1040"/>
      <point x="972" y="1107"/>
      <point x="1025" y="1187" type="curve" smooth="yes"/>
      <point x="1086" y="1274" type="line" smooth="yes"/>
      <point x="1120" y="1323"/>
      <point x="1163" y="1345"/>
      <point x="1229" y="1345" type="curve" smooth="yes"/>
      <point x="1308" y="1345" type="line"/>
      <point x="1279" y="1644" type="line"/>
      <point x="1177" y="1644" type="line" smooth="yes"/>
      <point x="1041" y="1644"/>
      <point x="947" y="1596"/>
      <point x="870" y="1479" type="curve" smooth="yes"/>
      <point x="710" y="1243" type="line" smooth="yes"/>
      <point x="675" y="1188"/>
      <point x="652" y="1170"/>
      <point x="620" y="1170" type="curve" smooth="yes"/>
      <point x="615" y="1170" type="line" smooth="yes"/>
      <point x="576" y="1170"/>
      <point x="557" y="1197"/>
      <point x="542" y="1249" type="curve" smooth="yes"/>
      <point x="498" y="1397" type="line"/>
      <point x="149" y="1397" type="line"/>
      <point x="200" y="1239" type="line" smooth="yes"/>
      <point x="251" y="1075"/>
      <point x="361" y="1040"/>
    </contour>
  </outline>
</glyph>
<glyph name="Ca.te" format="2">
  <advance width="1628"/>
  <unicode hex="0C1A"/>
  <anchor x="831" y="-53" name="bottom"/>
  <outline>
    <contour>
      <point x="485" y="-36" type="curve" smooth="yes"/>
      <point x="691" y="-36"/>
      <point x="805" y="52"/>
      <point x="825" y="215" type="curve"/>
      <point x="834" y="215" type="line"/>
      <point x="854" y="52"/>
      <point x="961" y="-36"/>
      <point x="1157" y="-36" type="curve" smooth="yes"/>
      <point x="1415" y="-36"/>
      <point x="1553" y="123"/>
      <point x="1553" y="429" type="curve" smooth="yes"/>
      <point x="1553" y="541" type="line" smooth="yes"/>
      <point x="1553" y="960"/>
      <point x="1338" y="1161"/>
      <point x="897" y="1161" type="curve"/>
      <point x="774" y="1038" type="line"/>
      <point x="802" y="888" type="line"/>
      <point x="855" y="888" type="line" smooth="yes"/>
      <point x="1097" y="888"/>
      <point x="1211" y="782"/>
      <point x="1211" y="556" type="curve" smooth="yes"/>
      <point x="1211" y="444" type="line" smooth="yes"/>
      <point x="1211" y="333"/>
      <point x="1176" y="286"/>
      <point x="1100" y="286" type="curve" smooth="yes"/>
      <point x="1032" y="286"/>
      <point x="995" y="325"/>
      <point x="989" y="411" type="curve" smooth="yes"/>
      <point x="982" y="511" type="line"/>
      <point x="677" y="511" type="line"/>
      <point x="670" y="411" type="line" smooth="yes"/>
      <point x="664" y="325"/>
      <point x="626" y="286"/>
      <point x="553" y="286" type="curve" smooth="yes"/>
      <point x="484" y="286"/>
      <point x="449" y="327"/>
      <point x="449" y="402" type="curve" smooth="yes"/>
      <point x="449" y="406" type="line" smooth="yes"/>
      <point x="449" y="483"/>
      <point x="472" y="520"/>
      <point x="529" y="539" type="curve"/>
      <point x="600" y="546" type="line"/>
      <point x="600" y="806" type="line"/>
      <point x="55" y="835" type="line"/>
      <point x="55" y="534" type="line"/>
      <point x="265" y="542" type="line"/>
      <point x="267" y="535" type="line"/>
      <point x="169" y="499"/>
      <point x="121" y="416"/>
      <point x="121" y="305" type="curve" smooth="yes"/>
      <point x="121" y="301" type="line" smooth="yes"/>
      <point x="121" y="93"/>
      <point x="254" y="-36"/>
    </contour>
    <contour>
      <point x="802" y="888" type="curve"/>
      <point x="920" y="1051" type="line"/>
      <point x="1099" y="1051"/>
      <point x="1174" y="1120"/>
      <point x="1232" y="1196" type="curve" smooth="yes"/>
      <point x="1291" y="1274" type="line" smooth="yes"/>
      <point x="1330" y="1326"/>
      <point x="1376" y="1345"/>
      <point x="1438" y="1345" type="curve" smooth="yes"/>
      <point x="1539" y="1345" type="line"/>
      <point x="1512" y="1644" type="line"/>
      <point x="1391" y="1644" type="line" smooth="yes"/>
      <point x="1243" y="1644"/>
      <point x="1152" y="1590"/>
      <point x="1074" y="1479" type="curve" smooth="yes"/>
      <point x="907" y="1242" type="line" smooth="yes"/>
      <point x="870" y="1190"/>
      <point x="847" y="1170"/>
      <point x="811" y="1170" type="curve" smooth="yes"/>
      <point x="807" y="1170" type="line" smooth="yes"/>
      <point x="766" y="1170"/>
      <point x="747" y="1193"/>
      <point x="730" y="1249" type="curve" smooth="yes"/>
      <point x="686" y="1397" type="line"/>
      <point x="337" y="1397" type="line"/>
      <point x="386" y="1239" type="line" smooth="yes"/>
      <point x="460" y="1001"/>
      <point x="545" y="888"/>
    </contour>
  </outline>
</glyph>
<glyph name="Ja.te" format="2">
  <advance width="1589"/>
  <unicode hex="0C1C"/>
  <anchor x="805" y="-53" name="bottom"/>
  <outline>
    <contour>
      <point x="460" y="-36" type="curve" smooth="yes"/>
      <point x="665" y="-36"/>
      <point x="781" y="52"/>
      <point x="801" y="215" type="curve"/>
      <point x="810" y="215" type="line"/>
      <point x="830" y="52"/>
      <point x="942" y="-36"/>
      <point x="1148" y="-36" type="curve" smooth="yes"/>
      <point x="1392" y="-36"/>
      <point x="1521" y="100"/>
      <point x="1521" y="360" type="curve" smooth="yes"/>
      <point x="1521" y="366" type="line" smooth="yes"/>
      <point x="1521" y="440"/>
      <point x="1506" y="506"/>
      <point x="1478" y="563" type="curve"/>
      <point x="1160" y="563" type="line"/>
      <point x="1175" y="526"/>
      <point x="1185" y="472"/>
      <point x="1185" y="422" type="curve" smooth="yes"/>
      <point x="1185" y="417" type="line" smooth="yes"/>
      <point x="1185" y="325"/>
      <point x="1148" y="286"/>
      <point x="1075" y="286" type="curve" smooth="yes"/>
      <point x="1006" y="286"/>
      <point x="972" y="323"/>
      <point x="965" y="405" type="curve" smooth="yes"/>
      <point x="958" y="483" type="line"/>
      <point x="653" y="483" type="line"/>
      <point x="646" y="404" type="line" smooth="yes"/>
      <point x="638" y="318"/>
      <point x="594" y="279"/>
      <point x="513" y="279" type="curve" smooth="yes"/>
      <point x="444" y="279"/>
      <point x="410" y="306"/>
      <point x="410" y="357" type="curve" smooth="yes"/>
      <point x="410" y="359" type="line" smooth="yes"/>
      <point x="410" y="417"/>
      <point x="442" y="446"/>
      <point x="583" y="509" type="curve" smooth="yes"/>
      <point x="780" y="597"/>
      <point x="861" y="692"/>
      <point x="861" y="855" type="curve" smooth="yes"/>
      <point x="861" y="856" type="line" smooth="yes"/>
      <point x="861" y="1074"/>
      <point x="725" y="1191"/>
      <point x="466" y="1191" type="curve" smooth="yes"/>
      <point x="212" y="1191"/>
      <point x="80" y="1081"/>
      <point x="80" y="867" type="curve" smooth="yes"/>
      <point x="80" y="862" type="line" smooth="yes"/>
      <point x="80" y="805"/>
      <point x="93" y="740"/>
      <point x="115" y="687" type="curve"/>
      <point x="407" y="687" type="line"/>
      <point x="388" y="740"/>
      <point x="382" y="778"/>
      <point x="382" y="830" type="curve" smooth="yes"/>
      <point x="382" y="833" type="line" smooth="yes"/>
      <point x="382" y="895"/>
      <point x="410" y="922"/>
      <point x="468" y="922" type="curve" smooth="yes"/>
      <point x="524" y="922"/>
      <point x="551" y="898"/>
      <point x="551" y="850" type="curve" smooth="yes"/>
      <point x="551" y="849" type="line" smooth="yes"/>
      <point x="551" y="783"/>
      <point x="519" y="757"/>
      <point x="377" y="694" type="curve" smooth="yes"/>
      <point x="134" y="586"/>
      <point x="65" y="487"/>
      <point x="65" y="317" type="curve" smooth="yes"/>
      <point x="65" y="313" type="line" smooth="yes"/>
      <point x="65" y="95"/>
      <point x="202" y="-36"/>
    </contour>
    <contour>
      <point x="1116" y="634" type="curve" smooth="yes"/>
      <point x="1370" y="634"/>
      <point x="1497" y="756"/>
      <point x="1497" y="966" type="curve" smooth="yes"/>
      <point x="1497" y="969" type="line" smooth="yes"/>
      <point x="1497" y="1045"/>
      <point x="1476" y="1116"/>
      <point x="1438" y="1170" type="curve"/>
      <point x="1129" y="1170" type="line"/>
      <point x="1153" y="1133"/>
      <point x="1166" y="1081"/>
      <point x="1166" y="1028" type="curve" smooth="yes"/>
      <point x="1166" y="1025" type="line" smooth="yes"/>
      <point x="1166" y="947"/>
      <point x="1126" y="895"/>
      <point x="1020" y="895" type="curve" smooth="yes"/>
      <point x="942" y="895"/>
      <point x="873" y="923"/>
      <point x="832" y="987" type="curve"/>
      <point x="721" y="832" type="line"/>
      <point x="794" y="707"/>
      <point x="915" y="634"/>
    </contour>
  </outline>
</glyph>
<glyph name="Jha.te" format="2">
  <advance width="2690"/>
  <unicode hex="0C1D"/>
  <anchor x="1344" y="-268" name="bottom"/>
  <outline>
    <contour>
      <point x="651" y="-37" type="curve" smooth="yes"/>
      <point x="940" y="-37"/>
      <point x="1114" y="85"/>
      <point x="1176" y="311" type="curve"/>
      <point x="1197" y="372"/>
      <point x="1226" y="447"/>
      <point x="1226" y="524" type="curve" smooth="yes"/>
      <point x="1226" y="624" type="line" smooth="yes"/>
      <point x="1226" y="989"/>
      <point x="1032" y="1157"/>
      <point x="651" y="1157" type="curve" smooth="yes"/>
      <point x="270" y="1157"/>
      <point x="75" y="989"/>
      <point x="75" y="624" type="curve" smooth="yes"/>
      <point x="75" y="518" type="line" smooth="yes"/>
      <point x="75" y="139"/>
      <point x="272" y="-37"/>
    </contour>
    <contour>
      <point x="651" y="277" type="curve" smooth="yes"/>
      <point x="493" y="277"/>
      <point x="417" y="359"/>
      <point x="417" y="526" type="curve" smooth="yes"/>
      <point x="417" y="628" type="line" smooth="yes"/>
      <point x="417" y="795"/>
      <point x="493" y="877"/>
      <point x="651" y="877" type="curve" smooth="yes"/>
      <point x="808" y="877"/>
      <point x="884" y="795"/>
      <point x="884" y="628" type="curve" smooth="yes"/>
      <point x="884" y="526" type="line" smooth="yes"/>
      <point x="884" y="359"/>
      <point x="808" y="277"/>
    </contour>
    <contour>
      <point x="1482" y="-36" type="curve" smooth="yes"/>
      <point x="1697" y="-36"/>
      <point x="1830" y="83"/>
      <point x="1860" y="282" type="curve" smooth="yes"/>
      <point x="1883" y="337"/>
      <point x="1920" y="391"/>
      <point x="1920" y="465" type="curve" smooth="yes"/>
      <point x="1920" y="592" type="line"/>
      <point x="1578" y="593" type="line"/>
      <point x="1578" y="484" type="line" smooth="yes"/>
      <point x="1578" y="348"/>
      <point x="1518" y="279"/>
      <point x="1403" y="279" type="curve" smooth="yes"/>
      <point x="1288" y="279"/>
      <point x="1226" y="342"/>
      <point x="1226" y="463" type="curve" smooth="yes"/>
      <point x="1226" y="537" type="line"/>
      <point x="1114" y="537" type="line"/>
      <point x="1114" y="309" type="line" smooth="yes"/>
      <point x="1114" y="92"/>
      <point x="1249" y="-36"/>
    </contour>
    <contour>
      <point x="577" y="1040" type="curve"/>
      <point x="710" y="1040" type="line"/>
      <point x="893" y="1040"/>
      <point x="982" y="1112"/>
      <point x="1035" y="1187" type="curve" smooth="yes"/>
      <point x="1096" y="1274" type="line" smooth="yes"/>
      <point x="1130" y="1322"/>
      <point x="1173" y="1345"/>
      <point x="1239" y="1345" type="curve" smooth="yes"/>
      <point x="1317" y="1345" type="line"/>
      <point x="1289" y="1644" type="line"/>
      <point x="1187" y="1644" type="line" smooth="yes"/>
      <point x="1041" y="1644"/>
      <point x="953" y="1588"/>
      <point x="880" y="1479" type="curve" smooth="yes"/>
      <point x="720" y="1242" type="line" smooth="yes"/>
      <point x="685" y="1190"/>
      <point x="663" y="1170"/>
      <point x="629" y="1170" type="curve" smooth="yes"/>
      <point x="625" y="1170" type="line" smooth="yes"/>
      <point x="587" y="1170"/>
      <point x="568" y="1196"/>
      <point x="552" y="1249" type="curve" smooth="yes"/>
      <point x="508" y="1397" type="line"/>
      <point x="158" y="1397" type="line"/>
      <point x="210" y="1239" type="line" smooth="yes"/>
      <point x="262" y="1080"/>
      <point x="364" y="1040"/>
    </contour>
    <component base="kombu_1" xOffset="1830" yOffset="28"/>
    <component base="matraU.te" xOffset="1955"/>
    <component base="Terminals.te" xOffset="1323"/>
  </outline>
</glyph>
<glyph name="Nya.te" format="2">
  <advance width="2074"/>
  <unicode hex="0C1E"/>
  <anchor x="802" y="-53" name="bottom"/>
  <outline>
    <contour>
      <point x="1667" y="767" type="curve"/>
      <point x="1824" y="767" type="line"/>
      <point x="1877" y="880"/>
      <point x="1911" y="979"/>
      <point x="1911" y="1041" type="curve" smooth="yes"/>
      <point x="1911" y="1110"/>
      <point x="1888" y="1151"/>
      <point x="1874" y="1170" type="curve"/>
      <point x="1617" y="1170" type="line"/>
      <point x="1603" y="1151"/>
      <point x="1580" y="1110"/>
      <point x="1580" y="1041" type="curve" smooth="yes"/>
      <point x="1580" y="979"/>
      <point x="1614" y="880"/>
    </contour>
    <contour>
      <point x="1385" y="574" type="line"/>
      <point x="2034" y="574" type="line"/>
      <point x="2034" y="825" type="line"/>
      <point x="1385" y="825" type="line"/>
    </contour>
    <component base="vowelI.te"/>
  </outline>
</glyph>
<glyph name="Ttha.te" format="2">
  <advance width="1336"/>
  <unicode hex="0C20"/>
  <anchor x="668" y="-53" name="bottom"/>
  <outline>
    <contour>
      <point x="668" y="-38" type="curve" smooth="yes"/>
      <point x="1059" y="-38"/>
      <point x="1261" y="150"/>
      <point x="1261" y="531" type="curve" smooth="yes"/>
      <point x="1261" y="620" type="line" smooth="yes"/>
      <point x="1261" y="977"/>
      <point x="1059" y="1152"/>
      <point x="668" y="1152" type="curve" smooth="yes"/>
      <point x="278" y="1152"/>
      <point x="75" y="977"/>
      <point x="75" y="620" type="curve" smooth="yes"/>
      <point x="75" y="531" type="line" smooth="yes"/>
      <point x="75" y="150"/>
      <point x="278" y="-38"/>
    </contour>
    <contour>
      <point x="668" y="273" type="curve" smooth="yes"/>
      <point x="493" y="273"/>
      <point x="408" y="362"/>
      <point x="408" y="537" type="curve" smooth="yes"/>
      <point x="408" y="616" type="line" smooth="yes"/>
      <point x="408" y="793"/>
      <point x="494" y="879"/>
      <point x="668" y="879" type="curve" smooth="yes"/>
      <point x="842" y="879"/>
      <point x="928" y="793"/>
      <point x="928" y="616" type="curve" smooth="yes"/>
      <point x="928" y="537" type="line" smooth="yes"/>
      <point x="928" y="362"/>
      <point x="843" y="273"/>
    </contour>
    <contour>
      <point x="597" y="1040" type="curve"/>
      <point x="730" y="1040" type="line"/>
      <point x="913" y="1040"/>
      <point x="1002" y="1111"/>
      <point x="1055" y="1187" type="curve" smooth="yes"/>
      <point x="1116" y="1274" type="line" smooth="yes"/>
      <point x="1150" y="1322"/>
      <point x="1193" y="1345"/>
      <point x="1259" y="1345" type="curve" smooth="yes"/>
      <point x="1337" y="1345" type="line"/>
      <point x="1308" y="1644" type="line"/>
      <point x="1207" y="1644" type="line" smooth="yes"/>
      <point x="1072" y="1644"/>
      <point x="979" y="1595"/>
      <point x="900" y="1479" type="curve" smooth="yes"/>
      <point x="740" y="1243" type="line" smooth="yes"/>
      <point x="703" y="1188"/>
      <point x="682" y="1170"/>
      <point x="649" y="1170" type="curve" smooth="yes"/>
      <point x="645" y="1170" type="line" smooth="yes"/>
      <point x="606" y="1170"/>
      <point x="587" y="1197"/>
      <point x="572" y="1249" type="curve" smooth="yes"/>
      <point x="528" y="1397" type="line"/>
      <point x="179" y="1397" type="line"/>
      <point x="230" y="1239" type="line" smooth="yes"/>
      <point x="280" y="1083"/>
      <point x="377" y="1040"/>
    </contour>
    <component base="chukka" xScale="1.025" yScale="1.05" xOffset="669" yOffset="-167"/>
  </outline>
</glyph>
<glyph name="Dda.te" format="2">
  <advance width="1570"/>
  <unicode hex="0C21"/>
  <guideline x="812" y="695" angle="0"/>
  <anchor x="797" y="-53" name="bottom"/>
  <outline>
    <contour>
      <point x="470" y="-36" type="curve" smooth="yes"/>
      <point x="666" y="-36"/>
      <point x="775" y="55"/>
      <point x="793" y="225" type="curve"/>
      <point x="803" y="225" type="line"/>
      <point x="822" y="55"/>
      <point x="934" y="-36"/>
      <point x="1134" y="-36" type="curve" smooth="yes"/>
      <point x="1381" y="-36"/>
      <point x="1513" y="97"/>
      <point x="1513" y="366" type="curve" smooth="yes"/>
      <point x="1513" y="374" type="line" smooth="yes"/>
      <point x="1513" y="468"/>
      <point x="1494" y="548"/>
      <point x="1463" y="611" type="curve"/>
      <point x="1144" y="611" type="line"/>
      <point x="1165" y="564"/>
      <point x="1177" y="495"/>
      <point x="1177" y="435" type="curve" smooth="yes"/>
      <point x="1177" y="427" type="line" smooth="yes"/>
      <point x="1177" y="327"/>
      <point x="1144" y="286"/>
      <point x="1069" y="286" type="curve" smooth="yes"/>
      <point x="1000" y="286"/>
      <point x="964" y="325"/>
      <point x="957" y="411" type="curve" smooth="yes"/>
      <point x="949" y="510" type="line"/>
      <point x="647" y="510" type="line"/>
      <point x="639" y="411" type="line" smooth="yes"/>
      <point x="632" y="325"/>
      <point x="597" y="286"/>
      <point x="529" y="286" type="curve" smooth="yes"/>
      <point x="452" y="286"/>
      <point x="417" y="334"/>
      <point x="417" y="449" type="curve" smooth="yes"/>
      <point x="417" y="536" type="line" smooth="yes"/>
      <point x="417" y="769"/>
      <point x="543" y="879"/>
      <point x="813" y="879" type="curve" smooth="yes"/>
      <point x="1075" y="879"/>
      <point x="1207" y="833"/>
      <point x="1337" y="775" type="curve"/>
      <point x="1301" y="1082" type="line"/>
      <point x="1183" y="1121"/>
      <point x="1012" y="1157"/>
      <point x="815" y="1157" type="curve" smooth="yes"/>
      <point x="321" y="1157"/>
      <point x="75" y="948"/>
      <point x="75" y="522" type="curve" smooth="yes"/>
      <point x="75" y="434" type="line" smooth="yes"/>
      <point x="75" y="121"/>
      <point x="213" y="-36"/>
    </contour>
    <contour>
      <point x="719" y="1040" type="curve"/>
      <point x="851" y="1040" type="line"/>
      <point x="1040" y="1040"/>
      <point x="1130" y="1111"/>
      <point x="1186" y="1187" type="curve" smooth="yes"/>
      <point x="1250" y="1274" type="line" smooth="yes"/>
      <point x="1286" y="1323"/>
      <point x="1329" y="1345"/>
      <point x="1396" y="1345" type="curve" smooth="yes"/>
      <point x="1496" y="1345" type="line"/>
      <point x="1470" y="1644" type="line"/>
      <point x="1349" y="1644" type="line" smooth="yes"/>
      <point x="1196" y="1644"/>
      <point x="1107" y="1586"/>
      <point x="1032" y="1480" type="curve" smooth="yes"/>
      <point x="865" y="1242" type="line" smooth="yes"/>
      <point x="827" y="1187"/>
      <point x="803" y="1170"/>
      <point x="770" y="1170" type="curve" smooth="yes"/>
      <point x="766" y="1170" type="line" smooth="yes"/>
      <point x="723" y="1170"/>
      <point x="705" y="1196"/>
      <point x="689" y="1249" type="curve" smooth="yes"/>
      <point x="645" y="1397" type="line"/>
      <point x="296" y="1397" type="line"/>
      <point x="347" y="1239" type="line" smooth="yes"/>
      <point x="400" y="1074"/>
      <point x="513" y="1040"/>
    </contour>
  </outline>
</glyph>
<glyph name="Da.te" format="2">
  <advance width="1596"/>
  <unicode hex="0C26"/>
  <anchor x="796" y="-53" name="bottom"/>
  <outline>
    <contour>
      <point x="470" y="-36" type="curve" smooth="yes"/>
      <point x="666" y="-36"/>
      <point x="773" y="56"/>
      <point x="793" y="221" type="curve"/>
      <point x="803" y="221" type="line"/>
      <point x="823" y="56"/>
      <point x="930" y="-36"/>
      <point x="1126" y="-36" type="curve" smooth="yes"/>
      <point x="1383" y="-36"/>
      <point x="1521" y="124"/>
      <point x="1521" y="444" type="curve" smooth="yes"/>
      <point x="1521" y="516" type="line" smooth="yes"/>
      <point x="1521" y="946"/>
      <point x="1280" y="1157"/>
      <point x="798" y="1157" type="curve" smooth="yes"/>
      <point x="316" y="1157"/>
      <point x="75" y="946"/>
      <point x="75" y="516" type="curve" smooth="yes"/>
      <point x="75" y="444" type="line" smooth="yes"/>
      <point x="75" y="124"/>
      <point x="213" y="-36"/>
    </contour>
    <contour>
      <point x="529" y="286" type="curve" smooth="yes"/>
      <point x="452" y="286"/>
      <point x="417" y="337"/>
      <point x="417" y="459" type="curve" smooth="yes"/>
      <point x="417" y="527" type="line" smooth="yes"/>
      <point x="417" y="767"/>
      <point x="539" y="877"/>
      <point x="798" y="877" type="curve" smooth="yes"/>
      <point x="1056" y="877"/>
      <point x="1179" y="767"/>
      <point x="1179" y="527" type="curve" smooth="yes"/>
      <point x="1179" y="459" type="line" smooth="yes"/>
      <point x="1179" y="337"/>
      <point x="1144" y="286"/>
      <point x="1067" y="286" type="curve" smooth="yes"/>
      <point x="1000" y="286"/>
      <point x="965" y="325"/>
      <point x="958" y="405" type="curve" smooth="yes"/>
      <point x="949" y="511" type="line"/>
      <point x="647" y="511" type="line"/>
      <point x="638" y="405" type="line" smooth="yes"/>
      <point x="631" y="325"/>
      <point x="595" y="286"/>
    </contour>
    <contour>
      <point x="724" y="1040" type="curve"/>
      <point x="857" y="1040" type="line"/>
      <point x="1055" y="1040"/>
      <point x="1139" y="1116"/>
      <point x="1191" y="1187" type="curve" smooth="yes"/>
      <point x="1255" y="1274" type="line" smooth="yes"/>
      <point x="1291" y="1323"/>
      <point x="1334" y="1345"/>
      <point x="1402" y="1345" type="curve" smooth="yes"/>
      <point x="1502" y="1345" type="line"/>
      <point x="1477" y="1644" type="line"/>
      <point x="1355" y="1644" type="line" smooth="yes"/>
      <point x="1216" y="1644"/>
      <point x="1121" y="1597"/>
      <point x="1038" y="1479" type="curve" smooth="yes"/>
      <point x="871" y="1242" type="line" smooth="yes"/>
      <point x="833" y="1188"/>
      <point x="810" y="1170"/>
      <point x="775" y="1170" type="curve" smooth="yes"/>
      <point x="771" y="1170" type="line" smooth="yes"/>
      <point x="730" y="1170"/>
      <point x="711" y="1193"/>
      <point x="694" y="1249" type="curve" smooth="yes"/>
      <point x="650" y="1397" type="line"/>
      <point x="301" y="1397" type="line"/>
      <point x="352" y="1239" type="line" smooth="yes"/>
      <point x="405" y="1076"/>
      <point x="515" y="1040"/>
    </contour>
  </outline>
</glyph>
<glyph name="Pa.te" format="2">
  <advance width="1560"/>
  <unicode hex="0C2A"/>
  <anchor x="749" y="-53" name="bottom"/>
  <outline>
    <contour>
      <point x="420" y="-36" type="curve" smooth="yes"/>
      <point x="609" y="-36"/>
      <point x="709" y="50"/>
      <point x="730" y="198" type="curve"/>
      <point x="740" y="198" type="line"/>
      <point x="769" y="48"/>
      <point x="876" y="-36"/>
      <point x="1075" y="-36" type="curve" smooth="yes"/>
      <point x="1344" y="-36"/>
      <point x="1485" y="133"/>
      <point x="1485" y="465" type="curve" smooth="yes"/>
      <point x="1485" y="576" type="line"/>
      <point x="1143" y="576" type="line"/>
      <point x="1143" y="474" type="line" smooth="yes"/>
      <point x="1143" y="342"/>
      <point x="1095" y="280"/>
      <point x="1003" y="280" type="curve" smooth="yes"/>
      <point x="919" y="280"/>
      <point x="871" y="324"/>
      <point x="856" y="422" type="curve" smooth="yes"/>
      <point x="854" y="435" type="line" smooth="yes"/>
      <point x="822" y="646"/>
      <point x="688" y="756"/>
      <point x="461" y="756" type="curve" smooth="yes"/>
      <point x="202" y="756"/>
      <point x="60" y="616"/>
      <point x="60" y="367" type="curve" smooth="yes"/>
      <point x="60" y="342" type="line" smooth="yes"/>
      <point x="60" y="95"/>
      <point x="185" y="-36"/>
    </contour>
    <contour>
      <point x="463" y="271" type="curve" smooth="yes"/>
      <point x="404" y="271"/>
      <point x="375" y="303"/>
      <point x="375" y="362" type="curve" smooth="yes"/>
      <point x="375" y="373" type="line" smooth="yes"/>
      <point x="375" y="433"/>
      <point x="404" y="464"/>
      <point x="463" y="464" type="curve" smooth="yes"/>
      <point x="523" y="464"/>
      <point x="552" y="433"/>
      <point x="552" y="373" type="curve" smooth="yes"/>
      <point x="552" y="362" type="line" smooth="yes"/>
      <point x="552" y="303"/>
      <point x="523" y="271"/>
    </contour>
    <contour>
      <point x="472" y="884" type="curve" smooth="yes"/>
      <point x="488" y="884" type="line" smooth="yes"/>
      <point x="653" y="884"/>
      <point x="740" y="966"/>
      <point x="842" y="1099" type="curve" smooth="yes"/>
      <point x="974" y="1271" type="line" smooth="yes"/>
      <point x="1019" y="1329"/>
      <point x="1069" y="1342"/>
      <point x="1122" y="1342" type="curve" smooth="yes"/>
      <point x="1274" y="1342" type="line"/>
      <point x="1248" y="1641" type="line"/>
      <point x="1075" y="1641" type="line" smooth="yes"/>
      <point x="922" y="1641"/>
      <point x="835" y="1583"/>
      <point x="758" y="1478" type="curve" smooth="yes"/>
      <point x="585" y="1242" type="line" smooth="yes"/>
      <point x="549" y="1193"/>
      <point x="527" y="1170"/>
      <point x="493" y="1170" type="curve" smooth="yes"/>
      <point x="489" y="1170" type="line" smooth="yes"/>
      <point x="451" y="1170"/>
      <point x="433" y="1193"/>
      <point x="416" y="1249" type="curve" smooth="yes"/>
      <point x="372" y="1397" type="line"/>
      <point x="26" y="1397" type="line"/>
      <point x="90" y="1215" type="line" smooth="yes"/>
      <point x="176" y="971"/>
      <point x="270" y="884"/>
    </contour>
    <contour>
      <point x="1143" y="541" type="line"/>
      <point x="1485" y="541" type="line"/>
      <point x="1485" y="635" type="line" smooth="yes"/>
      <point x="1485" y="982"/>
      <point x="1318" y="1170"/>
      <point x="993" y="1170" type="curve" smooth="yes"/>
      <point x="973" y="1170" type="line"/>
      <point x="920" y="870" type="line"/>
      <point x="928" y="870" type="line"/>
      <point x="1072" y="870"/>
      <point x="1143" y="791"/>
      <point x="1143" y="632" type="curve" smooth="yes"/>
    </contour>
  </outline>
</glyph>
<glyph name="Ba.te" format="2">
  <advance width="1622"/>
  <unicode hex="0C2C"/>
  <anchor x="805" y="-53" name="bottom"/>
  <outline>
    <contour>
      <point x="460" y="-36" type="curve" smooth="yes"/>
      <point x="665" y="-36"/>
      <point x="781" y="52"/>
      <point x="801" y="215" type="curve"/>
      <point x="811" y="215" type="line"/>
      <point x="830" y="52"/>
      <point x="943" y="-36"/>
      <point x="1147" y="-36" type="curve" smooth="yes"/>
      <point x="1407" y="-36"/>
      <point x="1547" y="128"/>
      <point x="1547" y="451" type="curve" smooth="yes"/>
      <point x="1547" y="584" type="line"/>
      <point x="1205" y="584" type="line"/>
      <point x="1205" y="455" type="line" smooth="yes"/>
      <point x="1205" y="336"/>
      <point x="1164" y="286"/>
      <point x="1085" y="286" type="curve" smooth="yes"/>
      <point x="1011" y="286"/>
      <point x="973" y="323"/>
      <point x="966" y="405" type="curve" smooth="yes"/>
      <point x="959" y="483" type="line"/>
      <point x="654" y="483" type="line"/>
      <point x="646" y="404" type="line" smooth="yes"/>
      <point x="637" y="318"/>
      <point x="594" y="279"/>
      <point x="513" y="279" type="curve" smooth="yes"/>
      <point x="444" y="279"/>
      <point x="410" y="306"/>
      <point x="410" y="357" type="curve" smooth="yes"/>
      <point x="410" y="359" type="line" smooth="yes"/>
      <point x="410" y="417"/>
      <point x="442" y="446"/>
      <point x="583" y="509" type="curve" smooth="yes"/>
      <point x="780" y="597"/>
      <point x="861" y="692"/>
      <point x="861" y="855" type="curve" smooth="yes"/>
      <point x="861" y="856" type="line" smooth="yes"/>
      <point x="861" y="1075"/>
      <point x="725" y="1191"/>
      <point x="466" y="1191" type="curve" smooth="yes"/>
      <point x="212" y="1191"/>
      <point x="80" y="1080"/>
      <point x="80" y="867" type="curve" smooth="yes"/>
      <point x="80" y="862" type="line" smooth="yes"/>
      <point x="80" y="803"/>
      <point x="93" y="740"/>
      <point x="115" y="687" type="curve"/>
      <point x="407" y="687" type="line"/>
      <point x="388" y="739"/>
      <point x="382" y="776"/>
      <point x="382" y="830" type="curve" smooth="yes"/>
      <point x="382" y="833" type="line" smooth="yes"/>
      <point x="382" y="895"/>
      <point x="410" y="922"/>
      <point x="468" y="922" type="curve" smooth="yes"/>
      <point x="524" y="922"/>
      <point x="551" y="898"/>
      <point x="551" y="850" type="curve" smooth="yes"/>
      <point x="551" y="849" type="line" smooth="yes"/>
      <point x="551" y="783"/>
      <point x="519" y="757"/>
      <point x="377" y="694" type="curve" smooth="yes"/>
      <point x="133" y="586"/>
      <point x="65" y="487"/>
      <point x="65" y="317" type="curve" smooth="yes"/>
      <point x="65" y="313" type="line" smooth="yes"/>
      <point x="65" y="95"/>
      <point x="202" y="-36"/>
    </contour>
    <component base="Terminals.te" xOffset="950"/>
  </outline>
</glyph>
<glyph name="Ya.te" format="2">
  <advance width="2690"/>
  <unicode hex="0C2F"/>
  <anchor x="1344" y="-53" name="bottom"/>
  <outline>
    <contour>
      <point x="651" y="-37" type="curve" smooth="yes"/>
      <point x="940" y="-37"/>
      <point x="1114" y="85"/>
      <point x="1176" y="311" type="curve"/>
      <point x="1197" y="372"/>
      <point x="1226" y="446"/>
      <point x="1226" y="524" type="curve" smooth="yes"/>
      <point x="1226" y="624" type="line" smooth="yes"/>
      <point x="1226" y="1003"/>
      <point x="1028" y="1191"/>
      <point x="651" y="1191" type="curve" smooth="yes"/>
      <point x="274" y="1191"/>
      <point x="75" y="1002"/>
      <point x="75" y="624" type="curve" smooth="yes"/>
      <point x="75" y="518" type="line" smooth="yes"/>
      <point x="75" y="139"/>
      <point x="272" y="-37"/>
    </contour>
    <contour>
      <point x="651" y="277" type="curve" smooth="yes"/>
      <point x="493" y="277"/>
      <point x="417" y="359"/>
      <point x="417" y="526" type="curve" smooth="yes"/>
      <point x="417" y="628" type="line" smooth="yes"/>
      <point x="417" y="795"/>
      <point x="493" y="877"/>
      <point x="651" y="877" type="curve" smooth="yes"/>
      <point x="808" y="877"/>
      <point x="884" y="795"/>
      <point x="884" y="628" type="curve" smooth="yes"/>
      <point x="884" y="526" type="line" smooth="yes"/>
      <point x="884" y="359"/>
      <point x="808" y="277"/>
    </contour>
    <contour>
      <point x="1482" y="-36" type="curve" smooth="yes"/>
      <point x="1697" y="-36"/>
      <point x="1830" y="83"/>
      <point x="1860" y="282" type="curve"/>
      <point x="1884" y="332"/>
      <point x="1920" y="391"/>
      <point x="1920" y="465" type="curve" smooth="yes"/>
      <point x="1920" y="663" type="line" smooth="yes"/>
      <point x="1920" y="954"/>
      <point x="1794" y="1107"/>
      <point x="1513" y="1130" type="curve"/>
      <point x="1441" y="893" type="line"/>
      <point x="1532" y="880"/>
      <point x="1578" y="808"/>
      <point x="1578" y="674" type="curve" smooth="yes"/>
      <point x="1578" y="488" type="line" smooth="yes"/>
      <point x="1578" y="348"/>
      <point x="1518" y="279"/>
      <point x="1403" y="279" type="curve" smooth="yes"/>
      <point x="1288" y="279"/>
      <point x="1226" y="349"/>
      <point x="1226" y="483" type="curve" smooth="yes"/>
      <point x="1226" y="537" type="line"/>
      <point x="1114" y="537" type="line"/>
      <point x="1114" y="309" type="line" smooth="yes"/>
      <point x="1114" y="92"/>
      <point x="1249" y="-36"/>
    </contour>
    <contour>
      <point x="1477" y="889" type="curve"/>
      <point x="1587" y="968" type="line"/>
      <point x="1722" y="968"/>
      <point x="1793" y="1035"/>
      <point x="1854" y="1127" type="curve" smooth="yes"/>
      <point x="1948" y="1269" type="line" smooth="yes"/>
      <point x="1983" y="1322"/>
      <point x="2031" y="1345"/>
      <point x="2099" y="1345" type="curve" smooth="yes"/>
      <point x="2166" y="1345" type="line"/>
      <point x="2140" y="1644" type="line"/>
      <point x="2042" y="1644" type="line" smooth="yes"/>
      <point x="1905" y="1644"/>
      <point x="1813" y="1596"/>
      <point x="1741" y="1479" type="curve" smooth="yes"/>
      <point x="1594" y="1241" type="line" smooth="yes"/>
      <point x="1558" y="1183"/>
      <point x="1541" y="1170"/>
      <point x="1514" y="1170" type="curve" smooth="yes"/>
      <point x="1509" y="1170" type="line" smooth="yes"/>
      <point x="1478" y="1170"/>
      <point x="1462" y="1191"/>
      <point x="1445" y="1249" type="curve" smooth="yes"/>
      <point x="1401" y="1397" type="line"/>
      <point x="1066" y="1397" type="line"/>
      <point x="1127" y="1201" type="line" smooth="yes"/>
      <point x="1190" y="998"/>
      <point x="1278" y="889"/>
    </contour>
    <component base="matraU.te" xOffset="1955"/>
  </outline>
</glyph>
<glyph name="Ra.te" format="2">
  <advance width="1326"/>
  <unicode hex="0C30"/>
  <anchor x="663" y="-53" name="bottom"/>
  <outline>
    <contour>
      <point x="663" y="-38" type="curve" smooth="yes"/>
      <point x="1051" y="-38"/>
      <point x="1251" y="143"/>
      <point x="1251" y="531" type="curve" smooth="yes"/>
      <point x="1251" y="609" type="line" smooth="yes"/>
      <point x="1251" y="984"/>
      <point x="1053" y="1157"/>
      <point x="663" y="1157" type="curve" smooth="yes"/>
      <point x="274" y="1157"/>
      <point x="75" y="984"/>
      <point x="75" y="609" type="curve" smooth="yes"/>
      <point x="75" y="531" type="line" smooth="yes"/>
      <point x="75" y="143"/>
      <point x="276" y="-38"/>
    </contour>
    <contour>
      <point x="663" y="277" type="curve" smooth="yes"/>
      <point x="497" y="277"/>
      <point x="417" y="362"/>
      <point x="417" y="540" type="curve" smooth="yes"/>
      <point x="417" y="613" type="line" smooth="yes"/>
      <point x="417" y="791"/>
      <point x="497" y="877"/>
      <point x="663" y="877" type="curve" smooth="yes"/>
      <point x="829" y="877"/>
      <point x="909" y="791"/>
      <point x="909" y="613" type="curve" smooth="yes"/>
      <point x="909" y="540" type="line" smooth="yes"/>
      <point x="909" y="362"/>
      <point x="829" y="277"/>
    </contour>
    <contour>
      <point x="592" y="1040" type="curve"/>
      <point x="725" y="1040" type="line"/>
      <point x="908" y="1040"/>
      <point x="997" y="1111"/>
      <point x="1050" y="1187" type="curve" smooth="yes"/>
      <point x="1111" y="1274" type="line" smooth="yes"/>
      <point x="1145" y="1322"/>
      <point x="1188" y="1345"/>
      <point x="1254" y="1345" type="curve" smooth="yes"/>
      <point x="1332" y="1345" type="line"/>
      <point x="1303" y="1644" type="line"/>
      <point x="1202" y="1644" type="line" smooth="yes"/>
      <point x="1066" y="1644"/>
      <point x="974" y="1595"/>
      <point x="895" y="1479" type="curve" smooth="yes"/>
      <point x="735" y="1243" type="line" smooth="yes"/>
      <point x="698" y="1188"/>
      <point x="677" y="1170"/>
      <point x="644" y="1170" type="curve" smooth="yes"/>
      <point x="640" y="1170" type="line" smooth="yes"/>
      <point x="601" y="1170"/>
      <point x="582" y="1197"/>
      <point x="567" y="1249" type="curve" smooth="yes"/>
      <point x="523" y="1397" type="line"/>
      <point x="174" y="1397" type="line"/>
      <point x="225" y="1239" type="line" smooth="yes"/>
      <point x="275" y="1083"/>
      <point x="372" y="1040"/>
    </contour>
  </outline>
</glyph>
<glyph name="Rra.te" format="2">
  <advance width="1850"/>
  <unicode hex="0C31"/>
  <anchor x="917" y="-53" name="bottom"/>
  <outline>
    <contour>
      <point x="538" y="-36" type="curve" smooth="yes"/>
      <point x="764" y="-36"/>
      <point x="892" y="53"/>
      <point x="914" y="217" type="curve"/>
      <point x="924" y="217" type="line"/>
      <point x="946" y="53"/>
      <point x="1077" y="-36"/>
      <point x="1306" y="-36" type="curve" smooth="yes"/>
      <point x="1612" y="-36"/>
      <point x="1775" y="144"/>
      <point x="1775" y="494" type="curve" smooth="yes"/>
      <point x="1775" y="719" type="line" smooth="yes"/>
      <point x="1775" y="1033"/>
      <point x="1624" y="1191"/>
      <point x="1328" y="1191" type="curve" smooth="yes"/>
      <point x="1086" y="1191"/>
      <point x="962" y="1102"/>
      <point x="962" y="933" type="curve" smooth="yes"/>
      <point x="962" y="928" type="line" smooth="yes"/>
      <point x="962" y="844"/>
      <point x="999" y="783"/>
      <point x="1079" y="758" type="curve"/>
      <point x="1079" y="751" type="line"/>
      <point x="872" y="750" type="line"/>
      <point x="890" y="508" type="line"/>
      <point x="1343" y="515" type="line"/>
      <point x="1343" y="740" type="line"/>
      <point x="1293" y="749" type="line"/>
      <point x="1274" y="765"/>
      <point x="1266" y="790"/>
      <point x="1266" y="828" type="curve" smooth="yes"/>
      <point x="1266" y="831" type="line" smooth="yes"/>
      <point x="1266" y="880"/>
      <point x="1290" y="911"/>
      <point x="1345" y="911" type="curve" smooth="yes"/>
      <point x="1404" y="911"/>
      <point x="1436" y="872"/>
      <point x="1436" y="752" type="curve" smooth="yes"/>
      <point x="1436" y="507" type="line" smooth="yes"/>
      <point x="1436" y="354"/>
      <point x="1375" y="285"/>
      <point x="1249" y="285" type="curve" smooth="yes"/>
      <point x="1138" y="285"/>
      <point x="1086" y="327"/>
      <point x="1077" y="416" type="curve" smooth="yes"/>
      <point x="1072" y="466" type="line"/>
      <point x="766" y="466" type="line"/>
      <point x="761" y="416" type="line" smooth="yes"/>
      <point x="752" y="326"/>
      <point x="702" y="285"/>
      <point x="597" y="285" type="curve" smooth="yes"/>
      <point x="475" y="285"/>
      <point x="415" y="352"/>
      <point x="415" y="500" type="curve" smooth="yes"/>
      <point x="415" y="613" type="line" smooth="yes"/>
      <point x="415" y="623"/>
      <point x="415" y="631"/>
      <point x="415" y="642" type="curve"/>
      <point x="431" y="642" type="line"/>
      <point x="417" y="746" type="line"/>
      <point x="417" y="766" type="line"/>
      <point x="417" y="877"/>
      <point x="448" y="921"/>
      <point x="515" y="921" type="curve" smooth="yes"/>
      <point x="568" y="921"/>
      <point x="596" y="892"/>
      <point x="596" y="835" type="curve" smooth="yes"/>
      <point x="596" y="825" type="line" smooth="yes"/>
      <point x="596" y="771"/>
      <point x="569" y="741"/>
      <point x="518" y="741" type="curve" smooth="yes"/>
      <point x="466" y="741"/>
      <point x="426" y="766"/>
      <point x="407" y="813" type="curve"/>
      <point x="419" y="661" type="line"/>
      <point x="440" y="560"/>
      <point x="513" y="508"/>
      <point x="638" y="508" type="curve" smooth="yes"/>
      <point x="812" y="508"/>
      <point x="905" y="616"/>
      <point x="905" y="813" type="curve" smooth="yes"/>
      <point x="905" y="832" type="line" smooth="yes"/>
      <point x="905" y="1065"/>
      <point x="777" y="1189"/>
      <point x="516" y="1189" type="curve" smooth="yes"/>
      <point x="227" y="1189"/>
      <point x="75" y="1031"/>
      <point x="75" y="714" type="curve" smooth="yes"/>
      <point x="75" y="492" type="line" smooth="yes"/>
      <point x="75" y="144"/>
      <point x="237" y="-36"/>
    </contour>
  </outline>
</glyph>
<glyph name="La.te" format="2">
  <advance width="1555"/>
  <unicode hex="0C32"/>
  <anchor x="772" y="-53" name="bottom"/>
  <outline>
    <contour>
      <point x="776" y="-37" type="curve" smooth="yes"/>
      <point x="1242" y="-37"/>
      <point x="1480" y="179"/>
      <point x="1480" y="590" type="curve" smooth="yes"/>
      <point x="1480" y="660" type="line" smooth="yes"/>
      <point x="1480" y="990"/>
      <point x="1320" y="1170"/>
      <point x="1022" y="1170" type="curve" smooth="yes"/>
      <point x="1002" y="1170" type="line"/>
      <point x="959" y="870" type="line"/>
      <point x="967" y="870" type="line" smooth="yes"/>
      <point x="1082" y="870"/>
      <point x="1138" y="798"/>
      <point x="1138" y="655" type="curve" smooth="yes"/>
      <point x="1138" y="599" type="line" smooth="yes"/>
      <point x="1138" y="381"/>
      <point x="1021" y="275"/>
      <point x="776" y="275" type="curve" smooth="yes"/>
      <point x="529" y="275"/>
      <point x="415" y="379"/>
      <point x="415" y="589" type="curve"/>
      <point x="415" y="630" type="line"/>
      <point x="415" y="634"/>
      <point x="415" y="636"/>
      <point x="415" y="642" type="curve"/>
      <point x="431" y="642" type="line"/>
      <point x="417" y="746" type="line"/>
      <point x="417" y="766" type="line"/>
      <point x="417" y="877"/>
      <point x="448" y="921"/>
      <point x="515" y="921" type="curve" smooth="yes"/>
      <point x="568" y="921"/>
      <point x="596" y="892"/>
      <point x="596" y="835" type="curve" smooth="yes"/>
      <point x="596" y="825" type="line" smooth="yes"/>
      <point x="596" y="771"/>
      <point x="569" y="741"/>
      <point x="518" y="741" type="curve" smooth="yes"/>
      <point x="466" y="741"/>
      <point x="426" y="766"/>
      <point x="407" y="813" type="curve"/>
      <point x="419" y="661" type="line"/>
      <point x="440" y="560"/>
      <point x="513" y="508"/>
      <point x="638" y="508" type="curve" smooth="yes"/>
      <point x="812" y="508"/>
      <point x="905" y="616"/>
      <point x="905" y="813" type="curve" smooth="yes"/>
      <point x="905" y="832" type="line" smooth="yes"/>
      <point x="905" y="1065"/>
      <point x="777" y="1189"/>
      <point x="516" y="1189" type="curve" smooth="yes"/>
      <point x="227" y="1189"/>
      <point x="75" y="1031"/>
      <point x="75" y="714" type="curve" smooth="yes"/>
      <point x="75" y="580" type="line" smooth="yes"/>
      <point x="75" y="178"/>
      <point x="313" y="-37"/>
    </contour>
  </outline>
</glyph>
<glyph name="Lla.te" format="2">
  <advance width="1532"/>
  <unicode hex="0C33"/>
  <anchor x="772" y="-53" name="bottom"/>
  <outline>
    <contour>
      <point x="1131" y="899" type="curve"/>
      <point x="1224" y="968" type="line"/>
      <point x="1358" y="968"/>
      <point x="1425" y="1033"/>
      <point x="1489" y="1127" type="curve" smooth="yes"/>
      <point x="1589" y="1274" type="line" smooth="yes"/>
      <point x="1621" y="1322"/>
      <point x="1667" y="1345"/>
      <point x="1736" y="1345" type="curve" smooth="yes"/>
      <point x="1803" y="1345" type="line"/>
      <point x="1777" y="1644" type="line"/>
      <point x="1680" y="1644" type="line" smooth="yes"/>
      <point x="1542" y="1644"/>
      <point x="1452" y="1596"/>
      <point x="1379" y="1479" type="curve" smooth="yes"/>
      <point x="1231" y="1241" type="line" smooth="yes"/>
      <point x="1196" y="1184"/>
      <point x="1180" y="1170"/>
      <point x="1153" y="1170" type="curve" smooth="yes"/>
      <point x="1149" y="1170" type="line" smooth="yes"/>
      <point x="1114" y="1170"/>
      <point x="1102" y="1200"/>
      <point x="1087" y="1249" type="curve" smooth="yes"/>
      <point x="1042" y="1397" type="line"/>
      <point x="706" y="1397" type="line"/>
      <point x="775" y="1201" type="line" smooth="yes"/>
      <point x="842" y="1012"/>
      <point x="919" y="899"/>
    </contour>
    <contour>
      <point x="771" y="400" type="line"/>
      <point x="948" y="356" type="line"/>
      <point x="1302" y="385"/>
      <point x="1472" y="542"/>
      <point x="1472" y="795" type="curve" smooth="yes"/>
      <point x="1472" y="799" type="line" smooth="yes"/>
      <point x="1472" y="969"/>
      <point x="1382" y="1066"/>
      <point x="1145" y="1086" type="curve"/>
      <point x="1063" y="906" type="line"/>
      <point x="1120" y="894"/>
      <point x="1142" y="860"/>
      <point x="1142" y="795" type="curve" smooth="yes"/>
      <point x="1142" y="793" type="line" smooth="yes"/>
      <point x="1142" y="657"/>
      <point x="1035" y="578"/>
      <point x="771" y="578" type="curve" smooth="yes"/>
      <point x="519" y="578"/>
      <point x="389" y="633"/>
      <point x="374" y="753" type="curve" smooth="yes"/>
      <point x="373" y="761" type="line"/>
      <point x="388" y="761" type="line"/>
      <point x="375" y="855" type="line"/>
      <point x="375" y="874" type="line" smooth="yes"/>
      <point x="375" y="939"/>
      <point x="406" y="967"/>
      <point x="456" y="967" type="curve" smooth="yes"/>
      <point x="504" y="967"/>
      <point x="526" y="942"/>
      <point x="526" y="900" type="curve" smooth="yes"/>
      <point x="526" y="898" type="line" smooth="yes"/>
      <point x="526" y="856"/>
      <point x="505" y="834"/>
      <point x="456" y="834" type="curve" smooth="yes"/>
      <point x="414" y="834"/>
      <point x="386" y="848"/>
      <point x="367" y="884" type="curve"/>
      <point x="383" y="762" type="line"/>
      <point x="411" y="690"/>
      <point x="479" y="648"/>
      <point x="586" y="648" type="curve" smooth="yes"/>
      <point x="726" y="648"/>
      <point x="820" y="727"/>
      <point x="820" y="894" type="curve" smooth="yes"/>
      <point x="820" y="901" type="line" smooth="yes"/>
      <point x="820" y="1097"/>
      <point x="695" y="1197"/>
      <point x="456" y="1197" type="curve" smooth="yes"/>
      <point x="195" y="1197"/>
      <point x="60" y="1081"/>
      <point x="60" y="837" type="curve" smooth="yes"/>
      <point x="60" y="832" type="line" smooth="yes"/>
      <point x="60" y="556"/>
      <point x="232" y="386"/>
      <point x="591" y="356" type="curve"/>
    </contour>
    <contour>
      <point x="772" y="504" type="curve" smooth="yes"/>
      <point x="507" y="504"/>
      <point x="353" y="423"/>
      <point x="353" y="248" type="curve" smooth="yes"/>
      <point x="353" y="243" type="line" smooth="yes"/>
      <point x="353" y="63"/>
      <point x="487" y="-39"/>
      <point x="772" y="-39" type="curve" smooth="yes"/>
      <point x="1057" y="-39"/>
      <point x="1191" y="63"/>
      <point x="1191" y="243" type="curve" smooth="yes"/>
      <point x="1191" y="248" type="line" smooth="yes"/>
      <point x="1191" y="423"/>
      <point x="1036" y="504"/>
    </contour>
    <contour>
      <point x="772" y="216" type="curve" smooth="yes"/>
      <point x="696" y="216"/>
      <point x="661" y="239"/>
      <point x="661" y="288" type="curve" smooth="yes"/>
      <point x="661" y="291" type="line" smooth="yes"/>
      <point x="661" y="341"/>
      <point x="696" y="363"/>
      <point x="772" y="363" type="curve" smooth="yes"/>
      <point x="848" y="363"/>
      <point x="883" y="341"/>
      <point x="883" y="291" type="curve" smooth="yes"/>
      <point x="883" y="288" type="line" smooth="yes"/>
      <point x="883" y="239"/>
      <point x="848" y="216"/>
    </contour>
  </outline>
</glyph>
<glyph name="Llla.te" format="2">
  <advance width="1838"/>
  <unicode hex="0C34"/>
  <anchor x="917" y="-53" name="bottom"/>
  <outline>
    <contour>
      <point x="536" y="-36" type="curve" smooth="yes"/>
      <point x="763" y="-36"/>
      <point x="892" y="53"/>
      <point x="914" y="217" type="curve"/>
      <point x="924" y="217" type="line"/>
      <point x="946" y="53"/>
      <point x="1076" y="-36"/>
      <point x="1301" y="-36" type="curve" smooth="yes"/>
      <point x="1601" y="-36"/>
      <point x="1763" y="143"/>
      <point x="1763" y="492" type="curve" smooth="yes"/>
      <point x="1763" y="714" type="line" smooth="yes"/>
      <point x="1763" y="1031"/>
      <point x="1612" y="1189"/>
      <point x="1325" y="1189" type="curve" smooth="yes"/>
      <point x="1071" y="1189"/>
      <point x="945" y="1065"/>
      <point x="945" y="832" type="curve" smooth="yes"/>
      <point x="945" y="813" type="line" smooth="yes"/>
      <point x="945" y="616"/>
      <point x="1034" y="508"/>
      <point x="1200" y="508" type="curve" smooth="yes"/>
      <point x="1325" y="508"/>
      <point x="1398" y="560"/>
      <point x="1419" y="661" type="curve"/>
      <point x="1431" y="813" type="line"/>
      <point x="1413" y="766"/>
      <point x="1375" y="741"/>
      <point x="1326" y="741" type="curve" smooth="yes"/>
      <point x="1279" y="741"/>
      <point x="1254" y="771"/>
      <point x="1254" y="825" type="curve" smooth="yes"/>
      <point x="1254" y="835" type="line" smooth="yes"/>
      <point x="1254" y="892"/>
      <point x="1280" y="921"/>
      <point x="1329" y="921" type="curve" smooth="yes"/>
      <point x="1392" y="921"/>
      <point x="1421" y="877"/>
      <point x="1421" y="766" type="curve"/>
      <point x="1421" y="746" type="line"/>
      <point x="1407" y="642" type="line"/>
      <point x="1422" y="642" type="line"/>
      <point x="1423" y="632"/>
      <point x="1423" y="623"/>
      <point x="1423" y="613" type="curve" smooth="yes"/>
      <point x="1423" y="500" type="line" smooth="yes"/>
      <point x="1423" y="352"/>
      <point x="1363" y="285"/>
      <point x="1241" y="285" type="curve" smooth="yes"/>
      <point x="1138" y="285"/>
      <point x="1085" y="329"/>
      <point x="1077" y="423" type="curve" smooth="yes"/>
      <point x="1072" y="483" type="line"/>
      <point x="766" y="483" type="line"/>
      <point x="761" y="423" type="line" smooth="yes"/>
      <point x="753" y="329"/>
      <point x="700" y="285"/>
      <point x="597" y="285" type="curve" smooth="yes"/>
      <point x="475" y="285"/>
      <point x="415" y="352"/>
      <point x="415" y="500" type="curve" smooth="yes"/>
      <point x="415" y="613" type="line" smooth="yes"/>
      <point x="415" y="623"/>
      <point x="415" y="631"/>
      <point x="415" y="642" type="curve"/>
      <point x="431" y="642" type="line"/>
      <point x="417" y="746" type="line"/>
      <point x="417" y="766" type="line"/>
      <point x="417" y="877"/>
      <point x="446" y="921"/>
      <point x="509" y="921" type="curve" smooth="yes"/>
      <point x="558" y="921"/>
      <point x="584" y="892"/>
      <point x="584" y="835" type="curve" smooth="yes"/>
      <point x="584" y="825" type="line" smooth="yes"/>
      <point x="584" y="771"/>
      <point x="559" y="741"/>
      <point x="512" y="741" type="curve" smooth="yes"/>
      <point x="463" y="741"/>
      <point x="425" y="766"/>
      <point x="407" y="813" type="curve"/>
      <point x="419" y="661" type="line"/>
      <point x="440" y="560"/>
      <point x="513" y="508"/>
      <point x="638" y="508" type="curve" smooth="yes"/>
      <point x="804" y="508"/>
      <point x="893" y="616"/>
      <point x="893" y="813" type="curve" smooth="yes"/>
      <point x="893" y="832" type="line" smooth="yes"/>
      <point x="893" y="1065"/>
      <point x="766" y="1189"/>
      <point x="513" y="1189" type="curve" smooth="yes"/>
      <point x="226" y="1189"/>
      <point x="75" y="1031"/>
      <point x="75" y="714" type="curve" smooth="yes"/>
      <point x="75" y="492" type="line" smooth="yes"/>
      <point x="75" y="144"/>
      <point x="236" y="-36"/>
    </contour>
  </outline>
</glyph>
<glyph name="Va.te" format="2">
  <advance width="1552"/>
  <unicode hex="0C35"/>
  <anchor x="735" y="-53" name="bottom"/>
  <outline>
    <contour>
      <point x="420" y="-36" type="curve" smooth="yes"/>
      <point x="609" y="-36"/>
      <point x="709" y="50"/>
      <point x="730" y="198" type="curve"/>
      <point x="740" y="198" type="line"/>
      <point x="769" y="48"/>
      <point x="875" y="-36"/>
      <point x="1072" y="-36" type="curve" smooth="yes"/>
      <point x="1337" y="-36"/>
      <point x="1477" y="132"/>
      <point x="1477" y="464" type="curve" smooth="yes"/>
      <point x="1477" y="549" type="line" smooth="yes"/>
      <point x="1477" y="961"/>
      <point x="1264" y="1161"/>
      <point x="820" y="1161" type="curve" smooth="yes"/>
      <point x="690" y="1161" type="line"/>
      <point x="589" y="1088" type="line"/>
      <point x="591" y="888" type="line"/>
      <point x="794" y="888" type="line" smooth="yes"/>
      <point x="1026" y="888"/>
      <point x="1135" y="779"/>
      <point x="1135" y="550" type="curve" smooth="yes"/>
      <point x="1135" y="468" type="line" smooth="yes"/>
      <point x="1135" y="340"/>
      <point x="1088" y="280"/>
      <point x="1000" y="280" type="curve" smooth="yes"/>
      <point x="917" y="280"/>
      <point x="871" y="324"/>
      <point x="856" y="422" type="curve" smooth="yes"/>
      <point x="854" y="435" type="line" smooth="yes"/>
      <point x="822" y="646"/>
      <point x="688" y="756"/>
      <point x="461" y="756" type="curve" smooth="yes"/>
      <point x="202" y="756"/>
      <point x="60" y="616"/>
      <point x="60" y="367" type="curve" smooth="yes"/>
      <point x="60" y="342" type="line" smooth="yes"/>
      <point x="60" y="95"/>
      <point x="185" y="-36"/>
    </contour>
    <contour>
      <point x="463" y="271" type="curve" smooth="yes"/>
      <point x="404" y="271"/>
      <point x="375" y="303"/>
      <point x="375" y="362" type="curve" smooth="yes"/>
      <point x="375" y="373" type="line" smooth="yes"/>
      <point x="375" y="433"/>
      <point x="404" y="464"/>
      <point x="463" y="464" type="curve" smooth="yes"/>
      <point x="523" y="464"/>
      <point x="552" y="433"/>
      <point x="552" y="373" type="curve" smooth="yes"/>
      <point x="552" y="362" type="line" smooth="yes"/>
      <point x="552" y="303"/>
      <point x="523" y="271"/>
    </contour>
    <contour>
      <point x="591" y="888" type="curve"/>
      <point x="708" y="1051" type="line"/>
      <point x="886" y="1051"/>
      <point x="960" y="1115"/>
      <point x="1021" y="1196" type="curve" smooth="yes"/>
      <point x="1080" y="1274" type="line" smooth="yes"/>
      <point x="1115" y="1321"/>
      <point x="1159" y="1345"/>
      <point x="1226" y="1345" type="curve" smooth="yes"/>
      <point x="1328" y="1345" type="line"/>
      <point x="1301" y="1644" type="line"/>
      <point x="1179" y="1644" type="line" smooth="yes"/>
      <point x="1041" y="1644"/>
      <point x="946" y="1597"/>
      <point x="863" y="1479" type="curve" smooth="yes"/>
      <point x="696" y="1242" type="line" smooth="yes"/>
      <point x="659" y="1189"/>
      <point x="635" y="1170"/>
      <point x="600" y="1170" type="curve" smooth="yes"/>
      <point x="596" y="1170" type="line" smooth="yes"/>
      <point x="555" y="1170"/>
      <point x="536" y="1193"/>
      <point x="519" y="1249" type="curve" smooth="yes"/>
      <point x="475" y="1397" type="line"/>
      <point x="126" y="1397" type="line"/>
      <point x="175" y="1239" type="line" smooth="yes"/>
      <point x="247" y="1007"/>
      <point x="332" y="888"/>
    </contour>
  </outline>
</glyph>
<glyph name="Ssa.te" format="2">
  <advance width="1568"/>
  <unicode hex="0C37"/>
  <anchor x="750" y="-53" name="bottom"/>
  <outline>
    <contour>
      <point x="420" y="-36" type="curve" smooth="yes"/>
      <point x="609" y="-36"/>
      <point x="709" y="50"/>
      <point x="730" y="198" type="curve"/>
      <point x="740" y="198" type="line"/>
      <point x="769" y="48"/>
      <point x="876" y="-36"/>
      <point x="1062" y="-36" type="curve" smooth="yes"/>
      <point x="1249" y="-36"/>
      <point x="1369" y="66"/>
      <point x="1409" y="246" type="curve" smooth="yes"/>
      <point x="1448" y="308"/>
      <point x="1485" y="377"/>
      <point x="1485" y="463" type="curve" smooth="yes"/>
      <point x="1485" y="576" type="line"/>
      <point x="1143" y="576" type="line"/>
      <point x="1143" y="472" type="line" smooth="yes"/>
      <point x="1143" y="341"/>
      <point x="1095" y="280"/>
      <point x="1003" y="280" type="curve" smooth="yes"/>
      <point x="919" y="280"/>
      <point x="871" y="324"/>
      <point x="856" y="422" type="curve" smooth="yes"/>
      <point x="854" y="435" type="line" smooth="yes"/>
      <point x="822" y="646"/>
      <point x="688" y="756"/>
      <point x="461" y="756" type="curve" smooth="yes"/>
      <point x="202" y="756"/>
      <point x="60" y="616"/>
      <point x="60" y="367" type="curve" smooth="yes"/>
      <point x="60" y="342" type="line" smooth="yes"/>
      <point x="60" y="95"/>
      <point x="185" y="-36"/>
    </contour>
    <contour>
      <point x="463" y="271" type="curve" smooth="yes"/>
      <point x="404" y="271"/>
      <point x="375" y="303"/>
      <point x="375" y="362" type="curve" smooth="yes"/>
      <point x="375" y="373" type="line" smooth="yes"/>
      <point x="375" y="433"/>
      <point x="404" y="464"/>
      <point x="463" y="464" type="curve" smooth="yes"/>
      <point x="523" y="464"/>
      <point x="552" y="433"/>
      <point x="552" y="373" type="curve" smooth="yes"/>
      <point x="552" y="362" type="line" smooth="yes"/>
      <point x="552" y="303"/>
      <point x="523" y="271"/>
    </contour>
    <contour>
      <point x="1332" y="-246" type="curve"/>
      <point x="1654" y="-246" type="line"/>
      <point x="1543" y="-27"/>
      <point x="1485" y="145"/>
      <point x="1485" y="375" type="curve"/>
      <point x="1485" y="484" type="line"/>
      <point x="1262" y="384" type="line"/>
      <point x="1262" y="299" type="line"/>
      <point x="1262" y="83"/>
      <point x="1284" y="-80"/>
    </contour>
    <contour>
      <point x="472" y="884" type="curve" smooth="yes"/>
      <point x="488" y="884" type="line" smooth="yes"/>
      <point x="653" y="884"/>
      <point x="748" y="971"/>
      <point x="861" y="1121" type="curve" smooth="yes"/>
      <point x="974" y="1271" type="line" smooth="yes"/>
      <point x="1017" y="1328"/>
      <point x="1067" y="1342"/>
      <point x="1122" y="1342" type="curve" smooth="yes"/>
      <point x="1274" y="1342" type="line"/>
      <point x="1248" y="1641" type="line"/>
      <point x="1075" y="1641" type="line" smooth="yes"/>
      <point x="925" y="1641"/>
      <point x="838" y="1587"/>
      <point x="758" y="1478" type="curve" smooth="yes"/>
      <point x="585" y="1241" type="line" smooth="yes"/>
      <point x="550" y="1193"/>
      <point x="528" y="1170"/>
      <point x="493" y="1170" type="curve" smooth="yes"/>
      <point x="489" y="1170" type="line" smooth="yes"/>
      <point x="451" y="1170"/>
      <point x="433" y="1193"/>
      <point x="416" y="1249" type="curve" smooth="yes"/>
      <point x="372" y="1397" type="line"/>
      <point x="26" y="1397" type="line"/>
      <point x="94" y="1201" type="line" smooth="yes"/>
      <point x="171" y="978"/>
      <point x="276" y="884"/>
    </contour>
    <contour>
      <point x="1143" y="541" type="line"/>
      <point x="1485" y="541" type="line"/>
      <point x="1485" y="635" type="line" smooth="yes"/>
      <point x="1485" y="982"/>
      <point x="1318" y="1170"/>
      <point x="993" y="1170" type="curve" smooth="yes"/>
      <point x="973" y="1170" type="line"/>
      <point x="920" y="870" type="line"/>
      <point x="928" y="870" type="line"/>
      <point x="1072" y="870"/>
      <point x="1143" y="791"/>
      <point x="1143" y="632" type="curve" smooth="yes"/>
    </contour>
  </outline>
</glyph>
<glyph name="Sa.te" format="2">
  <advance width="1551"/>
  <unicode hex="0C38"/>
  <anchor x="754" y="-53" name="bottom"/>
  <outline>
    <contour>
      <point x="1025" y="-33" type="curve" smooth="yes"/>
      <point x="1318" y="-33"/>
      <point x="1476" y="138"/>
      <point x="1476" y="465" type="curve" smooth="yes"/>
      <point x="1476" y="576" type="line"/>
      <point x="1134" y="576" type="line"/>
      <point x="1134" y="463" type="line" smooth="yes"/>
      <point x="1134" y="339"/>
      <point x="1095" y="281"/>
      <point x="1016" y="281" type="curve" smooth="yes"/>
      <point x="950" y="281"/>
      <point x="911" y="315"/>
      <point x="891" y="391" type="curve" smooth="yes"/>
      <point x="872" y="464" type="line" smooth="yes"/>
      <point x="826" y="642"/>
      <point x="709" y="756"/>
      <point x="466" y="756" type="curve" smooth="yes"/>
      <point x="200" y="756"/>
      <point x="60" y="613"/>
      <point x="60" y="329" type="curve" smooth="yes"/>
      <point x="60" y="288" type="line" smooth="yes"/>
      <point x="60" y="183"/>
      <point x="72" y="86"/>
      <point x="107" y="-3" type="curve"/>
      <point x="451" y="-3" type="line"/>
      <point x="414" y="101"/>
      <point x="403" y="194"/>
      <point x="403" y="283" type="curve" smooth="yes"/>
      <point x="403" y="319" type="line" smooth="yes"/>
      <point x="403" y="412"/>
      <point x="430" y="453"/>
      <point x="483" y="453" type="curve" smooth="yes"/>
      <point x="539" y="453"/>
      <point x="562" y="417"/>
      <point x="585" y="330" type="curve" smooth="yes"/>
      <point x="605" y="253" type="line" smooth="yes"/>
      <point x="650" y="78"/>
      <point x="767" y="-33"/>
    </contour>
    <contour>
      <point x="472" y="884" type="curve" smooth="yes"/>
      <point x="488" y="884" type="line" smooth="yes"/>
      <point x="650" y="884"/>
      <point x="745" y="967"/>
      <point x="861" y="1121" type="curve" smooth="yes"/>
      <point x="974" y="1271" type="line" smooth="yes"/>
      <point x="1016" y="1327"/>
      <point x="1066" y="1342"/>
      <point x="1122" y="1342" type="curve" smooth="yes"/>
      <point x="1274" y="1342" type="line"/>
      <point x="1248" y="1641" type="line"/>
      <point x="1075" y="1641" type="line" smooth="yes"/>
      <point x="925" y="1641"/>
      <point x="837" y="1586"/>
      <point x="758" y="1478" type="curve" smooth="yes"/>
      <point x="585" y="1241" type="line" smooth="yes"/>
      <point x="550" y="1193"/>
      <point x="527" y="1170"/>
      <point x="493" y="1170" type="curve" smooth="yes"/>
      <point x="489" y="1170" type="line" smooth="yes"/>
      <point x="451" y="1170"/>
      <point x="433" y="1193"/>
      <point x="416" y="1249" type="curve" smooth="yes"/>
      <point x="372" y="1397" type="line"/>
      <point x="26" y="1397" type="line"/>
      <point x="93" y="1201" type="line" smooth="yes"/>
      <point x="166" y="988"/>
      <point x="267" y="884"/>
    </contour>
    <contour>
      <point x="1134" y="541" type="line"/>
      <point x="1476" y="541" type="line"/>
      <point x="1476" y="635" type="line" smooth="yes"/>
      <point x="1476" y="983"/>
      <point x="1312" y="1170"/>
      <point x="993" y="1170" type="curve" smooth="yes"/>
      <point x="973" y="1170" type="line"/>
      <point x="920" y="870" type="line"/>
      <point x="928" y="870" type="line"/>
      <point x="1067" y="870"/>
      <point x="1134" y="792"/>
      <point x="1134" y="632" type="curve" smooth="yes"/>
    </contour>
  </outline>
</glyph>
<glyph name="Avagraha.te" format="2">
  <advance width="1344"/>
  <unicode hex="0C3D"/>
  <outline>
    <contour>
      <point x="492" y="0" type="curve" smooth="yes"/>
      <point x="1289" y="0" type="line"/>
      <point x="1289" y="302" type="line"/>
      <point x="490" y="302" type="line" smooth="yes"/>
      <point x="426" y="302"/>
      <point x="401" y="316"/>
      <point x="401" y="346" type="curve" smooth="yes"/>
      <point x="401" y="348" type="line" smooth="yes"/>
      <point x="401" y="386"/>
      <point x="443" y="401"/>
      <point x="659" y="448" type="curve" smooth="yes"/>
      <point x="1041" y="531"/>
      <point x="1117" y="630"/>
      <point x="1117" y="813" type="curve" smooth="yes"/>
      <point x="1117" y="818" type="line" smooth="yes"/>
      <point x="1117" y="1050"/>
      <point x="927" y="1163"/>
      <point x="606" y="1163" type="curve" smooth="yes"/>
      <point x="241" y="1163"/>
      <point x="98" y="1041"/>
      <point x="98" y="834" type="curve" smooth="yes"/>
      <point x="98" y="829" type="line" smooth="yes"/>
      <point x="98" y="798"/>
      <point x="100" y="770"/>
      <point x="107" y="734" type="curve"/>
      <point x="429" y="734" type="line"/>
      <point x="425" y="756"/>
      <point x="424" y="774"/>
      <point x="424" y="789" type="curve" smooth="yes"/>
      <point x="424" y="793" type="line" smooth="yes"/>
      <point x="424" y="848"/>
      <point x="464" y="882"/>
      <point x="605" y="882" type="curve" smooth="yes"/>
      <point x="741" y="882"/>
      <point x="781" y="856"/>
      <point x="781" y="805" type="curve" smooth="yes"/>
      <point x="781" y="802" type="line" smooth="yes"/>
      <point x="781" y="748"/>
      <point x="756" y="728"/>
      <point x="520" y="678" type="curve" smooth="yes"/>
      <point x="175" y="605"/>
      <point x="65" y="513"/>
      <point x="65" y="320" type="curve" smooth="yes"/>
      <point x="65" y="317" type="line" smooth="yes"/>
      <point x="65" y="123"/>
      <point x="197" y="0"/>
    </contour>
  </outline>
</glyph>
<glyph name="matraAa.te" format="2">
  <advance width="1100"/>
  <unicode hex="0C3E"/>
  <outline>
    <contour>
      <point x="620" y="112" type="curve" smooth="yes"/>
      <point x="886" y="112"/>
      <point x="1025" y="262"/>
      <point x="1025" y="546" type="curve" smooth="yes"/>
      <point x="1025" y="614" type="line" smooth="yes"/>
      <point x="1025" y="968"/>
      <point x="821" y="1170"/>
      <point x="428" y="1170" type="curve" smooth="yes"/>
      <point x="-401" y="1170" type="line"/>
      <point x="-402" y="890" type="line"/>
      <point x="423" y="890" type="line" smooth="yes"/>
      <point x="616" y="890"/>
      <point x="712" y="805"/>
      <point x="712" y="667" type="curve" smooth="yes"/>
      <point x="712" y="662" type="line"/>
      <point x="688" y="662" type="line"/>
      <point x="708" y="537" type="line"/>
      <point x="708" y="498" type="line"/>
      <point x="708" y="424"/>
      <point x="679" y="387"/>
      <point x="622" y="387" type="curve" smooth="yes"/>
      <point x="577" y="387"/>
      <point x="545" y="415"/>
      <point x="545" y="468" type="curve" smooth="yes"/>
      <point x="545" y="479" type="line" smooth="yes"/>
      <point x="545" y="532"/>
      <point x="576" y="559"/>
      <point x="620" y="559" type="curve" smooth="yes"/>
      <point x="663" y="559"/>
      <point x="696" y="540"/>
      <point x="713" y="503" type="curve"/>
      <point x="705" y="647" type="line"/>
      <point x="685" y="737"/>
      <point x="619" y="797"/>
      <point x="496" y="797" type="curve" smooth="yes"/>
      <point x="327" y="797"/>
      <point x="232" y="688"/>
      <point x="232" y="484" type="curve" smooth="yes"/>
      <point x="232" y="470" type="line" smooth="yes"/>
      <point x="232" y="240"/>
      <point x="364" y="112"/>
    </contour>
  </outline>
</glyph>
<glyph name="matraI.te" format="2">
  <unicode hex="0C3F"/>
  <outline>
    <contour>
      <point x="-587" y="917" type="curve" smooth="yes"/>
      <point x="-279" y="917"/>
      <point x="-121" y="1064"/>
      <point x="-121" y="1341" type="curve" smooth="yes"/>
      <point x="-121" y="1401" type="line" smooth="yes"/>
      <point x="-121" y="1629"/>
      <point x="-258" y="1762"/>
      <point x="-545" y="1762" type="curve" smooth="yes"/>
      <point x="-806" y="1762"/>
      <point x="-934" y="1663"/>
      <point x="-934" y="1469" type="curve" smooth="yes"/>
      <point x="-934" y="1465" type="line" smooth="yes"/>
      <point x="-934" y="1309"/>
      <point x="-830" y="1223"/>
      <point x="-656" y="1223" type="curve" smooth="yes"/>
      <point x="-507" y="1223"/>
      <point x="-447" y="1275"/>
      <point x="-426" y="1355" type="curve"/>
      <point x="-423" y="1477" type="line"/>
      <point x="-443" y="1434"/>
      <point x="-482" y="1417"/>
      <point x="-540" y="1417" type="curve" smooth="yes"/>
      <point x="-602" y="1417"/>
      <point x="-632" y="1432"/>
      <point x="-632" y="1470" type="curve"/>
      <point x="-632" y="1472" type="line"/>
      <point x="-632" y="1510"/>
      <point x="-602" y="1528"/>
      <point x="-539" y="1528" type="curve" smooth="yes"/>
      <point x="-463" y="1528"/>
      <point x="-429" y="1499"/>
      <point x="-429" y="1430" type="curve" smooth="yes"/>
      <point x="-429" y="1390" type="line"/>
      <point x="-432" y="1353" type="line"/>
      <point x="-417" y="1353" type="line"/>
      <point x="-417" y="1350" type="line" smooth="yes"/>
      <point x="-417" y="1222"/>
      <point x="-490" y="1157"/>
      <point x="-633" y="1157" type="curve" smooth="yes"/>
      <point x="-713" y="1157"/>
      <point x="-813" y="1169"/>
      <point x="-908" y="1206" type="curve"/>
      <point x="-874" y="964" type="line"/>
      <point x="-787" y="933"/>
      <point x="-684" y="917"/>
    </contour>
  </outline>
</glyph>
<glyph name="matraU.te" format="2">
  <advance width="735"/>
  <unicode hex="0C41"/>
  <outline>
    <contour>
      <point x="235" y="-36" type="curve" smooth="yes"/>
      <point x="512" y="-36"/>
      <point x="660" y="138"/>
      <point x="660" y="465" type="curve" smooth="yes"/>
      <point x="660" y="564" type="line"/>
      <point x="318" y="562" type="line"/>
      <point x="318" y="484" type="line" smooth="yes"/>
      <point x="318" y="348"/>
      <point x="258" y="279"/>
      <point x="143" y="279" type="curve" smooth="yes"/>
      <point x="27" y="279"/>
      <point x="-35" y="342"/>
      <point x="-35" y="463" type="curve" smooth="yes"/>
      <point x="-35" y="506" type="line"/>
      <point x="-136" y="506" type="line"/>
      <point x="-136" y="305" type="line" smooth="yes"/>
      <point x="-136" y="91"/>
      <point x="0" y="-36"/>
    </contour>
    <component base="Terminals.te" xOffset="63"/>
  </outline>
</glyph>
<glyph name="matraUu.te" format="2">
  <advance width="1653"/>
  <unicode hex="0C42"/>
  <outline>
    <contour>
      <point x="239" y="-36" type="curve" smooth="yes"/>
      <point x="516" y="-36"/>
      <point x="664" y="138"/>
      <point x="664" y="465" type="curve" smooth="yes"/>
      <point x="664" y="541" type="line"/>
      <point x="322" y="562" type="line"/>
      <point x="322" y="484" type="line" smooth="yes"/>
      <point x="322" y="348"/>
      <point x="262" y="279"/>
      <point x="147" y="279" type="curve" smooth="yes"/>
      <point x="31" y="279"/>
      <point x="-31" y="342"/>
      <point x="-31" y="463" type="curve" smooth="yes"/>
      <point x="-31" y="506" type="line"/>
      <point x="-132" y="506" type="line"/>
      <point x="-132" y="305" type="line" smooth="yes"/>
      <point x="-132" y="91"/>
      <point x="4" y="-36"/>
    </contour>
    <contour>
      <point x="322" y="539" type="line"/>
      <point x="664" y="522" type="line"/>
      <point x="664" y="597" type="line" smooth="yes"/>
      <point x="664" y="867"/>
      <point x="502" y="1018"/>
      <point x="174" y="1041" type="curve"/>
      <point x="136" y="1170" type="line"/>
      <point x="92" y="870" type="line"/>
      <point x="101" y="870" type="line"/>
      <point x="250" y="870"/>
      <point x="322" y="791"/>
      <point x="322" y="630" type="curve" smooth="yes"/>
    </contour>
    <contour>
      <point x="1174" y="112" type="curve" smooth="yes"/>
      <point x="1439" y="112"/>
      <point x="1578" y="261"/>
      <point x="1578" y="543" type="curve" smooth="yes"/>
      <point x="1578" y="614" type="line" smooth="yes"/>
      <point x="1578" y="968"/>
      <point x="1374" y="1170"/>
      <point x="981" y="1170" type="curve" smooth="yes"/>
      <point x="136" y="1170" type="line"/>
      <point x="149" y="929" type="line"/>
      <point x="665" y="890" type="line"/>
      <point x="976" y="890" type="line" smooth="yes"/>
      <point x="1169" y="890"/>
      <point x="1265" y="805"/>
      <point x="1265" y="667" type="curve" smooth="yes"/>
      <point x="1265" y="662" type="line"/>
      <point x="1241" y="662" type="line"/>
      <point x="1261" y="537" type="line"/>
      <point x="1261" y="495" type="line" smooth="yes"/>
      <point x="1261" y="423"/>
      <point x="1232" y="387"/>
      <point x="1175" y="387" type="curve" smooth="yes"/>
      <point x="1130" y="387"/>
      <point x="1098" y="415"/>
      <point x="1098" y="468" type="curve" smooth="yes"/>
      <point x="1098" y="477" type="line" smooth="yes"/>
      <point x="1098" y="531"/>
      <point x="1129" y="559"/>
      <point x="1173" y="559" type="curve" smooth="yes"/>
      <point x="1216" y="559"/>
      <point x="1249" y="540"/>
      <point x="1266" y="503" type="curve"/>
      <point x="1258" y="647" type="line"/>
      <point x="1238" y="737"/>
      <point x="1172" y="797"/>
      <point x="1049" y="797" type="curve" smooth="yes"/>
      <point x="883" y="797"/>
      <point x="785" y="688"/>
      <point x="785" y="482" type="curve" smooth="yes"/>
      <point x="785" y="470" type="line" smooth="yes"/>
      <point x="785" y="240"/>
      <point x="917" y="112"/>
    </contour>
  </outline>
</glyph>
<glyph name="matraVocalicR.te" format="2">
  <advance width="425"/>
  <unicode hex="0C43"/>
  <outline>
    <contour>
      <point x="2" y="-729" type="curve" smooth="yes"/>
      <point x="307" y="-729"/>
      <point x="448" y="-564"/>
      <point x="448" y="-251" type="curve" smooth="yes"/>
      <point x="448" y="53" type="line" smooth="yes"/>
      <point x="448" y="388"/>
      <point x="304" y="558"/>
      <point x="56" y="564" type="curve"/>
      <point x="23" y="354" type="line"/>
      <point x="153" y="349"/>
      <point x="217" y="249"/>
      <point x="217" y="43" type="curve" smooth="yes"/>
      <point x="217" y="-247" type="line" smooth="yes"/>
      <point x="217" y="-440"/>
      <point x="155" y="-539"/>
      <point x="-7" y="-539" type="curve" smooth="yes"/>
      <point x="-128" y="-539"/>
      <point x="-198" y="-492"/>
      <point x="-204" y="-423" type="curve"/>
      <point x="-204" y="-422" type="line"/>
      <point x="-191" y="-422" type="line"/>
      <point x="-201" y="-365" type="line"/>
      <point x="-201" y="-338" type="line" smooth="yes"/>
      <point x="-201" y="-288"/>
      <point x="-180" y="-264"/>
      <point x="-143" y="-264" type="curve" smooth="yes"/>
      <point x="-110" y="-264"/>
      <point x="-93" y="-283"/>
      <point x="-93" y="-310" type="curve" smooth="yes"/>
      <point x="-93" y="-314" type="line" smooth="yes"/>
      <point x="-93" y="-344"/>
      <point x="-109" y="-360"/>
      <point x="-142" y="-360" type="curve" smooth="yes"/>
      <point x="-167" y="-360"/>
      <point x="-192" y="-349"/>
      <point x="-210" y="-320" type="curve"/>
      <point x="-202" y="-411" type="line"/>
      <point x="-184" y="-458"/>
      <point x="-137" y="-486"/>
      <point x="-62" y="-486" type="curve" smooth="yes"/>
      <point x="48" y="-486"/>
      <point x="108" y="-427"/>
      <point x="108" y="-316" type="curve" smooth="yes"/>
      <point x="108" y="-311" type="line" smooth="yes"/>
      <point x="108" y="-179"/>
      <point x="26" y="-104"/>
      <point x="-135" y="-104" type="curve" smooth="yes"/>
      <point x="-318" y="-104"/>
      <point x="-411" y="-201"/>
      <point x="-411" y="-378" type="curve" smooth="yes"/>
      <point x="-411" y="-386" type="line" smooth="yes"/>
      <point x="-411" y="-605"/>
      <point x="-264" y="-729"/>
    </contour>
  </outline>
</glyph>
<glyph name="matraVocalicRr.te" format="2">
  <advance width="1035"/>
  <unicode hex="0C44"/>
  <outline>
    <contour>
      <point x="2" y="-729" type="curve" smooth="yes"/>
      <point x="307" y="-729"/>
      <point x="448" y="-565"/>
      <point x="448" y="-251" type="curve" smooth="yes"/>
      <point x="448" y="38" type="line" smooth="yes"/>
      <point x="448" y="318"/>
      <point x="337" y="462"/>
      <point x="84" y="497" type="curve"/>
      <point x="56" y="564" type="line"/>
      <point x="23" y="356" type="line"/>
      <point x="153" y="351"/>
      <point x="217" y="248"/>
      <point x="217" y="38" type="curve" smooth="yes"/>
      <point x="217" y="-247" type="line" smooth="yes"/>
      <point x="217" y="-440"/>
      <point x="155" y="-539"/>
      <point x="-7" y="-539" type="curve" smooth="yes"/>
      <point x="-128" y="-539"/>
      <point x="-198" y="-492"/>
      <point x="-204" y="-423" type="curve"/>
      <point x="-204" y="-422" type="line"/>
      <point x="-191" y="-422" type="line"/>
      <point x="-201" y="-365" type="line"/>
      <point x="-201" y="-338" type="line"/>
      <point x="-201" y="-288"/>
      <point x="-180" y="-264"/>
      <point x="-143" y="-264" type="curve" smooth="yes"/>
      <point x="-110" y="-264"/>
      <point x="-93" y="-283"/>
      <point x="-93" y="-310" type="curve"/>
      <point x="-93" y="-314" type="line"/>
      <point x="-93" y="-344"/>
      <point x="-109" y="-360"/>
      <point x="-142" y="-360" type="curve" smooth="yes"/>
      <point x="-167" y="-360"/>
      <point x="-192" y="-349"/>
      <point x="-210" y="-320" type="curve"/>
      <point x="-202" y="-411" type="line"/>
      <point x="-184" y="-458"/>
      <point x="-137" y="-486"/>
      <point x="-62" y="-486" type="curve" smooth="yes"/>
      <point x="50" y="-486"/>
      <point x="108" y="-427"/>
      <point x="108" y="-316" type="curve" smooth="yes"/>
      <point x="108" y="-311" type="line" smooth="yes"/>
      <point x="108" y="-179"/>
      <point x="26" y="-104"/>
      <point x="-135" y="-104" type="curve" smooth="yes"/>
      <point x="-318" y="-104"/>
      <point x="-411" y="-201"/>
      <point x="-411" y="-378" type="curve" smooth="yes"/>
      <point x="-411" y="-386" type="line" smooth="yes"/>
      <point x="-411" y="-605"/>
      <point x="-264" y="-729"/>
    </contour>
    <contour>
      <point x="762" y="-98" type="curve" smooth="yes"/>
      <point x="935" y="-98"/>
      <point x="1021" y="8"/>
      <point x="1021" y="168" type="curve" smooth="yes"/>
      <point x="1021" y="223" type="line" smooth="yes"/>
      <point x="1021" y="446"/>
      <point x="892" y="564"/>
      <point x="650" y="564" type="curve" smooth="yes"/>
      <point x="56" y="564" type="line"/>
      <point x="55" y="397" type="line"/>
      <point x="460" y="379" type="line"/>
      <point x="648" y="379" type="line" smooth="yes"/>
      <point x="770" y="379"/>
      <point x="821" y="334"/>
      <point x="821" y="237" type="curve"/>
      <point x="821" y="234" type="line"/>
      <point x="812" y="234" type="line"/>
      <point x="817" y="157" type="line"/>
      <point x="817" y="134" type="line"/>
      <point x="817" y="91"/>
      <point x="800" y="70"/>
      <point x="765" y="70" type="curve" smooth="yes"/>
      <point x="734" y="70"/>
      <point x="716" y="89"/>
      <point x="716" y="119" type="curve" smooth="yes"/>
      <point x="716" y="122" type="line" smooth="yes"/>
      <point x="716" y="155"/>
      <point x="734" y="172"/>
      <point x="765" y="172" type="curve" smooth="yes"/>
      <point x="791" y="172"/>
      <point x="807" y="160"/>
      <point x="822" y="140" type="curve"/>
      <point x="819" y="228" type="line"/>
      <point x="805" y="284"/>
      <point x="761" y="322"/>
      <point x="684" y="322" type="curve" smooth="yes"/>
      <point x="574" y="322"/>
      <point x="515" y="245"/>
      <point x="515" y="128" type="curve" smooth="yes"/>
      <point x="515" y="124" type="line" smooth="yes"/>
      <point x="515" y="-5"/>
      <point x="599" y="-98"/>
    </contour>
  </outline>
</glyph>
<glyph name="matraE.te" format="2">
  <unicode hex="0C46"/>
  <outline>
    <contour>
      <point x="-386" y="1578" type="curve" smooth="yes"/>
      <point x="-874" y="1578" type="line"/>
      <point x="-913" y="1303" type="line"/>
      <point x="-406" y="1303" type="line" smooth="yes"/>
      <point x="-343" y="1303"/>
      <point x="-312" y="1282"/>
      <point x="-312" y="1236" type="curve" smooth="yes"/>
      <point x="-312" y="1190"/>
      <point x="-343" y="1170"/>
      <point x="-406" y="1170" type="curve" smooth="yes"/>
      <point x="-642" y="1170" type="line"/>
      <point x="-642" y="906" type="line"/>
      <point x="-383" y="906" type="line" smooth="yes"/>
      <point x="-130" y="906"/>
      <point x="0" y="1020"/>
      <point x="0" y="1240" type="curve" smooth="yes"/>
      <point x="0" y="1464"/>
      <point x="-129" y="1578"/>
    </contour>
  </outline>
</glyph>
<glyph name="matraO.te" format="2">
  <advance width="993"/>
  <unicode hex="0C4A"/>
  <outline>
    <contour>
      <point x="537" y="414" type="curve" smooth="yes"/>
      <point x="804" y="414"/>
      <point x="945" y="566"/>
      <point x="945" y="872" type="curve" smooth="yes"/>
      <point x="945" y="995" type="line" smooth="yes"/>
      <point x="945" y="1304"/>
      <point x="780" y="1516"/>
      <point x="428" y="1516" type="curve" smooth="yes"/>
      <point x="241" y="1516"/>
      <point x="107" y="1450"/>
      <point x="63" y="1328" type="curve"/>
      <point x="57" y="1328" type="line"/>
      <point x="16" y="1496"/>
      <point x="-154" y="1592"/>
      <point x="-418" y="1592" type="curve" smooth="yes"/>
      <point x="-496" y="1592" type="line" smooth="yes"/>
      <point x="-821" y="1592"/>
      <point x="-981" y="1491"/>
      <point x="-981" y="1291" type="curve" smooth="yes"/>
      <point x="-981" y="1126"/>
      <point x="-844" y="1041"/>
      <point x="-609" y="1041" type="curve" smooth="yes"/>
      <point x="-493" y="1041" type="line"/>
      <point x="-471" y="1170" type="line"/>
      <point x="-554" y="1170" type="line" smooth="yes"/>
      <point x="-622" y="1170"/>
      <point x="-658" y="1190"/>
      <point x="-658" y="1232" type="curve" smooth="yes"/>
      <point x="-658" y="1287"/>
      <point x="-608" y="1314"/>
      <point x="-477" y="1314" type="curve" smooth="yes"/>
      <point x="-399" y="1314" type="line" smooth="yes"/>
      <point x="-220" y="1314"/>
      <point x="-116" y="1246"/>
      <point x="-107" y="1125" type="curve" smooth="yes"/>
      <point x="-104" y="1083" type="line"/>
      <point x="196" y="1083" type="line"/>
      <point x="198" y="1103" type="line" smooth="yes"/>
      <point x="206" y="1179"/>
      <point x="267" y="1233"/>
      <point x="398" y="1233" type="curve" smooth="yes"/>
      <point x="548" y="1233"/>
      <point x="629" y="1157"/>
      <point x="629" y="1009" type="curve" smooth="yes"/>
      <point x="629" y="958" type="line"/>
      <point x="606" y="958" type="line"/>
      <point x="625" y="843" type="line"/>
      <point x="625" y="798" type="line" smooth="yes"/>
      <point x="625" y="723"/>
      <point x="598" y="689"/>
      <point x="541" y="689" type="curve" smooth="yes"/>
      <point x="489" y="689"/>
      <point x="464" y="714"/>
      <point x="464" y="770" type="curve" smooth="yes"/>
      <point x="464" y="775" type="line" smooth="yes"/>
      <point x="464" y="830"/>
      <point x="491" y="858"/>
      <point x="539" y="858" type="curve" smooth="yes"/>
      <point x="580" y="858"/>
      <point x="612" y="841"/>
      <point x="630" y="809" type="curve"/>
      <point x="620" y="954" type="line"/>
      <point x="598" y="1035"/>
      <point x="534" y="1092"/>
      <point x="414" y="1092" type="curve" smooth="yes"/>
      <point x="244" y="1092"/>
      <point x="149" y="986"/>
      <point x="149" y="784" type="curve" smooth="yes"/>
      <point x="149" y="767" type="line" smooth="yes"/>
      <point x="149" y="536"/>
      <point x="282" y="414"/>
    </contour>
  </outline>
</glyph>
<glyph name="matraAu.te" format="2">
  <advance width="1057"/>
  <unicode hex="0C4C"/>
  <outline>
    <contour>
      <point x="611" y="533" type="curve" smooth="yes"/>
      <point x="878" y="533"/>
      <point x="1019" y="685"/>
      <point x="1019" y="991" type="curve" smooth="yes"/>
      <point x="1019" y="1028" type="line" smooth="yes"/>
      <point x="1019" y="1377"/>
      <point x="813" y="1575"/>
      <point x="417" y="1575" type="curve" smooth="yes"/>
      <point x="-840" y="1575" type="line"/>
      <point x="-879" y="1304" type="line"/>
      <point x="-120" y="1304" type="line"/>
      <point x="-66" y="1314" type="line"/>
      <point x="180" y="1304" type="line"/>
      <point x="412" y="1304" type="line" smooth="yes"/>
      <point x="606" y="1304"/>
      <point x="703" y="1220"/>
      <point x="703" y="1083" type="curve" smooth="yes"/>
      <point x="703" y="1077" type="line"/>
      <point x="680" y="1077" type="line"/>
      <point x="699" y="962" type="line"/>
      <point x="699" y="917" type="line" smooth="yes"/>
      <point x="699" y="842"/>
      <point x="672" y="808"/>
      <point x="615" y="808" type="curve" smooth="yes"/>
      <point x="563" y="808"/>
      <point x="538" y="833"/>
      <point x="538" y="889" type="curve" smooth="yes"/>
      <point x="538" y="894" type="line" smooth="yes"/>
      <point x="538" y="949"/>
      <point x="565" y="977"/>
      <point x="613" y="977" type="curve" smooth="yes"/>
      <point x="654" y="977"/>
      <point x="686" y="960"/>
      <point x="704" y="928" type="curve"/>
      <point x="694" y="1073" type="line"/>
      <point x="672" y="1154"/>
      <point x="608" y="1211"/>
      <point x="488" y="1211" type="curve" smooth="yes"/>
      <point x="318" y="1211"/>
      <point x="223" y="1105"/>
      <point x="223" y="903" type="curve" smooth="yes"/>
      <point x="223" y="886" type="line" smooth="yes"/>
      <point x="223" y="655"/>
      <point x="356" y="533"/>
    </contour>
    <contour>
      <point x="-467" y="1014" type="line"/>
      <point x="-294" y="1014" type="line" smooth="yes"/>
      <point x="-57" y="1014"/>
      <point x="75" y="1081"/>
      <point x="75" y="1225" type="curve" smooth="yes"/>
      <point x="75" y="1375"/>
      <point x="-56" y="1448"/>
      <point x="-297" y="1448" type="curve" smooth="yes"/>
      <point x="-412" y="1448" type="line"/>
      <point x="-471" y="1304" type="line"/>
      <point x="-324" y="1304" type="line" smooth="yes"/>
      <point x="-260" y="1304"/>
      <point x="-229" y="1283"/>
      <point x="-229" y="1237" type="curve" smooth="yes"/>
      <point x="-229" y="1191"/>
      <point x="-260" y="1170"/>
      <point x="-324" y="1170" type="curve" smooth="yes"/>
      <point x="-467" y="1170" type="line"/>
    </contour>
  </outline>
</glyph>
<glyph name="Halant.te" format="2">
  <unicode hex="0C4D"/>
  <outline>
    <contour>
      <point x="-574" y="909" type="curve" smooth="yes"/>
      <point x="-359" y="909" type="line"/>
      <point x="-359" y="1170" type="line"/>
      <point x="-562" y="1170" type="line" smooth="yes"/>
      <point x="-623" y="1170"/>
      <point x="-645" y="1186"/>
      <point x="-645" y="1219" type="curve" smooth="yes"/>
      <point x="-645" y="1252"/>
      <point x="-623" y="1267"/>
      <point x="-562" y="1267" type="curve" smooth="yes"/>
      <point x="-155" y="1267" type="line"/>
      <point x="-155" y="1528" type="line"/>
      <point x="-587" y="1528" type="line" smooth="yes"/>
      <point x="-649" y="1528"/>
      <point x="-671" y="1544"/>
      <point x="-671" y="1578" type="curve" smooth="yes"/>
      <point x="-671" y="1612"/>
      <point x="-649" y="1629"/>
      <point x="-587" y="1629" type="curve" smooth="yes"/>
      <point x="78" y="1629" type="line"/>
      <point x="37" y="1897" type="line"/>
      <point x="-603" y="1897" type="line" smooth="yes"/>
      <point x="-867" y="1897"/>
      <point x="-997" y="1806"/>
      <point x="-997" y="1626" type="curve" smooth="yes"/>
      <point x="-997" y="1495"/>
      <point x="-919" y="1418"/>
      <point x="-771" y="1399" type="curve"/>
      <point x="-771" y="1392" type="line"/>
      <point x="-903" y="1360"/>
      <point x="-970" y="1287"/>
      <point x="-970" y="1172" type="curve" smooth="yes"/>
      <point x="-970" y="995"/>
      <point x="-841" y="909"/>
    </contour>
  </outline>
</glyph>
<glyph name="Lengthmark.te" format="2">
  <unicode hex="0C55"/>
  <outline>
    <contour>
      <point x="797" y="1877" type="curve"/>
      <point x="762" y="2138" type="line"/>
      <point x="699" y="2167"/>
      <point x="621" y="2184"/>
      <point x="531" y="2184" type="curve" smooth="yes"/>
      <point x="334" y="2184"/>
      <point x="223" y="2102"/>
      <point x="223" y="1956" type="curve" smooth="yes"/>
      <point x="223" y="1833"/>
      <point x="312" y="1760"/>
      <point x="486" y="1737" type="curve"/>
      <point x="595" y="1796" type="line"/>
      <point x="531" y="1808"/>
      <point x="507" y="1827"/>
      <point x="507" y="1862" type="curve" smooth="yes"/>
      <point x="507" y="1899"/>
      <point x="537" y="1922"/>
      <point x="618" y="1922" type="curve" smooth="yes"/>
      <point x="690" y="1922"/>
      <point x="749" y="1902"/>
    </contour>
  </outline>
</glyph>
<glyph name="matraAiLengthmark.te" format="2">
  <unicode hex="0C56"/>
  <anchor x="-135" y="-30" name="_bottom"/>
  <outline>
    <contour>
      <point x="-504" y="-706" type="curve" smooth="yes"/>
      <point x="443" y="-706" type="line"/>
      <point x="486" y="-476" type="line"/>
      <point x="-281" y="-476" type="line"/>
      <point x="-281" y="-469" type="line"/>
      <point x="-223" y="-448"/>
      <point x="-197" y="-400"/>
      <point x="-197" y="-332" type="curve" smooth="yes"/>
      <point x="-197" y="-330" type="line" smooth="yes"/>
      <point x="-197" y="-198"/>
      <point x="-312" y="-125"/>
      <point x="-510" y="-125" type="curve" smooth="yes"/>
      <point x="-715" y="-125"/>
      <point x="-824" y="-221"/>
      <point x="-824" y="-409" type="curve" smooth="yes"/>
      <point x="-824" y="-414" type="line" smooth="yes"/>
      <point x="-824" y="-604"/>
      <point x="-714" y="-706"/>
    </contour>
    <contour>
      <point x="-510" y="-476" type="curve" smooth="yes"/>
      <point x="-555" y="-476"/>
      <point x="-574" y="-454"/>
      <point x="-574" y="-405" type="curve" smooth="yes"/>
      <point x="-574" y="-402" type="line" smooth="yes"/>
      <point x="-574" y="-354"/>
      <point x="-556" y="-330"/>
      <point x="-510" y="-330" type="curve" smooth="yes"/>
      <point x="-464" y="-330"/>
      <point x="-445" y="-354"/>
      <point x="-445" y="-402" type="curve" smooth="yes"/>
      <point x="-445" y="-405" type="line" smooth="yes"/>
      <point x="-445" y="-454"/>
      <point x="-465" y="-476"/>
    </contour>
  </outline>
</glyph>
<glyph name="Tsa.te" format="2">
  <advance width="1628"/>
  <unicode hex="0C58"/>
  <anchor x="831" y="-53" name="bottom"/>
  <outline>
    <contour>
      <point x="114" y="1474" type="line"/>
      <point x="751" y="1474" type="line" smooth="yes"/>
      <point x="983" y="1474"/>
      <point x="1110" y="1609"/>
      <point x="1110" y="1793" type="curve" smooth="yes"/>
      <point x="1110" y="1841" type="line" smooth="yes"/>
      <point x="1110" y="2009"/>
      <point x="998" y="2146"/>
      <point x="741" y="2146" type="curve" smooth="yes"/>
      <point x="508" y="2146"/>
      <point x="390" y="2044"/>
      <point x="390" y="1907" type="curve" smooth="yes"/>
      <point x="390" y="1901" type="line" smooth="yes"/>
      <point x="390" y="1828"/>
      <point x="431" y="1760"/>
      <point x="515" y="1734" type="curve"/>
      <point x="515" y="1726" type="line"/>
      <point x="55" y="1727" type="line"/>
    </contour>
    <contour>
      <point x="753" y="1726" type="curve"/>
      <point x="696" y="1726"/>
      <point x="668" y="1755"/>
      <point x="668" y="1817" type="curve" smooth="yes"/>
      <point x="668" y="1826" type="line" smooth="yes"/>
      <point x="668" y="1888"/>
      <point x="695" y="1917"/>
      <point x="753" y="1917" type="curve" smooth="yes"/>
      <point x="807" y="1917"/>
      <point x="835" y="1888"/>
      <point x="835" y="1826" type="curve" smooth="yes"/>
      <point x="835" y="1817" type="line" smooth="yes"/>
      <point x="835" y="1755"/>
      <point x="808" y="1726"/>
    </contour>
    <component base="Ca.te"/>
  </outline>
</glyph>
<glyph name="Dza.te" format="2">
  <advance width="1589"/>
  <unicode hex="0C59"/>
  <anchor x="805" y="-53" name="bottom"/>
  <outline>
    <contour>
      <point x="162" y="1279" type="line"/>
      <point x="1135" y="1279" type="line" smooth="yes"/>
      <point x="1368" y="1279"/>
      <point x="1494" y="1414"/>
      <point x="1494" y="1598" type="curve" smooth="yes"/>
      <point x="1494" y="1646" type="line" smooth="yes"/>
      <point x="1494" y="1814"/>
      <point x="1382" y="1951"/>
      <point x="1125" y="1951" type="curve" smooth="yes"/>
      <point x="892" y="1951"/>
      <point x="774" y="1849"/>
      <point x="774" y="1712" type="curve" smooth="yes"/>
      <point x="774" y="1706" type="line" smooth="yes"/>
      <point x="774" y="1633"/>
      <point x="815" y="1564"/>
      <point x="899" y="1539" type="curve"/>
      <point x="899" y="1531" type="line"/>
      <point x="103" y="1532" type="line"/>
    </contour>
    <contour>
      <point x="1137" y="1531" type="curve"/>
      <point x="1080" y="1531"/>
      <point x="1052" y="1560"/>
      <point x="1052" y="1622" type="curve" smooth="yes"/>
      <point x="1052" y="1631" type="line" smooth="yes"/>
      <point x="1052" y="1693"/>
      <point x="1078" y="1722"/>
      <point x="1137" y="1722" type="curve" smooth="yes"/>
      <point x="1191" y="1722"/>
      <point x="1219" y="1693"/>
      <point x="1219" y="1631" type="curve" smooth="yes"/>
      <point x="1219" y="1622" type="line" smooth="yes"/>
      <point x="1219" y="1560"/>
      <point x="1192" y="1531"/>
    </contour>
    <component base="Ja.te"/>
  </outline>
</glyph>
<glyph name="Rrr.te" format="2">
  <advance width="1595"/>
  <unicode hex="0C5A"/>
  <outline>
    <contour>
      <point x="317" y="534" type="line"/>
      <point x="1294" y="534" type="line"/>
      <point x="1294" y="771" type="line"/>
      <point x="325" y="771" type="line"/>
    </contour>
    <contour>
      <point x="470" y="-36" type="curve" smooth="yes"/>
      <point x="666" y="-36"/>
      <point x="773" y="56"/>
      <point x="793" y="221" type="curve"/>
      <point x="803" y="221" type="line"/>
      <point x="823" y="56"/>
      <point x="930" y="-36"/>
      <point x="1126" y="-36" type="curve" smooth="yes"/>
      <point x="1383" y="-36"/>
      <point x="1521" y="124"/>
      <point x="1521" y="444" type="curve" smooth="yes"/>
      <point x="1521" y="516" type="line" smooth="yes"/>
      <point x="1521" y="970"/>
      <point x="1277" y="1191"/>
      <point x="798" y="1191" type="curve" smooth="yes"/>
      <point x="319" y="1191"/>
      <point x="75" y="970"/>
      <point x="75" y="516" type="curve" smooth="yes"/>
      <point x="75" y="444" type="line" smooth="yes"/>
      <point x="75" y="124"/>
      <point x="213" y="-36"/>
    </contour>
    <contour>
      <point x="529" y="286" type="curve" smooth="yes"/>
      <point x="449" y="286"/>
      <point x="412" y="336"/>
      <point x="412" y="454" type="curve" smooth="yes"/>
      <point x="412" y="527" type="line" smooth="yes"/>
      <point x="412" y="788"/>
      <point x="536" y="897"/>
      <point x="798" y="897" type="curve" smooth="yes"/>
      <point x="1060" y="897"/>
      <point x="1184" y="788"/>
      <point x="1184" y="527" type="curve" smooth="yes"/>
      <point x="1184" y="454" type="line" smooth="yes"/>
      <point x="1184" y="336"/>
      <point x="1147" y="286"/>
      <point x="1067" y="286" type="curve" smooth="yes"/>
      <point x="995" y="286"/>
      <point x="964" y="323"/>
      <point x="957" y="407" type="curve" smooth="yes"/>
      <point x="952" y="470" type="line"/>
      <point x="644" y="470" type="line"/>
      <point x="639" y="407" type="line" smooth="yes"/>
      <point x="632" y="323"/>
      <point x="597" y="286"/>
    </contour>
  </outline>
</glyph>
<glyph name="vowelVocalicRr.te" format="2">
  <advance width="3933"/>
  <unicode hex="0C60"/>
  <anchor x="783" y="0" name="_bottom"/>
  <outline>
    <contour>
      <point x="460" y="-36" type="curve" smooth="yes"/>
      <point x="664" y="-36"/>
      <point x="780" y="52"/>
      <point x="800" y="215" type="curve"/>
      <point x="810" y="215" type="line"/>
      <point x="832" y="52"/>
      <point x="941" y="-36"/>
      <point x="1140" y="-36" type="curve" smooth="yes"/>
      <point x="1338" y="-36"/>
      <point x="1466" y="77"/>
      <point x="1490" y="275" type="curve"/>
      <point x="1526" y="324"/>
      <point x="1546" y="382"/>
      <point x="1546" y="451" type="curve" smooth="yes"/>
      <point x="1546" y="584" type="line"/>
      <point x="1204" y="584" type="line"/>
      <point x="1204" y="455" type="line" smooth="yes"/>
      <point x="1204" y="336"/>
      <point x="1163" y="286"/>
      <point x="1084" y="286" type="curve" smooth="yes"/>
      <point x="1010" y="286"/>
      <point x="972" y="323"/>
      <point x="965" y="405" type="curve" smooth="yes"/>
      <point x="958" y="483" type="line"/>
      <point x="653" y="483" type="line"/>
      <point x="646" y="404" type="line" smooth="yes"/>
      <point x="638" y="318"/>
      <point x="594" y="279"/>
      <point x="513" y="279" type="curve" smooth="yes"/>
      <point x="444" y="279"/>
      <point x="410" y="306"/>
      <point x="410" y="357" type="curve" smooth="yes"/>
      <point x="410" y="359" type="line" smooth="yes"/>
      <point x="410" y="417"/>
      <point x="442" y="446"/>
      <point x="583" y="509" type="curve" smooth="yes"/>
      <point x="780" y="597"/>
      <point x="861" y="692"/>
      <point x="861" y="855" type="curve" smooth="yes"/>
      <point x="861" y="856" type="line" smooth="yes"/>
      <point x="861" y="1075"/>
      <point x="725" y="1191"/>
      <point x="466" y="1191" type="curve" smooth="yes"/>
      <point x="212" y="1191"/>
      <point x="80" y="1081"/>
      <point x="80" y="867" type="curve" smooth="yes"/>
      <point x="80" y="862" type="line" smooth="yes"/>
      <point x="80" y="805"/>
      <point x="93" y="740"/>
      <point x="115" y="687" type="curve"/>
      <point x="407" y="687" type="line"/>
      <point x="388" y="740"/>
      <point x="382" y="778"/>
      <point x="382" y="830" type="curve" smooth="yes"/>
      <point x="382" y="833" type="line" smooth="yes"/>
      <point x="382" y="895"/>
      <point x="409" y="922"/>
      <point x="468" y="922" type="curve" smooth="yes"/>
      <point x="524" y="922"/>
      <point x="551" y="898"/>
      <point x="551" y="850" type="curve" smooth="yes"/>
      <point x="551" y="849" type="line" smooth="yes"/>
      <point x="551" y="783"/>
      <point x="517" y="761"/>
      <point x="377" y="694" type="curve" smooth="yes"/>
      <point x="133" y="589"/>
      <point x="65" y="487"/>
      <point x="65" y="317" type="curve" smooth="yes"/>
      <point x="65" y="313" type="line" smooth="yes"/>
      <point x="65" y="95"/>
      <point x="202" y="-36"/>
    </contour>
    <contour>
      <point x="1546" y="463" type="curve"/>
      <point x="1546" y="506" type="line"/>
      <point x="1450" y="506" type="line"/>
      <point x="1450" y="279" type="line"/>
      <point x="1450" y="81"/>
      <point x="1582" y="-36"/>
      <point x="1806" y="-36" type="curve" smooth="yes"/>
      <point x="2023" y="-36"/>
      <point x="2158" y="84"/>
      <point x="2182" y="289" type="curve"/>
      <point x="2199" y="339"/>
      <point x="2241" y="387"/>
      <point x="2241" y="450" type="curve" smooth="yes"/>
      <point x="2241" y="595" type="line"/>
      <point x="1899" y="593" type="line"/>
      <point x="1899" y="469" type="line" smooth="yes"/>
      <point x="1899" y="344"/>
      <point x="1840" y="279"/>
      <point x="1723" y="279" type="curve" smooth="yes"/>
      <point x="1607" y="279"/>
      <point x="1546" y="343"/>
    </contour>
    <contour>
      <point x="2511" y="-36" type="curve" smooth="yes"/>
      <point x="2788" y="-36"/>
      <point x="2936" y="138"/>
      <point x="2936" y="465" type="curve" smooth="yes"/>
      <point x="2936" y="544" type="line"/>
      <point x="2594" y="561" type="line"/>
      <point x="2594" y="484" type="line" smooth="yes"/>
      <point x="2594" y="348"/>
      <point x="2534" y="279"/>
      <point x="2419" y="279" type="curve" smooth="yes"/>
      <point x="2303" y="279"/>
      <point x="2241" y="342"/>
      <point x="2241" y="463" type="curve"/>
      <point x="2241" y="506" type="line"/>
      <point x="2147" y="506" type="line"/>
      <point x="2147" y="279" type="line"/>
      <point x="2147" y="79"/>
      <point x="2280" y="-36"/>
    </contour>
    <contour>
      <point x="2594" y="539" type="line"/>
      <point x="2936" y="519" type="line"/>
      <point x="2936" y="594" type="line" smooth="yes"/>
      <point x="2936" y="859"/>
      <point x="2785" y="1017"/>
      <point x="2452" y="1041" type="curve"/>
      <point x="2410" y="1170" type="line"/>
      <point x="2366" y="870" type="line"/>
      <point x="2376" y="870" type="line"/>
      <point x="2523" y="870"/>
      <point x="2594" y="790"/>
      <point x="2594" y="630" type="curve" smooth="yes"/>
    </contour>
    <contour>
      <point x="3453" y="112" type="curve" smooth="yes"/>
      <point x="3719" y="112"/>
      <point x="3858" y="262"/>
      <point x="3858" y="546" type="curve" smooth="yes"/>
      <point x="3858" y="614" type="line" smooth="yes"/>
      <point x="3858" y="968"/>
      <point x="3654" y="1170"/>
      <point x="3261" y="1170" type="curve" smooth="yes"/>
      <point x="2410" y="1170" type="line"/>
      <point x="2422" y="929" type="line"/>
      <point x="2935" y="890" type="line"/>
      <point x="3256" y="890" type="line" smooth="yes"/>
      <point x="3449" y="890"/>
      <point x="3545" y="805"/>
      <point x="3545" y="667" type="curve" smooth="yes"/>
      <point x="3545" y="662" type="line"/>
      <point x="3521" y="662" type="line"/>
      <point x="3541" y="537" type="line"/>
      <point x="3541" y="498" type="line"/>
      <point x="3541" y="424"/>
      <point x="3512" y="387"/>
      <point x="3455" y="387" type="curve" smooth="yes"/>
      <point x="3410" y="387"/>
      <point x="3378" y="415"/>
      <point x="3378" y="468" type="curve" smooth="yes"/>
      <point x="3378" y="479" type="line" smooth="yes"/>
      <point x="3378" y="532"/>
      <point x="3409" y="559"/>
      <point x="3453" y="559" type="curve" smooth="yes"/>
      <point x="3496" y="559"/>
      <point x="3529" y="540"/>
      <point x="3546" y="503" type="curve"/>
      <point x="3538" y="647" type="line"/>
      <point x="3518" y="737"/>
      <point x="3452" y="797"/>
      <point x="3329" y="797" type="curve" smooth="yes"/>
      <point x="3164" y="797"/>
      <point x="3065" y="689"/>
      <point x="3065" y="484" type="curve" smooth="yes"/>
      <point x="3065" y="470" type="line" smooth="yes"/>
      <point x="3065" y="236"/>
      <point x="3198" y="112"/>
    </contour>
    <component base="Terminals.te" xOffset="1644"/>
    <component base="Terminals.te" xOffset="949"/>
  </outline>
</glyph>
<glyph name="vowelVocalicLl.te" format="2">
  <advance width="2956"/>
  <unicode hex="0C61"/>
  <outline>
    <contour>
      <point x="1268" y="-37" type="curve" smooth="yes"/>
      <point x="1729" y="-37"/>
      <point x="1969" y="181"/>
      <point x="1969" y="573" type="curve" smooth="yes"/>
      <point x="1969" y="604" type="line" smooth="yes"/>
      <point x="1969" y="859"/>
      <point x="1834" y="1000"/>
      <point x="1552" y="1025" type="curve"/>
      <point x="1493" y="1170" type="line"/>
      <point x="1435" y="866" type="line"/>
      <point x="1444" y="866" type="line" smooth="yes"/>
      <point x="1563" y="866"/>
      <point x="1627" y="790"/>
      <point x="1627" y="641" type="curve" smooth="yes"/>
      <point x="1627" y="575" type="line" smooth="yes"/>
      <point x="1627" y="370"/>
      <point x="1509" y="266"/>
      <point x="1267" y="266" type="curve" smooth="yes"/>
      <point x="1085" y="266"/>
      <point x="1001" y="301"/>
      <point x="1001" y="363" type="curve" smooth="yes"/>
      <point x="1001" y="364" type="line" smooth="yes"/>
      <point x="1001" y="411"/>
      <point x="1023" y="436"/>
      <point x="1182" y="490" type="curve" smooth="yes"/>
      <point x="1399" y="564"/>
      <point x="1475" y="663"/>
      <point x="1475" y="833" type="curve" smooth="yes"/>
      <point x="1475" y="835" type="line" smooth="yes"/>
      <point x="1475" y="1063"/>
      <point x="1340" y="1191"/>
      <point x="1088" y="1191" type="curve" smooth="yes"/>
      <point x="892" y="1191"/>
      <point x="796" y="1110"/>
      <point x="765" y="981" type="curve"/>
      <point x="756" y="981" type="line"/>
      <point x="725" y="1110"/>
      <point x="626" y="1191"/>
      <point x="442" y="1191" type="curve" smooth="yes"/>
      <point x="185" y="1191"/>
      <point x="55" y="1049"/>
      <point x="55" y="802" type="curve" smooth="yes"/>
      <point x="55" y="799" type="line" smooth="yes"/>
      <point x="55" y="767"/>
      <point x="59" y="726"/>
      <point x="70" y="684" type="curve"/>
      <point x="397" y="684" type="line"/>
      <point x="392" y="716"/>
      <point x="389" y="739"/>
      <point x="389" y="768" type="curve" smooth="yes"/>
      <point x="389" y="772" type="line" smooth="yes"/>
      <point x="389" y="851"/>
      <point x="421" y="889"/>
      <point x="495" y="889" type="curve" smooth="yes"/>
      <point x="569" y="889"/>
      <point x="597" y="853"/>
      <point x="603" y="793" type="curve" smooth="yes"/>
      <point x="610" y="717" type="line"/>
      <point x="912" y="717" type="line"/>
      <point x="919" y="793" type="line" smooth="yes"/>
      <point x="925" y="853"/>
      <point x="959" y="889"/>
      <point x="1033" y="889" type="curve" smooth="yes"/>
      <point x="1107" y="889"/>
      <point x="1141" y="862"/>
      <point x="1141" y="809" type="curve" smooth="yes"/>
      <point x="1141" y="807" type="line" smooth="yes"/>
      <point x="1141" y="758"/>
      <point x="1106" y="725"/>
      <point x="981" y="685" type="curve" smooth="yes"/>
      <point x="746" y="610"/>
      <point x="655" y="511"/>
      <point x="655" y="343" type="curve" smooth="yes"/>
      <point x="655" y="340" type="line" smooth="yes"/>
      <point x="655" y="97"/>
      <point x="877" y="-37"/>
    </contour>
    <contour>
      <point x="2476" y="112" type="curve" smooth="yes"/>
      <point x="2742" y="112"/>
      <point x="2881" y="262"/>
      <point x="2881" y="546" type="curve" smooth="yes"/>
      <point x="2881" y="614" type="line" smooth="yes"/>
      <point x="2881" y="973"/>
      <point x="2669" y="1170"/>
      <point x="2285" y="1170" type="curve" smooth="yes"/>
      <point x="1493" y="1170" type="line"/>
      <point x="1510" y="929" type="line"/>
      <point x="1968" y="890" type="line"/>
      <point x="2279" y="890" type="line" smooth="yes"/>
      <point x="2473" y="890"/>
      <point x="2568" y="807"/>
      <point x="2568" y="667" type="curve" smooth="yes"/>
      <point x="2568" y="662" type="line"/>
      <point x="2544" y="662" type="line"/>
      <point x="2564" y="537" type="line"/>
      <point x="2564" y="498" type="line"/>
      <point x="2564" y="424"/>
      <point x="2535" y="387"/>
      <point x="2478" y="387" type="curve" smooth="yes"/>
      <point x="2433" y="387"/>
      <point x="2401" y="415"/>
      <point x="2401" y="468" type="curve" smooth="yes"/>
      <point x="2401" y="479" type="line" smooth="yes"/>
      <point x="2401" y="532"/>
      <point x="2432" y="559"/>
      <point x="2476" y="559" type="curve" smooth="yes"/>
      <point x="2519" y="559"/>
      <point x="2552" y="540"/>
      <point x="2569" y="503" type="curve"/>
      <point x="2561" y="647" type="line"/>
      <point x="2540" y="740"/>
      <point x="2474" y="797"/>
      <point x="2352" y="797" type="curve" smooth="yes"/>
      <point x="2189" y="797"/>
      <point x="2088" y="688"/>
      <point x="2088" y="484" type="curve" smooth="yes"/>
      <point x="2088" y="470" type="line" smooth="yes"/>
      <point x="2088" y="236"/>
      <point x="2221" y="112"/>
    </contour>
  </outline>
</glyph>
<glyph name="VocalicLsmall1.te" format="2">
  <unicode hex="0C62"/>
  <anchor x="0" y="-31" name="_bottom"/>
  <outline>
    <contour>
      <point x="189" y="-775" type="curve" smooth="yes"/>
      <point x="462" y="-775"/>
      <point x="603" y="-657"/>
      <point x="603" y="-435" type="curve" smooth="yes"/>
      <point x="603" y="-410" type="line" smooth="yes"/>
      <point x="603" y="-206"/>
      <point x="501" y="-98"/>
      <point x="326" y="-98" type="curve" smooth="yes"/>
      <point x="318" y="-98" type="line"/>
      <point x="285" y="-282" type="line"/>
      <point x="290" y="-282" type="line" smooth="yes"/>
      <point x="356" y="-282"/>
      <point x="392" y="-324"/>
      <point x="392" y="-411" type="curve" smooth="yes"/>
      <point x="392" y="-431" type="line" smooth="yes"/>
      <point x="392" y="-543"/>
      <point x="325" y="-601"/>
      <point x="185" y="-601" type="curve" smooth="yes"/>
      <point x="82" y="-601"/>
      <point x="39" y="-585"/>
      <point x="39" y="-555" type="curve" smooth="yes"/>
      <point x="39" y="-554" type="line" smooth="yes"/>
      <point x="39" y="-532"/>
      <point x="55" y="-520"/>
      <point x="149" y="-489" type="curve" smooth="yes"/>
      <point x="270" y="-449"/>
      <point x="300" y="-385"/>
      <point x="300" y="-303" type="curve" smooth="yes"/>
      <point x="300" y="-300" type="line" smooth="yes"/>
      <point x="300" y="-166"/>
      <point x="220" y="-95"/>
      <point x="63" y="-95" type="curve" smooth="yes"/>
      <point x="-58" y="-95"/>
      <point x="-121" y="-138"/>
      <point x="-137" y="-219" type="curve"/>
      <point x="-145" y="-219" type="line"/>
      <point x="-159" y="-139"/>
      <point x="-226" y="-95"/>
      <point x="-340" y="-95" type="curve" smooth="yes"/>
      <point x="-494" y="-95"/>
      <point x="-574" y="-169"/>
      <point x="-574" y="-309" type="curve" smooth="yes"/>
      <point x="-574" y="-312" type="line" smooth="yes"/>
      <point x="-574" y="-334"/>
      <point x="-573" y="-355"/>
      <point x="-567" y="-380" type="curve"/>
      <point x="-360" y="-380" type="line"/>
      <point x="-364" y="-363"/>
      <point x="-365" y="-350"/>
      <point x="-365" y="-338" type="curve" smooth="yes"/>
      <point x="-365" y="-336" type="line" smooth="yes"/>
      <point x="-365" y="-295"/>
      <point x="-345" y="-275"/>
      <point x="-303" y="-275" type="curve" smooth="yes"/>
      <point x="-266" y="-275"/>
      <point x="-246" y="-295"/>
      <point x="-242" y="-332" type="curve" smooth="yes"/>
      <point x="-239" y="-360" type="line"/>
      <point x="-43" y="-360" type="line"/>
      <point x="-40" y="-332" type="line" smooth="yes"/>
      <point x="-36" y="-295"/>
      <point x="-19" y="-275"/>
      <point x="29" y="-275" type="curve" smooth="yes"/>
      <point x="75" y="-275"/>
      <point x="93" y="-290"/>
      <point x="93" y="-314" type="curve" smooth="yes"/>
      <point x="93" y="-315" type="line" smooth="yes"/>
      <point x="93" y="-343"/>
      <point x="72" y="-358"/>
      <point x="-11" y="-385" type="curve" smooth="yes"/>
      <point x="-129" y="-424"/>
      <point x="-172" y="-476"/>
      <point x="-172" y="-563" type="curve" smooth="yes"/>
      <point x="-172" y="-565" type="line" smooth="yes"/>
      <point x="-172" y="-701"/>
      <point x="-51" y="-775"/>
    </contour>
  </outline>
</glyph>
<glyph name="VocalicLlsmall1.te" format="2">
  <unicode hex="0C63"/>
  <anchor x="300" y="-31" name="_bottom"/>
  <outline>
    <contour>
      <point x="189" y="-775" type="curve" smooth="yes"/>
      <point x="464" y="-775"/>
      <point x="603" y="-648"/>
      <point x="603" y="-435" type="curve" smooth="yes"/>
      <point x="603" y="-425" type="line" smooth="yes"/>
      <point x="603" y="-273"/>
      <point x="509" y="-198"/>
      <point x="346" y="-198" type="curve"/>
      <point x="318" y="-98" type="line"/>
      <point x="285" y="-282" type="line"/>
      <point x="290" y="-282" type="line" smooth="yes"/>
      <point x="356" y="-282"/>
      <point x="392" y="-324"/>
      <point x="392" y="-411" type="curve" smooth="yes"/>
      <point x="392" y="-431" type="line" smooth="yes"/>
      <point x="392" y="-544"/>
      <point x="325" y="-601"/>
      <point x="185" y="-601" type="curve" smooth="yes"/>
      <point x="82" y="-601"/>
      <point x="39" y="-585"/>
      <point x="39" y="-555" type="curve" smooth="yes"/>
      <point x="39" y="-554" type="line" smooth="yes"/>
      <point x="39" y="-532"/>
      <point x="55" y="-520"/>
      <point x="149" y="-489" type="curve" smooth="yes"/>
      <point x="270" y="-449"/>
      <point x="300" y="-385"/>
      <point x="300" y="-303" type="curve" smooth="yes"/>
      <point x="300" y="-300" type="line" smooth="yes"/>
      <point x="300" y="-166"/>
      <point x="220" y="-95"/>
      <point x="63" y="-95" type="curve" smooth="yes"/>
      <point x="-58" y="-95"/>
      <point x="-121" y="-138"/>
      <point x="-137" y="-219" type="curve"/>
      <point x="-145" y="-219" type="line"/>
      <point x="-159" y="-139"/>
      <point x="-226" y="-95"/>
      <point x="-340" y="-95" type="curve" smooth="yes"/>
      <point x="-494" y="-95"/>
      <point x="-574" y="-169"/>
      <point x="-574" y="-309" type="curve"/>
      <point x="-574" y="-312" type="line"/>
      <point x="-574" y="-334"/>
      <point x="-573" y="-355"/>
      <point x="-567" y="-380" type="curve"/>
      <point x="-360" y="-380" type="line"/>
      <point x="-364" y="-363"/>
      <point x="-365" y="-350"/>
      <point x="-365" y="-338" type="curve" smooth="yes"/>
      <point x="-365" y="-336" type="line" smooth="yes"/>
      <point x="-365" y="-295"/>
      <point x="-345" y="-275"/>
      <point x="-303" y="-275" type="curve" smooth="yes"/>
      <point x="-266" y="-275"/>
      <point x="-246" y="-295"/>
      <point x="-242" y="-332" type="curve" smooth="yes"/>
      <point x="-239" y="-360" type="line"/>
      <point x="-43" y="-360" type="line"/>
      <point x="-40" y="-332" type="line" smooth="yes"/>
      <point x="-36" y="-295"/>
      <point x="-19" y="-275"/>
      <point x="29" y="-275" type="curve" smooth="yes"/>
      <point x="75" y="-275"/>
      <point x="93" y="-290"/>
      <point x="93" y="-314" type="curve" smooth="yes"/>
      <point x="93" y="-315" type="line" smooth="yes"/>
      <point x="93" y="-343"/>
      <point x="72" y="-358"/>
      <point x="-11" y="-385" type="curve" smooth="yes"/>
      <point x="-129" y="-424"/>
      <point x="-172" y="-476"/>
      <point x="-172" y="-563" type="curve" smooth="yes"/>
      <point x="-172" y="-565" type="line" smooth="yes"/>
      <point x="-172" y="-701"/>
      <point x="-51" y="-775"/>
    </contour>
    <contour>
      <point x="892" y="-704" type="curve" smooth="yes"/>
      <point x="1046" y="-704"/>
      <point x="1132" y="-605"/>
      <point x="1132" y="-455" type="curve" smooth="yes"/>
      <point x="1132" y="-404" type="line" smooth="yes"/>
      <point x="1132" y="-204"/>
      <point x="1010" y="-98"/>
      <point x="782" y="-98" type="curve" smooth="yes"/>
      <point x="318" y="-98" type="line"/>
      <point x="317" y="-247" type="line"/>
      <point x="645" y="-268" type="line"/>
      <point x="780" y="-268" type="line" smooth="yes"/>
      <point x="896" y="-268"/>
      <point x="944" y="-307"/>
      <point x="944" y="-389" type="curve"/>
      <point x="944" y="-392" type="line"/>
      <point x="936" y="-392" type="line"/>
      <point x="940" y="-457" type="line"/>
      <point x="940" y="-490" type="line" smooth="yes"/>
      <point x="940" y="-523"/>
      <point x="926" y="-546"/>
      <point x="894" y="-546" type="curve" smooth="yes"/>
      <point x="864" y="-546"/>
      <point x="850" y="-529"/>
      <point x="850" y="-501" type="curve" smooth="yes"/>
      <point x="850" y="-497" type="line" smooth="yes"/>
      <point x="850" y="-467"/>
      <point x="864" y="-451"/>
      <point x="893" y="-451" type="curve" smooth="yes"/>
      <point x="919" y="-451"/>
      <point x="934" y="-463"/>
      <point x="946" y="-486" type="curve"/>
      <point x="940" y="-394" type="line"/>
      <point x="927" y="-346"/>
      <point x="889" y="-313"/>
      <point x="822" y="-313" type="curve" smooth="yes"/>
      <point x="715" y="-313"/>
      <point x="659" y="-379"/>
      <point x="659" y="-495" type="curve" smooth="yes"/>
      <point x="659" y="-503" type="line" smooth="yes"/>
      <point x="659" y="-628"/>
      <point x="742" y="-704"/>
    </contour>
  </outline>
</glyph>
<glyph name="one.te" format="2">
  <advance width="1272"/>
  <unicode hex="0C67"/>
  <outline>
    <contour>
      <point x="747" y="0" type="curve"/>
      <point x="1108" y="0" type="line"/>
      <point x="1181" y="167"/>
      <point x="1197" y="331"/>
      <point x="1197" y="462" type="curve" smooth="yes"/>
      <point x="1197" y="615" type="line" smooth="yes"/>
      <point x="1197" y="984"/>
      <point x="1016" y="1199"/>
      <point x="636" y="1199" type="curve" smooth="yes"/>
      <point x="256" y="1199"/>
      <point x="75" y="984"/>
      <point x="75" y="616" type="curve" smooth="yes"/>
      <point x="75" y="463" type="line" smooth="yes"/>
      <point x="75" y="331"/>
      <point x="92" y="167"/>
      <point x="164" y="0" type="curve"/>
      <point x="526" y="0" type="line"/>
      <point x="447" y="168"/>
      <point x="422" y="327"/>
      <point x="422" y="462" type="curve" smooth="yes"/>
      <point x="422" y="615" type="line" smooth="yes"/>
      <point x="422" y="800"/>
      <point x="498" y="885"/>
      <point x="636" y="885" type="curve" smooth="yes"/>
      <point x="774" y="885"/>
      <point x="851" y="800"/>
      <point x="851" y="615" type="curve" smooth="yes"/>
      <point x="851" y="462" type="line" smooth="yes"/>
      <point x="851" y="326"/>
      <point x="825" y="168"/>
    </contour>
  </outline>
</glyph>
<glyph name="two.te" format="2">
  <advance width="1411"/>
  <unicode hex="0C68"/>
  <outline>
    <contour>
      <point x="49" y="1" type="line"/>
      <point x="662" y="1" type="line" smooth="yes"/>
      <point x="1106" y="1"/>
      <point x="1336" y="208"/>
      <point x="1336" y="597" type="curve" smooth="yes"/>
      <point x="1336" y="631" type="line" smooth="yes"/>
      <point x="1336" y="990"/>
      <point x="1119" y="1194"/>
      <point x="691" y="1194" type="curve" smooth="yes"/>
      <point x="291" y="1194"/>
      <point x="148" y="1021"/>
      <point x="148" y="789" type="curve" smooth="yes"/>
      <point x="148" y="782" type="line" smooth="yes"/>
      <point x="148" y="581"/>
      <point x="274" y="449"/>
      <point x="548" y="449" type="curve" smooth="yes"/>
      <point x="823" y="449"/>
      <point x="913" y="571"/>
      <point x="913" y="718" type="curve" smooth="yes"/>
      <point x="913" y="719" type="line" smooth="yes"/>
      <point x="913" y="799"/>
      <point x="889" y="871"/>
      <point x="801" y="909" type="curve"/>
      <point x="819" y="975" type="line"/>
      <point x="540" y="934" type="line"/>
      <point x="591" y="900"/>
      <point x="622" y="869"/>
      <point x="622" y="798" type="curve" smooth="yes"/>
      <point x="622" y="791" type="line" smooth="yes"/>
      <point x="622" y="741"/>
      <point x="599" y="710"/>
      <point x="548" y="710" type="curve" smooth="yes"/>
      <point x="495" y="710"/>
      <point x="474" y="741"/>
      <point x="474" y="791" type="curve" smooth="yes"/>
      <point x="474" y="798" type="line" smooth="yes"/>
      <point x="474" y="884"/>
      <point x="533" y="930"/>
      <point x="658" y="930" type="curve" smooth="yes"/>
      <point x="921" y="930"/>
      <point x="1003" y="828"/>
      <point x="1003" y="639" type="curve" smooth="yes"/>
      <point x="1003" y="610" type="line" smooth="yes"/>
      <point x="1003" y="408"/>
      <point x="879" y="295"/>
      <point x="626" y="295" type="curve" smooth="yes"/>
      <point x="-5" y="295" type="line"/>
    </contour>
  </outline>
</glyph>
<glyph name="three.te" format="2">
  <advance width="1014"/>
  <unicode hex="0C69"/>
  <outline>
    <contour>
      <point x="460" y="-29" type="curve" smooth="yes"/>
      <point x="780" y="-29"/>
      <point x="944" y="93"/>
      <point x="944" y="316" type="curve" smooth="yes"/>
      <point x="944" y="322" type="line" smooth="yes"/>
      <point x="944" y="486"/>
      <point x="856" y="568"/>
      <point x="708" y="591" type="curve"/>
      <point x="708" y="598" type="line"/>
      <point x="851" y="622"/>
      <point x="935" y="703"/>
      <point x="935" y="861" type="curve" smooth="yes"/>
      <point x="935" y="866" type="line" smooth="yes"/>
      <point x="935" y="1077"/>
      <point x="777" y="1189"/>
      <point x="476" y="1189" type="curve" smooth="yes"/>
      <point x="341" y="1189"/>
      <point x="211" y="1174"/>
      <point x="104" y="1141" type="curve"/>
      <point x="72" y="844" type="line"/>
      <point x="161" y="872"/>
      <point x="273" y="891"/>
      <point x="396" y="891" type="curve" smooth="yes"/>
      <point x="551" y="891"/>
      <point x="597" y="863"/>
      <point x="597" y="814" type="curve" smooth="yes"/>
      <point x="597" y="810" type="line" smooth="yes"/>
      <point x="597" y="760"/>
      <point x="556" y="736"/>
      <point x="446" y="732" type="curve" smooth="yes"/>
      <point x="253" y="724" type="line"/>
      <point x="253" y="465" type="line"/>
      <point x="446" y="457" type="line" smooth="yes"/>
      <point x="562" y="452"/>
      <point x="606" y="424"/>
      <point x="606" y="370" type="curve" smooth="yes"/>
      <point x="606" y="365" type="line" smooth="yes"/>
      <point x="606" y="309"/>
      <point x="560" y="273"/>
      <point x="395" y="273" type="curve" smooth="yes"/>
      <point x="272" y="273"/>
      <point x="155" y="291"/>
      <point x="53" y="323" type="curve"/>
      <point x="85" y="20" type="line"/>
      <point x="193" y="-13"/>
      <point x="326" y="-29"/>
    </contour>
  </outline>
</glyph>
<glyph name="four.te" format="2">
  <advance width="1395"/>
  <unicode hex="0C6A"/>
  <outline>
    <contour>
      <point x="499" y="371" type="curve"/>
      <point x="699" y="415" type="line"/>
      <point x="893" y="370" type="line"/>
      <point x="1190" y="399"/>
      <point x="1335" y="537"/>
      <point x="1335" y="776" type="curve" smooth="yes"/>
      <point x="1335" y="784" type="line" smooth="yes"/>
      <point x="1335" y="1024"/>
      <point x="1188" y="1170"/>
      <point x="898" y="1170" type="curve" smooth="yes"/>
      <point x="881" y="1170" type="line"/>
      <point x="822" y="878" type="line"/>
      <point x="832" y="878" type="line" smooth="yes"/>
      <point x="942" y="878"/>
      <point x="1000" y="843"/>
      <point x="1000" y="760" type="curve" smooth="yes"/>
      <point x="1000" y="751" type="line" smooth="yes"/>
      <point x="1000" y="664"/>
      <point x="939" y="605"/>
      <point x="698" y="605" type="curve" smooth="yes"/>
      <point x="458" y="605"/>
      <point x="395" y="664"/>
      <point x="395" y="751" type="curve" smooth="yes"/>
      <point x="395" y="760" type="line" smooth="yes"/>
      <point x="395" y="843"/>
      <point x="454" y="878"/>
      <point x="563" y="878" type="curve" smooth="yes"/>
      <point x="573" y="878" type="line"/>
      <point x="514" y="1170" type="line"/>
      <point x="497" y="1170" type="line" smooth="yes"/>
      <point x="207" y="1170"/>
      <point x="60" y="1024"/>
      <point x="60" y="784" type="curve" smooth="yes"/>
      <point x="60" y="776" type="line" smooth="yes"/>
      <point x="60" y="537"/>
      <point x="204" y="399"/>
    </contour>
    <contour>
      <point x="698" y="-39" type="curve" smooth="yes"/>
      <point x="1007" y="-39"/>
      <point x="1110" y="88"/>
      <point x="1110" y="239" type="curve" smooth="yes"/>
      <point x="1110" y="242" type="line" smooth="yes"/>
      <point x="1110" y="418"/>
      <point x="961" y="498"/>
      <point x="698" y="498" type="curve" smooth="yes"/>
      <point x="434" y="498"/>
      <point x="285" y="418"/>
      <point x="285" y="242" type="curve" smooth="yes"/>
      <point x="285" y="239" type="line" smooth="yes"/>
      <point x="285" y="88"/>
      <point x="388" y="-39"/>
    </contour>
    <contour>
      <point x="698" y="232" type="curve" smooth="yes"/>
      <point x="642" y="232"/>
      <point x="607" y="254"/>
      <point x="607" y="300" type="curve" smooth="yes"/>
      <point x="607" y="304" type="line" smooth="yes"/>
      <point x="607" y="350"/>
      <point x="642" y="370"/>
      <point x="698" y="370" type="curve" smooth="yes"/>
      <point x="754" y="370"/>
      <point x="788" y="350"/>
      <point x="788" y="304" type="curve" smooth="yes"/>
      <point x="788" y="300" type="line" smooth="yes"/>
      <point x="788" y="254"/>
      <point x="754" y="232"/>
    </contour>
  </outline>
</glyph>
<glyph name="five.te" format="2">
  <advance width="1657"/>
  <unicode hex="0C6B"/>
  <outline>
    <contour>
      <point x="94" y="-12" type="line"/>
      <point x="441" y="-12" type="line"/>
      <point x="442" y="32" type="line" smooth="yes"/>
      <point x="444" y="140"/>
      <point x="515" y="187"/>
      <point x="664" y="245" type="curve" smooth="yes"/>
      <point x="871" y="325" type="line" smooth="yes"/>
      <point x="957" y="358"/>
      <point x="1035" y="375"/>
      <point x="1111" y="375" type="curve" smooth="yes"/>
      <point x="1115" y="375" type="line" smooth="yes"/>
      <point x="1199" y="375"/>
      <point x="1234" y="334"/>
      <point x="1234" y="235" type="curve" smooth="yes"/>
      <point x="1234" y="176" type="line" smooth="yes"/>
      <point x="1234" y="107"/>
      <point x="1242" y="40"/>
      <point x="1267" y="-24" type="curve"/>
      <point x="1602" y="-24" type="line"/>
      <point x="1567" y="69"/>
      <point x="1554" y="137"/>
      <point x="1554" y="215" type="curve" smooth="yes"/>
      <point x="1554" y="286" type="line" smooth="yes"/>
      <point x="1554" y="527"/>
      <point x="1429" y="658"/>
      <point x="1185" y="658" type="curve" smooth="yes"/>
      <point x="1156" y="658" type="line" smooth="yes"/>
      <point x="1055" y="658"/>
      <point x="893" y="630"/>
      <point x="758" y="582" type="curve" smooth="yes"/>
      <point x="521" y="498" type="line" smooth="yes"/>
      <point x="233" y="396"/>
      <point x="94" y="266"/>
      <point x="94" y="41" type="curve" smooth="yes"/>
    </contour>
    <contour>
      <point x="327" y="359" type="curve"/>
      <point x="625" y="401" type="line"/>
      <point x="664" y="487"/>
      <point x="686" y="569"/>
      <point x="686" y="651" type="curve" smooth="yes"/>
      <point x="686" y="730" type="line" smooth="yes"/>
      <point x="686" y="1041"/>
      <point x="544" y="1196"/>
      <point x="276" y="1196" type="curve" smooth="yes"/>
      <point x="206" y="1196"/>
      <point x="137" y="1184"/>
      <point x="81" y="1162" type="curve"/>
      <point x="50" y="872" type="line"/>
      <point x="86" y="893"/>
      <point x="143" y="909"/>
      <point x="198" y="909" type="curve" smooth="yes"/>
      <point x="325" y="909"/>
      <point x="375" y="845"/>
      <point x="375" y="685" type="curve" smooth="yes"/>
      <point x="375" y="581" type="line" smooth="yes"/>
      <point x="375" y="497"/>
      <point x="363" y="436"/>
    </contour>
    <contour>
      <point x="939" y="557" type="curve"/>
      <point x="1131" y="654" type="line"/>
      <point x="1096" y="688"/>
      <point x="1081" y="726"/>
      <point x="1081" y="785" type="curve" smooth="yes"/>
      <point x="1081" y="803" type="line" smooth="yes"/>
      <point x="1081" y="874"/>
      <point x="1107" y="914"/>
      <point x="1173" y="914" type="curve" smooth="yes"/>
      <point x="1239" y="914"/>
      <point x="1264" y="874"/>
      <point x="1264" y="803" type="curve" smooth="yes"/>
      <point x="1264" y="785" type="line" smooth="yes"/>
      <point x="1264" y="726"/>
      <point x="1249" y="688"/>
      <point x="1213" y="654" type="curve"/>
      <point x="1420" y="542" type="line"/>
      <point x="1534" y="613"/>
      <point x="1580" y="704"/>
      <point x="1580" y="838" type="curve" smooth="yes"/>
      <point x="1580" y="848" type="line" smooth="yes"/>
      <point x="1580" y="1060"/>
      <point x="1445" y="1195"/>
      <point x="1173" y="1195" type="curve" smooth="yes"/>
      <point x="901" y="1195"/>
      <point x="765" y="1060"/>
      <point x="765" y="848" type="curve" smooth="yes"/>
      <point x="765" y="838" type="line" smooth="yes"/>
      <point x="765" y="704"/>
      <point x="812" y="615"/>
    </contour>
  </outline>
</glyph>
<glyph name="six.te" format="2">
  <advance width="1395"/>
  <unicode hex="0C6C"/>
  <outline>
    <contour>
      <point x="490" y="0" type="curve" smooth="yes"/>
      <point x="1355" y="0" type="line"/>
      <point x="1355" y="296" type="line"/>
      <point x="506" y="296" type="line" smooth="yes"/>
      <point x="426" y="296"/>
      <point x="393" y="321"/>
      <point x="393" y="374" type="curve" smooth="yes"/>
      <point x="393" y="375" type="line" smooth="yes"/>
      <point x="393" y="427"/>
      <point x="427" y="453"/>
      <point x="506" y="453" type="curve" smooth="yes"/>
      <point x="962" y="453" type="line"/>
      <point x="962" y="718" type="line"/>
      <point x="510" y="718" type="line" smooth="yes"/>
      <point x="427" y="718"/>
      <point x="401" y="747"/>
      <point x="401" y="795" type="curve" smooth="yes"/>
      <point x="401" y="796" type="line" smooth="yes"/>
      <point x="401" y="848"/>
      <point x="430" y="874"/>
      <point x="508" y="874" type="curve" smooth="yes"/>
      <point x="701" y="874" type="line"/>
      <point x="640" y="1170" type="line"/>
      <point x="490" y="1170" type="line" smooth="yes"/>
      <point x="201" y="1170"/>
      <point x="68" y="1052"/>
      <point x="68" y="851" type="curve" smooth="yes"/>
      <point x="68" y="848" type="line" smooth="yes"/>
      <point x="68" y="704"/>
      <point x="143" y="615"/>
      <point x="280" y="591" type="curve"/>
      <point x="280" y="584" type="line"/>
      <point x="139" y="560"/>
      <point x="60" y="473"/>
      <point x="60" y="320" type="curve" smooth="yes"/>
      <point x="60" y="316" type="line" smooth="yes"/>
      <point x="60" y="121"/>
      <point x="198" y="0"/>
    </contour>
  </outline>
</glyph>
<glyph name="seven.te" format="2">
  <advance width="1162"/>
  <unicode hex="0C6D"/>
  <outline>
    <contour>
      <point x="1042" y="51" type="curve"/>
      <point x="1087" y="387" type="line"/>
      <point x="934" y="311"/>
      <point x="787" y="274"/>
      <point x="633" y="274" type="curve" smooth="yes"/>
      <point x="457" y="274"/>
      <point x="414" y="305"/>
      <point x="414" y="357" type="curve" smooth="yes"/>
      <point x="414" y="358" type="line" smooth="yes"/>
      <point x="414" y="408"/>
      <point x="450" y="434"/>
      <point x="680" y="494" type="curve" smooth="yes"/>
      <point x="977" y="571"/>
      <point x="1063" y="679"/>
      <point x="1063" y="841" type="curve" smooth="yes"/>
      <point x="1063" y="844" type="line" smooth="yes"/>
      <point x="1063" y="1059"/>
      <point x="906" y="1188"/>
      <point x="590" y="1188" type="curve" smooth="yes"/>
      <point x="435" y="1188"/>
      <point x="291" y="1157"/>
      <point x="185" y="1110" type="curve"/>
      <point x="140" y="808" type="line"/>
      <point x="261" y="863"/>
      <point x="410" y="899"/>
      <point x="544" y="899" type="curve" smooth="yes"/>
      <point x="676" y="899"/>
      <point x="728" y="872"/>
      <point x="728" y="828" type="curve" smooth="yes"/>
      <point x="728" y="827" type="line" smooth="yes"/>
      <point x="728" y="786"/>
      <point x="704" y="766"/>
      <point x="492" y="705" type="curve" smooth="yes"/>
      <point x="180" y="615"/>
      <point x="75" y="524"/>
      <point x="75" y="337" type="curve" smooth="yes"/>
      <point x="75" y="335" type="line" smooth="yes"/>
      <point x="75" y="106"/>
      <point x="232" y="-34"/>
      <point x="619" y="-34" type="curve" smooth="yes"/>
      <point x="798" y="-34"/>
      <point x="932" y="2"/>
    </contour>
  </outline>
</glyph>
<glyph name="eight.te" format="2">
  <advance width="1275"/>
  <unicode hex="0C6E"/>
  <outline>
    <contour>
      <point x="636" y="-36" type="curve" smooth="yes"/>
      <point x="1004" y="-36"/>
      <point x="1194" y="148"/>
      <point x="1194" y="512" type="curve" smooth="yes"/>
      <point x="1194" y="601" type="line" smooth="yes"/>
      <point x="1194" y="753"/>
      <point x="1144" y="866"/>
      <point x="1025" y="915" type="curve"/>
      <point x="1025" y="923" type="line"/>
      <point x="1256" y="918" type="line"/>
      <point x="1212" y="1182" type="line"/>
      <point x="710" y="1168" type="line"/>
      <point x="710" y="920" type="line"/>
      <point x="776" y="910" type="line"/>
      <point x="824" y="875"/>
      <point x="851" y="792"/>
      <point x="851" y="694" type="curve" smooth="yes"/>
      <point x="851" y="560" type="line" smooth="yes"/>
      <point x="851" y="371"/>
      <point x="781" y="279"/>
      <point x="636" y="279" type="curve" smooth="yes"/>
      <point x="492" y="279"/>
      <point x="422" y="371"/>
      <point x="422" y="560" type="curve" smooth="yes"/>
      <point x="422" y="705" type="line" smooth="yes"/>
      <point x="422" y="841"/>
      <point x="447" y="1002"/>
      <point x="526" y="1172" type="curve"/>
      <point x="169" y="1172" type="line"/>
      <point x="93" y="1008"/>
      <point x="75" y="852"/>
      <point x="75" y="704" type="curve" smooth="yes"/>
      <point x="75" y="559" type="line" smooth="yes"/>
      <point x="75" y="168"/>
      <point x="267" y="-36"/>
    </contour>
  </outline>
</glyph>
<glyph name="nine.te" format="2">
  <advance width="1401"/>
  <unicode hex="0C6F"/>
  <outline>
    <contour>
      <point x="495" y="1" type="curve" smooth="yes"/>
      <point x="709" y="1" type="line"/>
      <point x="709" y="296" type="line"/>
      <point x="511" y="296" type="line" smooth="yes"/>
      <point x="431" y="296"/>
      <point x="398" y="321"/>
      <point x="398" y="374" type="curve" smooth="yes"/>
      <point x="398" y="375" type="line" smooth="yes"/>
      <point x="398" y="427"/>
      <point x="432" y="453"/>
      <point x="511" y="453" type="curve" smooth="yes"/>
      <point x="967" y="453" type="line"/>
      <point x="967" y="718" type="line"/>
      <point x="515" y="718" type="line" smooth="yes"/>
      <point x="432" y="718"/>
      <point x="406" y="747"/>
      <point x="406" y="795" type="curve" smooth="yes"/>
      <point x="406" y="796" type="line" smooth="yes"/>
      <point x="406" y="848"/>
      <point x="435" y="874"/>
      <point x="513" y="874" type="curve" smooth="yes"/>
      <point x="1363" y="874" type="line"/>
      <point x="1302" y="1170" type="line"/>
      <point x="495" y="1170" type="line" smooth="yes"/>
      <point x="206" y="1170"/>
      <point x="73" y="1052"/>
      <point x="73" y="851" type="curve" smooth="yes"/>
      <point x="73" y="848" type="line" smooth="yes"/>
      <point x="73" y="704"/>
      <point x="148" y="615"/>
      <point x="285" y="591" type="curve"/>
      <point x="285" y="584" type="line"/>
      <point x="144" y="560"/>
      <point x="65" y="473"/>
      <point x="65" y="320" type="curve" smooth="yes"/>
      <point x="65" y="316" type="line" smooth="yes"/>
      <point x="65" y="121"/>
      <point x="203" y="1"/>
    </contour>
  </outline>
</glyph>
